<svg width="829" height="785" viewBox="0 0 829 785" fill="none" xmlns="http://www.w3.org/2000/svg">
<path fill-rule="evenodd" clip-rule="evenodd" d="M436.365 0.0484964C523.843 -2.18585 589.74 73.2654 658.69 127.143C724.955 178.923 815.203 222.795 827.822 305.935C840.36 388.544 749.377 447.092 719.071 524.959C691.452 595.922 715.155 688.088 659.048 739.576C601.865 792.052 513.979 784.923 436.365 784.391C359.277 783.863 283.461 773.641 215.888 736.541C140.822 695.327 69.0561 642.01 34.4102 563.702C-2.29073 480.748 -14.5264 381.511 22.0961 298.523C57.4527 218.404 151.086 189.488 222.143 138.293C292.825 87.3674 349.273 2.27298 436.365 0.0484964Z" fill="#e3f0fc"/>
</svg>
