<svg width="914" height="865" viewBox="0 0 914 865" fill="none" xmlns="http://www.w3.org/2000/svg">
<path fill-rule="evenodd" clip-rule="evenodd" d="M481.002 1.05335C577.227 -1.40443 649.715 81.592 725.559 140.857C798.451 197.815 897.723 246.074 911.604 337.528C925.396 428.399 825.314 492.802 791.978 578.455C761.597 656.514 787.671 757.897 725.953 814.534C663.052 872.257 566.377 864.415 481.002 863.83C396.204 863.25 312.807 852.006 238.477 811.195C155.904 765.859 76.9617 707.211 38.8512 621.072C-1.5198 529.823 -14.9791 420.662 25.3057 329.375C64.198 241.244 167.195 209.437 245.357 153.122C323.107 97.1042 385.201 3.50027 481.002 1.05335Z" stroke="#4f9fff"/>
</svg>
