<svg xmlns="http://www.w3.org/2000/svg" xmlns:xlink="http://www.w3.org/1999/xlink" width="821" height="357" viewBox="0 0 821 357"><defs><style>.a,.t{fill:#fff;}.a{stroke:#707070;}.b{clip-path:url(#a);}.c{clip-path:url(#b);}.d{fill:#f9f9f9;}.e{fill:#ebaea1;}.f{fill:#f0bfa8;}.g{fill:url(#c);}.h{fill:#282849;}.i{fill:#4792ff;}.j{fill:#cfe800;}.k{fill:url(#d);}.l{fill:url(#e);}.m{fill:url(#f);}.n{fill:#f7c9b3;}.o{fill:url(#g);}.p{opacity:0.1;}.q{fill:#363021;}.r{fill:none;stroke:#282849;stroke-width:1.5px;}.s{fill:#353221;}.u{fill:#5c9eff;}</style><clipPath id="a"><rect class="a" width="821" height="357" transform="translate(552 6510)"/></clipPath><clipPath id="b"><rect class="a" width="822" height="330" transform="translate(545 6537)"/></clipPath><linearGradient id="c" x1="0.569" y1="1.048" x2="0.593" y2="-0.176" gradientUnits="objectBoundingBox"><stop offset="0" stop-color="#f9f9f9"/><stop offset="1" stop-color="#fff"/></linearGradient><linearGradient id="d" x1="0.5" x2="0.5" y2="1" gradientUnits="objectBoundingBox"><stop offset="0" stop-color="#6f503a"/><stop offset="1" stop-color="#865737"/></linearGradient><linearGradient id="e" x1="0.309" y1="1.077" x2="0.541" y2="0.174" gradientUnits="objectBoundingBox"><stop offset="0" stop-color="#ffe5c7"/><stop offset="1" stop-color="#f2cbb9"/></linearGradient><linearGradient id="f" x1="0.5" y1="0" x2="0.5" y2="1" xlink:href="#e"/><linearGradient id="g" x1="0.5" x2="0.5" y2="1" gradientUnits="objectBoundingBox"><stop offset="0" stop-color="#e5e5e5"/><stop offset="1" stop-color="#f4f4f4"/></linearGradient></defs><g class="b" transform="translate(-552 -6510)"><g class="c"><path class="d" d="M-1853.589,6867s47.225-157.087-49.849-233.172-222.352-88.548-333.2,39.354-206.8,51.27-247.932,38.042-150.071,24-85.268,155.775C-2443.74,6866.607-1853.589,6867-1853.589,6867Z" transform="translate(3175.952)"/></g><g transform="translate(11 -17.611)"><path class="e" d="M-2353.782,6687.237s3.4,1.391,5.1-5.793-.567-11.153-3.024-10.02S-2353.782,6687.237-2353.782,6687.237Z" transform="translate(3158.628 -27.909)"/><path class="e" d="M-2348.107,6687.237s-3.4,1.391-5.1-5.793.567-11.153,3.025-10.02S-2348.107,6687.237-2348.107,6687.237Z" transform="translate(3097.14 -27.909)"/><path class="f" d="M8.873,2.306S-1.335,30.4.147,51.23,8.873,96.343,8.873,96.343L27.929,51.23,37.659,0Z" transform="matrix(0.998, -0.07, 0.07, 0.998, 1022.877, 6764.203)"/><path class="g" d="M-1758.461,6723.613s13.7,5.806,17.038,6.847,7.778,145.791,12.229,181.279,13.55,49.535,11.775,52.914-6.771,24.278-41.043,21.19-93.026-4.624-93.026-4.624l18.118-89.178,7.143-65.537-2.64-70.55-4.5-15.8,20.523-9.69Z" transform="translate(2887.021 -91.058)"/><path class="h" d="M-1715.187,6731.518s34.576,13.439,41.32,17.48,21.647,61.08,23.69,73.972,0,21.878,0,21.878a20.352,20.352,0,0,1,1.787,16.444c-2.941,9.357-6.125,5.3-6.125,5.3s-12.151-6.614-19.352-5.3-7.172,5.3-7.172,5.3a194.62,194.62,0,0,0,0,49.209c3.453,27.156,0,61.2,0,61.2h-12.117a940.845,940.845,0,0,1-15.525-110.413C-1713.793,6804.177-1715.187,6731.518-1715.187,6731.518Z" transform="translate(2859.862 -92.633)"/><path class="h" d="M-1832.269,6740.721s7.25,29.742,8.462,77.808-7.559,75-18.032,110.929-15.649,49.458-15.649,49.458h-6.534s1.39-28.678,11-57.59,11.187-50.822,11.187-50.822l-22.16-3.837s-2.038-71.579,2.212-92.25S-1832.269,6740.721-1832.269,6740.721Z" transform="translate(2891.467 -94.467)"/><path class="f" d="M-1758.865,6708.626a31.391,31.391,0,0,0,9.428,11.932c6.7,5.1,9.593,16.518,2.619,30.053s-25.411,23.663-40.042,9.742-13.826-33.04-13.826-33.04Z" transform="translate(2876.9 -88.072)"/><path class="f" d="M-1654.278,6899.764s5.512,9.387-9.536,23.409-46.6,23.088-46.6,23.088l-13.872-11.542s12.712-7.848,19.7-14.85,16.02-24.078,27.815-26.265S-1654.278,6899.764-1654.278,6899.764Z" transform="translate(2861.675 -124.857)"/><path class="i" d="M-1751.622,6680.085s5.247-2.533,9.615-11.122-10.388-9.714-12.9-8.553c-.874.4-.742,2.909-.156,6.245A133.967,133.967,0,0,0-1751.622,6680.085Z" transform="translate(2870.901 -75.388)"/><circle class="j" cx="3.5" cy="3.5" r="3.5" transform="translate(1105 6687.61)"/><circle class="j" cx="4" cy="4" r="4" transform="translate(1106 6700.61)"/><path class="k" d="M-1897.562,6764.518s6.531,2.378,10.366-15.78-8.366-21.348-8.366-21.348-11.461-19.987-30.38-15.027-27.671,13.916-31.636,32.314,4.574,42.195,4.574,42.195,28.99,36.023,37.154,44.623,7.193,39.936,16.243,28.488,17.908-34.711,2.752-54.672S-1897.562,6764.518-1897.562,6764.518Z" transform="translate(2903.569 -83.015)"/><path class="l" d="M-1944.166,6785.418l-15.454,21.09,23.386,50.318s8.546,11.248,16.557,10.9,7.219-14.588,7.219-14.588l-18.738-26.062,7.492-15.476-18.2-24.815Z" transform="translate(2908.487 -103.373)"/><path class="m" d="M-1892.581,6743.81s3.088,9.63,1.715,17.908-10.568,27.107-12.324,30.529-4.153,11.324-8.368,11.871-20.359-5.4-24.96-12.783a31.04,31.04,0,0,1-4.3-15.757s-10.446-4.4-7.947-16.263,10.328,2.4,10.328,2.4,17.273,4.733,26.878-1.609S-1892.581,6743.81-1892.581,6743.81Z" transform="translate(2901.958 -87.838)"/><path class="i" d="M-1924.739,6865.019s12.765,12.33,15.87,26.858-4.356,21.983-4.356,21.983v87.547h-95.025l18.1-48.376s-23.14-70.711-15.854-95.571,35.853-38.262,35.853-38.262,16.532,44.189,29.987,48.411S-1924.739,6865.019-1924.739,6865.019Z" transform="translate(2919.725 -116.934)"/><path class="n" d="M64.586,6706.73s2.051,6.83,5.041,10.943,4.3,9.826,7.765,13.354,14.291,14.125,18.787,18.591,16.862,3.647,22.52-7.679,6.645-14.77,6.645-21.87a106.991,106.991,0,0,0-1.389-15.251s3.716-1.054,2.729-8.866-5.561-7.984-5.561-7.984A97.02,97.02,0,0,1,91.8,6702.2C75.292,6706.746,64.586,6706.73,64.586,6706.73Z" transform="translate(994.228 -86.353)"/><path class="o" d="M75.39,6963.857c-.465-.637,2.91-7.683,6.186-15.48,2.8-6.672,5.456-14.115,6.667-15.171,1.191-1.039,16.51-4.266,32.808-7.969,17.7-4.021,36.54-8.465,37.36-7.777,1.556,1.305-10.522,30.917-10.522,30.917S76.287,6965.084,75.39,6963.857Z" transform="translate(989.673 -129.683)"/><path class="n" d="M174.237,6930.684s-5.087-4.864-10.036,0-2.09,7.465-9.4,8.253-14.527-1.31-16.942,2.32-9.412,2.068-11.865,7.693,0,8.03,0,8.03,12.016,2.5,20.788,4.418,11.416,2.918,15.386,0,8.145-4.687,12.069-12.448S174.237,6930.684,174.237,6930.684Z" transform="translate(974.202 -122.278)"/><path class="p" d="M-1751.622,6680.085s5.247-2.533,9.615-11.122-10.388-9.714-12.9-8.553c-.874.4-.742,2.909-.156,6.245A133.967,133.967,0,0,0-1751.622,6680.085Z" transform="translate(2870.901 -75.388)"/><path class="i" d="M-1828.331,6693.554s-15.766-18.31-7-38.618,29.962-23.766,42.577-21.219,25.729,15.613,24.642,27.508,0,13.023,0,13.023-7.738,10.1-30.069,14.826S-1828.331,6693.554-1828.331,6693.554Z" transform="translate(2887.33 -70)"/><path class="q" d="M-1817.023,6697.177c3.92-.4,5.875-.136,10.894-1.642s10.753-3.685,10.753-3.685-4.4-12.7-14.621-9.018a37.761,37.761,0,0,1-19.483,1.5s5.132,5.213,7,5.213-.674,4.022-4.223,3.807S-1820.943,6697.581-1817.023,6697.177Z" transform="translate(2882.636 -82.799)"/><path class="h" d="M-380.9,6954.151v63.956h-47.916s7.135-33.624,10.116-63.956,34.668-6.7,34.668-6.7Z" transform="translate(1139.786 -133.912)"/><path class="h" d="M-284.924,6950.815s-1.05,24.889,2.205,43.419,4.345,27,4.345,27h26.853s-1.964-24.229-5.643-42.684-4.523-27.74-4.523-27.74Z" transform="translate(1111.147 -136.33)"/><path class="e" d="M-372.941,6793.877l.871-18.28,39.651-2.829-.746,21.109,21.617,3.734v31.036L-382.911,6831Z" transform="translate(1130.639 -100.853)"/><path class="h" d="M-440.178,6826.429s1.475-9.115,14.693-16.824,32.527-11.566,32.527-11.566l9.207-10.546s-1.641,11.809,3.348,20.255,7.068,8.989,7.068,8.989v9.692Z" transform="translate(1142.05 -103.787)"/><path class="h" d="M-322.157,6827.226l-1.545-11.589s3.57-3.748,2.36-15.271.634-16.146.634-16.146L-310,6794.2s37.23,5.188,43.253,11.145,18.229,35.969,20.315,47.041,4.911,24.668,4.911,24.668a13.41,13.41,0,0,1,4.864,5.442c1.376,3.323,4.738,19.05,2.06,22.528s-2.06,0-2.06,0-5.942-9.7-15.746-11.523-34.041,0-34.041,0Z" transform="translate(1118.841 -103.134)"/><path class="e" d="M-278,6913.448s12.323,2.976,20.132,3.254,18.183,1.321,25.451,8.163,2.084,25.569-2.194,29.291-18.251,1.431-27.838-4.508-23.427-13.093-23.427-13.093Z" transform="translate(1111.304 -128.884)"/><path class="e" d="M-373.181,6767.634s-3.49-10.458-5.156-16.477S-380,6730.911-380,6730.911s-1.942-2.678,0-18.127,36.93-34.439,54.3-10.963c7.052,9.532,5.4,29.09,5.4,29.09a113.079,113.079,0,0,1,0,14.207c-.5,7.6-4.229,18.83-4.229,18.83s-4.442,14.2-13.025,19.168-11.673,6.021-20.4,1.475S-373.181,6767.634-373.181,6767.634Z" transform="translate(1126.859 -93.983)"/><path class="e" d="M0,0S1.264,17.277,8.966,27.866,65.677,14.153,65.677,14.153s7.335,2.386,22.738,1.423S114.932,1.766,114.932,1.766Z" transform="translate(696.672 6810.851) rotate(3)"/><rect class="o" width="152" height="100" rx="10" transform="translate(686 6720.61)"/><g transform="translate(752.866 6647.396)"><path class="r" d="M-2417.8,6662.093c4.2-2.9,13.168-2.661,16.11,0s2.451,7.865-1.4,10.487a12.875,12.875,0,0,1-14.009,0C-2421.477,6669.68-2422,6664.994-2417.8,6662.093Z" transform="translate(2420.685 -6660.007)"/><path class="r" d="M-2417.8,6662.093c4.2-2.9,13.168-2.661,16.11,0s2.451,7.865-1.4,10.487a12.875,12.875,0,0,1-14.009,0C-2421.477,6669.68-2422,6664.994-2417.8,6662.093Z" transform="translate(2448.374 -6660.007)"/><path class="r" d="M-2396.544,6666.741a4.3,4.3,0,0,1,3.424-1.4,5.642,5.642,0,0,1,3.782,1.4" transform="translate(2417.433 -6660.725)"/></g><path class="s" d="M-2410.263,6658.207a163.123,163.123,0,0,1-8.469,15.987s-8.534-12.749-7.192-24.606,5.257-19.017,11.3-20.806c-.232-5.893,5.523-13.478,4.363-10.916s0,7.072,0,7.072a21.9,21.9,0,0,1,11.594-7.072c7.884-2.05,17.228-3.587,32.068,8.454,5.283,4.286,8.089,11.527,9.074,20.153,1.694,14.829-3.2,31.414-2.6,25.475.928-9.223-4.762-7.307-10.033-12.941s-12.356-15.227-11.2-10.615,13.523,14.978-1.309,10.615a54.511,54.511,0,0,1-23.746-14.647A45.747,45.747,0,0,1-2410.263,6658.207Z" transform="translate(3166.534 -21.187)"/><path class="q" d="M-2412.5,6630.174s-1.854-1.454-6.552-1.566-5.146.783-5.146.783,6.063,2.6,7.181,4.17" transform="translate(3167.179 -22.018)"/><g transform="translate(751.661 6754.578)"><g transform="translate(0 0)"><path class="t" d="M113.266,19.562c-.776-3.543-3.432-5.8-4.235-8.927-.813-3.164-2.854-4.859-4.664-5.231-.228-2.1-.844-1.259.773-1.519A2.6,2.6,0,0,0,107.647,5.2c1.361-.123,3.533-2.17,4.49-3.025-1.111-.679-3.6-2.292-4.961-2.168a2.607,2.607,0,0,0-2.315,2.05,4.058,4.058,0,0,1-1.892-.215A7.4,7.4,0,0,0,101.063.015L100.1,1.6A5.685,5.685,0,0,1,102.5,5.413c-1.8.386-3.816,2.08-4.624,5.222-.8,3.122-3.459,5.385-4.235,8.927a10.022,10.022,0,1,0,19.624,0Z" transform="translate(-93.41 0.001)"/></g></g><path class="m" d="M-1943.725,6922.3s53.109-22.111,59.515-24.763,16.545-7.556,31.685-1.32,16.658,6.668,18.325,9.354-18.325-1.513-18.325-1.513-3.435,6.815-10.24,8.843-16.98-.734-16.98-.734-61.711,44.986-68.892,44.8-34.085-43.826-34.085-43.826l27.79-17.341Z" transform="matrix(0.978, 0.208, -0.208, 0.978, 4303.136, 437.127)"/><path class="u" d="M-2178.489,6742.413s-14.98-33.811-15.357-48.138,8.541-26.792,24.113-21.487,26.256,54.477,26.256,54.477Z" transform="translate(3453.623 177.194) rotate(3)"/></g></g></svg>