<svg xmlns="http://www.w3.org/2000/svg" xmlns:xlink="http://www.w3.org/1999/xlink" width="172.77" height="207.007" viewBox="0 0 172.77 207.007"><defs><style>.a{fill:#f0bfa8;}.b{opacity:0.1;}.c{fill:#afd1ff;}.d{fill:url(#a);}.e{fill:#363021;}.f{fill:#4792ff;}.g{fill:#ffd9c7;}.h{fill:#cfe800;}.i{fill:#282849;}.j{fill:url(#c);}.k{fill:url(#e);}.l{fill:#6f503a;}.m,.n{fill:none;}.m{stroke:#282849;}.n{stroke:#242442;}.o{fill:url(#f);}</style><linearGradient id="a" x1="0.5" x2="0.5" y2="1" gradientUnits="objectBoundingBox"><stop offset="0" stop-color="#4792ff"/><stop offset="1" stop-color="#5574e1"/></linearGradient><linearGradient id="c" x1="0.5" x2="0.5" y2="1" gradientUnits="objectBoundingBox"><stop offset="0" stop-color="#ededed"/><stop offset="1" stop-color="#f5f5f5"/></linearGradient><linearGradient id="e" x1="0.5" x2="0.5" y2="1" gradientUnits="objectBoundingBox"><stop offset="0" stop-color="#dff052"/><stop offset="1" stop-color="#bad000"/></linearGradient><linearGradient id="f" x1="0.347" y1="0.89" x2="0.235" y2="0.085" xlink:href="#a"/></defs><g transform="translate(-69.201 -6.922)"><path class="a" d="M643.38,589.712c-.78,3.9-1.936,6.931-4.077,8.717S634.155,605,634.155,605c-.052,6.371-1.734,8.307-1.734,8.307l-1.734.459H626.4a21.192,21.192,0,0,1-.918-3.413,4.007,4.007,0,0,1,.673-1.9,23.831,23.831,0,0,0,2.8-9.062l.2-1.881c-.361-11.675,4.282-15.464,6.23-16.544a1.908,1.908,0,0,0,.969-1.48h0l.346-3.337,11.519.566a9.138,9.138,0,0,0,.193,3.365c.089.486.208,1.028.367,1.63C649.7,585.225,643.429,589.455,643.38,589.712Z" transform="translate(-470.954 -421.352)"/><path class="a" d="M709.291,584.315a29.685,29.685,0,0,1-1.63,4.989,12.807,12.807,0,0,0-.979,4.539V594a39.51,39.51,0,0,1-2.835,13.476c-1.691,4.233-3.933,9.742-4.606,10.9-1.119,1.936-.459,5.2-.459,5.2l-6.484-.459.113-10.91c-.676-7.79,1.814-14.987,3.163-18.238a11.952,11.952,0,0,0,.918-4.1l.306-7.237.095-2.141s11.464-1.63,12.43.97A5.5,5.5,0,0,1,709.291,584.315Z" transform="translate(-517.333 -424.018)"/><path class="b" d="M673.069,580.08,661,579.487l.346-3.337,11.531.566A8.87,8.87,0,0,0,673.069,580.08Z" transform="translate(-495.609 -421.352)"/><path class="b" d="M719.5,584.315,707,582.636l.095-2.141s11.464-1.63,12.43.97A5.469,5.469,0,0,1,719.5,584.315Z" transform="translate(-527.539 -424.018)"/><path class="c" d="M681.285,457.2,676.29,479.12l-14.782-1.988v-7.546l-1.278,7.754-17.74-.869.918-16.975a62.965,62.965,0,0,0,1.988-10.347c.346-3.835,2.162-13.3,3.04-17.74.306-1.465.477-2.389.477-2.389s30.384,6.319,32.372,8.613a4.837,4.837,0,0,1,.7,2.328C682.652,445.319,681.285,457.2,681.285,457.2Z" transform="translate(-482.76 -319.223)"/><path class="b" d="M653.33,514.179s11.959-6.27,14.874-4.946Z" transform="translate(-490.285 -374.775)"/><path class="b" d="M674.66,458.82s9.94,7.546,10.246,9.583Z" transform="translate(-505.091 -339.909)"/><path class="b" d="M665.83,543.777s7.188-.306,9.482,1.529Z" transform="translate(-498.961 -398.867)"/><path class="b" d="M705.73,517.44s3.417,11.182,1.936,14.241-3.007-.716-3.007-.716Z" transform="translate(-525.915 -380.599)"/><path class="d" d="M686.054,708s-3.364.511-2.753,8.665,1.529,9.586,2.753,9.686,7.188,1.581,6.882-1.428-.612-9.683-.2-10.705,1.11-3.71-.431-4.374l-.333,1.572s-3.264-3.01-5.2-.817a8.472,8.472,0,0,0-.4-1.569C686.173,708.554,685.751,708.306,686.054,708Z" transform="translate(-511.037 -512.875)"/><path class="a" d="M833.792,350.542s-.771.431-1.9.97a21.189,21.189,0,0,1-6.276,2.089c-3.175.269-4.169.575-7.8-2.025-2.786-1.994-7.451-4.774-9.482-5.961l-.884-.523-.089-.052V345l1.685-4.631,5.964-3.172,1.48,1.269,4.407,3.777a2.2,2.2,0,0,0,1.8,1.031c1.11-.076,7.035.419,7.035.419l1.119.184,2.358.392Z" transform="translate(-597.203 -255.487)"/><path class="b" d="M884.386,365.722s-.771.431-1.9.97c-1.2-.612-2.683-1.759-2.11-3.646.517-1.7.658-3.022,1.083-3.976l2.358.392Z" transform="translate(-647.797 -270.668)"/><path class="a" d="M884.278,353.369s6.652-1.912,6.157,6.117-5.622,3.634-5.622,3.634-4.358-1.147-3.441-4.169S882.023,354.1,884.278,353.369Z" transform="translate(-648.49 -266.572)"/><path class="a" d="M608.658,152.581l-6.931,2.912-.107.046-.076-.037-.431-.217c-1.792-.893-7.952-3.949-11.827-5.762-4.588-2.141-3.875-4.282-3.875-4.282l-.661-22.429-1.175-4.028s-.829-13.654,5.811-17.076,2.346,19.777,2.346,19.777l.514,4.82a51.6,51.6,0,0,0,1.82,9.105,14.136,14.136,0,0,1,.538,3c.205,3.26,1.734,3.043,1.734,3.043a21.289,21.289,0,0,1,6.894,2.343,17.246,17.246,0,0,1,2.282,1.444Z" transform="translate(-441.842 -91.783)"/><path class="a" d="M732.905,268.648l-5.915-.612s.519-2.417,1.287-4.94c.109-.346-.621-1.877-.556-2.233.178-1,2.172-.926,1.717-1.6-1.731-2.548,10.3-6.117,10.3-6.117a29.4,29.4,0,0,0-.132,4.245,21.508,21.508,0,0,0,.306,2.939c.364,1.979,1.089,3.842,2.471,4.8C746.158,267.73,732.905,268.648,732.905,268.648Z" transform="translate(-541.415 -197.145)"/><path class="b" d="M732.905,284.953l-5.915-.612a22.727,22.727,0,0,0,2.511-5.117,2.136,2.136,0,0,0,1.875,1.141s5.97.884,8.539-3.725c.364,1.979,1.089,3.842,2.471,4.8C746.158,284.036,732.905,284.953,732.905,284.953Z" transform="translate(-541.415 -213.45)"/><path class="b" d="M808.38,345.614a3.266,3.266,0,0,0,.024.544l-.918-1.068L807.41,345l1.685-4.631,5.964-3.172,1.48,1.269C814.42,339.28,808.474,341.852,808.38,345.614Z" transform="translate(-597.238 -255.487)"/><path class="b" d="M648.3,248.863l-6.931,2.912h-.183l-.535.037s.04-.089.1-.254c.578-1.4,3.261-8.258,2.1-11.488a17.237,17.237,0,0,1,2.282,1.444Z" transform="translate(-481.483 -188.065)"/><path class="b" d="M695.48,439.944c-2.7-.242-29.687-2.737-32.2-6.711a13.965,13.965,0,0,0-1.346-1.835c.306-1.465.477-2.389.477-2.389s30.384,6.319,32.372,8.613A4.772,4.772,0,0,1,695.48,439.944Z" transform="translate(-496.254 -319.216)"/><path class="d" d="M672.839,254.419s6.034.893,8.585-3.8c0,0,4.261,3.5,6.808,3.8s14.375,15.189,14.375,15.189-9.482,3.059-8.87,7.952l-4.487-5.2s-2.242-.1-4.178,6.117c0,0-2.346,3.566-2.04,14.883s-.713,13.969-.713,13.969-29.772-2.548-32.421-6.729-3.059-2.141-3.059-2.141-.41-7.952,2.343-14.375,2.141-24.875,2.141-24.875.306-9.075-8.665-8.258c0,0,3.771-8.769,2.04-12.133a44.163,44.163,0,0,0,8.836,1.444,15.115,15.115,0,0,1,6.509,1.529,7.22,7.22,0,0,1,2.7,2.037,3.966,3.966,0,0,0,4.588,1.327,46.318,46.318,0,0,0,2.661,6.524c.119.223.239.444.361.655a10.009,10.009,0,0,0,.544.863A2.186,2.186,0,0,0,672.839,254.419Z" transform="translate(-482.878 -187.198)"/><path class="b" d="M744.973,257.365a10.468,10.468,0,0,1-1.083,1.3,10.671,10.671,0,0,1-7.646,3.224c-.369,0-2.65-.263-3.017-.3.177-1,2.044-1.682,1.588-2.352-1.731-2.548,10.3-6.117,10.3-6.117A29.358,29.358,0,0,0,744.973,257.365Z" transform="translate(-546.785 -197.124)"/><path class="a" d="M726.07,221.525a10.665,10.665,0,1,1-3.124-7.581A10.705,10.705,0,0,1,726.07,221.525Z" transform="translate(-525.915 -167.761)"/><path class="b" d="M792,325.792l.22,7.163s3.2-2.575,3.3-5.022S792,325.792,792,325.792Z" transform="translate(-586.541 -247.56)"/><path class="b" d="M707.66,349.24s8.411,11.546,13.3,12.718S709.5,352.984,707.66,349.24Z" transform="translate(-527.997 -263.845)"/><path class="b" d="M736.83,353.17s4.689,5.3,8.053,5.958Z" transform="translate(-548.245 -266.573)"/><path class="b" d="M682.83,396.82s8.564,8.411,13.458,8.922Z" transform="translate(-510.762 -296.872)"/><path class="b" d="M733.289,221.521A10.665,10.665,0,0,1,730.23,229l-1.174-.731a3.248,3.248,0,0,1-1.144-.994,3.953,3.953,0,0,1-.245-2.218,5.217,5.217,0,0,0-1.627-4.331c-2.028-1.624-5.279-.725-7.341-2.318a7.238,7.238,0,0,1-1.3-1.447l-1.933-2.591c-.116-.153-.257-.306-.407-.486a10.705,10.705,0,0,1,18.211,7.646Z" transform="translate(-533.134 -167.758)"/><path class="e" d="M713.727,192.229a19.207,19.207,0,0,1,3.2-1.655c1.077-.538,2.028-1.223,3.1-1.682a4.89,4.89,0,0,1,3.438-.346c2.395.823,3.3,4.169,5.762,4.756.416.1.844.107,1.263.171a5.75,5.75,0,0,1,3.869,2.707,9.009,9.009,0,0,1,1.223,4.652,7.451,7.451,0,0,1-.388,2.67c-.728,2-2.554,3.364-3.786,5.093a9.683,9.683,0,0,0-1.771,5.655l-2.985-1.857a3.217,3.217,0,0,1-1.144-.994,3.952,3.952,0,0,1-.245-2.217,5.225,5.225,0,0,0-1.624-4.331c-2.031-1.624-5.282-.725-7.341-2.318a7.236,7.236,0,0,1-1.3-1.447l-1.933-2.591a7.38,7.38,0,0,1-1.407-1.948C711.259,195.073,712.651,193.058,713.727,192.229Z" transform="translate(-530.728 -152.174)"/><path class="b" d="M726.979,221.43a3.217,3.217,0,0,1-1.144-.994,3.952,3.952,0,0,1-.245-2.217,5.217,5.217,0,0,0-1.627-4.331c-2.028-1.624-5.279-.725-7.341-2.318a7.235,7.235,0,0,1-1.3-1.447l-1.933-2.591a7.315,7.315,0,0,1-1.407-1.948c-.333-1.181.511-2.719,1.413-3.7-1.012.936-2.123,2.713-1.746,4.037a7.665,7.665,0,0,0,1.407,1.948l1.933,2.591a7.238,7.238,0,0,0,1.3,1.447c2.052,1.594,5.3.694,7.341,2.318a5.224,5.224,0,0,1,1.624,4.331,3.954,3.954,0,0,0,.245,2.217,3.217,3.217,0,0,0,1.144.994l2.985,1.857a5.064,5.064,0,0,1,.018-.529Z" transform="translate(-530.715 -161.556)"/><path class="f" d="M621.51,682.94s-2.979.612-2.367,8.781,1.529,9.586,2.753,9.687,7.188,1.581,6.882-1.428-.612-9.683-.2-10.705,2.022-3.765.48-4.429l-1.245,1.627s-3.263-3.01-5.2-.817C622.608,685.656,620.8,683.653,621.51,682.94Z" transform="translate(-466.496 -495.48)"/><path class="b" d="M633.23,699.5c.645.306,1.248.679,1.89.985a4.243,4.243,0,0,0,2.052.483,1.43,1.43,0,0,0,.838-.291" transform="translate(-476.332 -506.975)"/><path class="b" d="M697.33,725.62a10.375,10.375,0,0,0,1.11,1.092,3.874,3.874,0,0,0,2.141.443.864.864,0,0,0,.367-.046.891.891,0,0,0,.327-.306l.4-.517" transform="translate(-520.827 -525.106)"/><path class="g" d="M532.64,258.672s-1.377-13.048,3.976-9.836,1.667,8.919,1.667,8.919l-1.257,4.028Z" transform="translate(-406.398 -193.797)"/><path class="g" d="M561,108.928l3.059-3s5.863-16.874,11.675-12.54-7.365,15.293-7.365,15.293l-3.493,4.077Z" transform="translate(-426.195 -85.751)"/><path class="h" d="M414.313,360.293l-.153,3.465s2.8,4.894,3.976,5.252,1.07-10.35,1.07-10.35Z" transform="translate(-324.267 -270.384)"/><path class="b" d="M414.313,360.293l-.153,3.465s2.8,4.894,3.976,5.252,1.07-10.35,1.07-10.35Z" transform="translate(-324.267 -270.384)"/><path class="g" d="M334.76,284.87l.208,12.773h14.219l-1.07-7.442Z" transform="translate(-240.025 -198.765)"/><path class="i" d="M437.248,455.82l.664,4.077,8.31,18.455s3.771,5.811.713,10.705-6.218,12.54-6.729,17.177-4.536,9.176-4.536,9.176l8.769,3.722s.612-7.289,3.059-10.705,10.3-18.452,10.3-18.452,2.5-2.245,1.939-8.922-.511-11.369-.511-11.369l-.866-10.653Z" transform="translate(-339.198 -337.826)"/><path class="b" d="M437.248,455.82l.664,4.077,8.31,18.455s3.771,5.811.713,10.705-6.218,12.54-6.729,17.177-4.536,9.176-4.536,9.176l8.769,3.722s.612-7.289,3.059-10.705,10.3-18.452,10.3-18.452,2.5-2.245,1.939-8.922-.511-11.369-.511-11.369l-.866-10.653Z" transform="translate(-339.198 -337.826)"/><path class="j" d="M422.5,648.82s-9.381,2.854-6.27,7.546,13.2,13.611,17.281,13.3,2.447-3.315,2.447-3.315l-3.417-3.365a81.965,81.965,0,0,1-.355-9.225c.257-2.089-2.906-3.059-3.315-1.835S422.5,648.82,422.5,648.82Z" transform="translate(-325.262 -471.796)"/><path class="i" d="M432.272,375.58l-7.435.823a2.667,2.667,0,0,0-2.373,2.719c.08,2.973.132,7.7-.284,8.564a15.108,15.108,0,0,0,5.658,16.516L438.9,407.72,421.16,409l.563,9.839,2.753-1.529,33.644,1.529s9.534-.97,3.059-11.317-20.236-20.493-20.236-20.493l-.153-8.056-1.022-2.343Z" transform="translate(-329.126 -282.128)"/><path class="b" d="M487.66,478.338a9.555,9.555,0,0,1,7.646,0Z" transform="translate(-375.286 -352.903)"/><path class="j" d="M399.008,483.353s-10.959-1.578-11.011.511,1.529,22.429,6.781,21.052,3.007-8.105,3.007-8.105l3.927-3.771s.407-2.089-2.193-1.887Z" transform="translate(-306.105 -356.541)"/><path class="h" d="M478.471,284.038l4.331,4.946s1.887,2.346,4.129-1.223,6.423-9.94,6.423-9.94,4.64,4.077,5.863,3.263-11.265,16.978-11.265,16.978-3.976,5.86-9.891-1.071l-1.731-.817Z" transform="translate(-367.422 -214.269)"/><path class="b" d="M478.471,284.038l4.331,4.946s1.887,2.346,4.129-1.223,6.423-9.94,6.423-9.94,4.64,4.077,5.863,3.263-11.265,16.978-11.265,16.978-3.976,5.86-9.891-1.071l-1.731-.817Z" transform="translate(-367.422 -214.269)"/><circle class="g" cx="9.023" cy="9.023" r="9.023" transform="translate(88.777 31.625)"/><path class="b" d="M420.505,165.947s-7.754,3.67-6.836,10.093a142,142,0,0,1,1.07,14.528s3.52,5.2-1.147,15.14c0,0-2.982,5.047-.994,8.717,0,0,2.205-5.811,7.906-1.529s14.88,6.27,14.88,6.27-4.741-20.8-1.835-23.7c0,0,5.047-7.494.459-12.234s-2.294-9.176-2.294-9.176l14.733-7.9s3.108.049,7.289-6.475a112.354,112.354,0,0,1,8.922-11.928s-3.163-4.741-6.117-5.1a10.552,10.552,0,0,0-1.988,4.539c-.434,1.759-3.386,4.7-6.056,7.068-1.9,1.682-3.725,3.429-5.551,5.2-1.352,1.3-4.362,3.16-10.925,4.212C421.218,165.391,420.505,165.947,420.505,165.947Z" transform="translate(-322.709 -120.442)"/><path class="k" d="M420.505,163.947s-7.754,3.67-6.836,10.093a142,142,0,0,1,1.07,14.528s3.52,5.2-1.147,15.14c0,0-2.982,5.047-.994,8.717,0,0,2.205-5.811,7.906-1.529s14.88,6.27,14.88,6.27-4.741-20.8-1.835-23.7c0,0,5.047-7.494.459-12.234s-2.294-9.176-2.294-9.176l14.733-7.9s3.108.049,7.289-6.475a112.352,112.352,0,0,1,8.922-11.928s-3.163-4.741-6.117-5.1a10.551,10.551,0,0,0-1.988,4.539c-.434,1.759-3.386,4.7-6.056,7.068-1.9,1.682-3.725,3.429-5.551,5.2-1.352,1.3-4.362,3.16-10.925,4.212C421.218,163.391,420.505,163.947,420.505,163.947Z" transform="translate(-322.709 -119.054)"/><path class="b" d="M461.83,342.49s6.013,8.87,6.166,10.4C468,352.889,467.082,343.356,461.83,342.49Z" transform="translate(-357.357 -259.159)"/><path class="b" d="M436,244.82s4.193,5.047,10.252.817A13,13,0,0,1,436,244.82Z" transform="translate(-339.427 -191.362)"/><path class="l" d="M372.038,158.224a2.706,2.706,0,0,0-.661-1.223c-1.382-1.734-.82,2.046-2.878,1.223-2.8-1.048-1.576-1.058-3.407,1.31-.74,1-3.765,2.8-4.4,3.869-1.181,1.976.85,2.476-4.622,4.012s-9.35,4.881-5.787,11.559-18.427,1.162-2.224,10.274,17.194-2.093,17.439-4.84c.26-2.936,2.643-5.337,3.007-8.258a6.3,6.3,0,0,0-1.074-4.34,6.205,6.205,0,0,1-.817-1.278,1.269,1.269,0,0,1,.245-1.4,2.141,2.141,0,0,1,.636-.306,5.29,5.29,0,0,0,3.156-4.741,10.532,10.532,0,0,1,.211-2.214C371.194,160.714,372.212,159.454,372.038,158.224Z" transform="translate(-272.825 -127.012)"/><path class="b" d="M466.11,696a2.6,2.6,0,0,1-2.11.532" transform="translate(-358.863 -504.545)"/><path class="m" d="M92.505,130.415,89.6,127.106" transform="translate(1.334 7.858)"/><path class="m" d="M90.787,131.841l-2.519-2.969" transform="translate(1.247 7.974)"/><path class="n" d="M104.816,173.392l-4.946.265" transform="translate(2.005 10.885)"/><path class="n" d="M104.966,176.467l-4.55.22" transform="translate(2.041 11.086)"/><path class="o" d="M-2553.7,4068.813s15.708-2.042,22.378-7.114-6.573,0-6.573,0-2.732-7.853-11.26-4.73S-2553.7,4068.813-2553.7,4068.813Z" transform="translate(2641.053 -4030.738)"/></g></svg>