<svg xmlns="http://www.w3.org/2000/svg" xmlns:xlink="http://www.w3.org/1999/xlink" width="205.127" height="199.253" viewBox="0 0 205.127 199.253"><defs><style>.a,.f{fill:#282849;}.b{fill:#e2ecf4;}.c,.d{fill:#fff;}.c{opacity:0.4;mix-blend-mode:screen;isolation:isolate;}.e{fill:url(#c);}.f,.g{opacity:0.3;}.g{fill:#2a2a4a;}.h,.k{fill:#4792ff;}.h{opacity:0.1;}.i{fill:url(#g);}.j{opacity:0.5;}.l{fill:#eab01f;}.m{fill:#bcd7ff;}.n{filter:url(#d);}.o{filter:url(#a);}</style><filter id="a" x="25.496" y="61.313" width="163.111" height="129.52" filterUnits="userSpaceOnUse"><feOffset dy="3" input="SourceAlpha"/><feGaussianBlur stdDeviation="3" result="b"/><feFlood flood-opacity="0.161"/><feComposite operator="in" in2="b"/><feComposite in="SourceGraphic"/></filter><linearGradient id="c" x1="0.5" x2="0.5" y2="1" gradientUnits="objectBoundingBox"><stop offset="0" stop-color="#4792ff"/><stop offset="1" stop-color="#5574e1"/></linearGradient><filter id="d" x="59.097" y="104.256" width="146.03" height="94.997" filterUnits="userSpaceOnUse"><feOffset dy="3" input="SourceAlpha"/><feGaussianBlur stdDeviation="3" result="e"/><feFlood flood-opacity="0.161"/><feComposite operator="in" in2="e"/><feComposite in="SourceGraphic"/></filter><linearGradient id="g" x1="0.5" x2="0.5" y2="1" gradientUnits="objectBoundingBox"><stop offset="0" stop-color="#dff052"/><stop offset="1" stop-color="#bad000"/></linearGradient></defs><g transform="translate(-563.831 -4084.773)"><g transform="translate(267.227 3972.699)"><path class="a" d="M390.3,125.579V288.145a13.729,13.729,0,0,1-.273,2.725,13.215,13.215,0,0,1-.332,1.288c-.071.214-.142.427-.214.635a13.333,13.333,0,0,1-1.864,3.431,13.757,13.757,0,0,1-1.276,1.472,14.233,14.233,0,0,1-1.466,1.27c-.344.255-.706.5-1.074.73H383.8q-.552.338-1.14.623h-.006a13.238,13.238,0,0,1-1.834.724h-.006a13.21,13.21,0,0,1-1.288.332,13.831,13.831,0,0,1-2.731.273H310.109a13.482,13.482,0,0,1-2.873-.309c-.154-.036-.3-.065-.457-.107s-.338-.089-.5-.137a13.773,13.773,0,0,1-2.018-.778c-.326-.16-.641-.326-.944-.5-.142-.083-.285-.166-.421-.255-.3-.184-.582-.386-.861-.594a13.652,13.652,0,0,1-2.339-2.232c-.273-.332-.534-.677-.778-1.039a13.672,13.672,0,0,1-.974-1.7,12.868,12.868,0,0,1-.908-2.475v-.006a13.459,13.459,0,0,1-.427-3.372V125.579a13.514,13.514,0,0,1,13.511-13.505H376.8A13.509,13.509,0,0,1,390.3,125.579Z" transform="translate(0 0)"/><path class="b" d="M389.367,127.611V290.177a10.738,10.738,0,0,1-.214,2.137,8.707,8.707,0,0,1-.249.974l-.2.576a10.137,10.137,0,0,1-1.431,2.618,10.252,10.252,0,0,1-1,1.152,10.431,10.431,0,0,1-1.158,1c-.2.148-.445.315-.724.493l-.113.071c-.231.143-.469.279-.718.4l-.172.077a9.562,9.562,0,0,1-1.276.516l-.148.048c-.35.107-.677.19-1,.261a11.3,11.3,0,0,1-2.143.208H312.141a10.459,10.459,0,0,1-2.238-.237c-.249-.053-.5-.113-.736-.184a10.749,10.749,0,0,1-1.6-.617c-.249-.125-.5-.255-.712-.386-.125-.071-.22-.125-.3-.178l-.065-.042c-.184-.113-.392-.255-.647-.445a11.051,11.051,0,0,1-1.828-1.751c-.226-.273-.421-.534-.6-.8a10.743,10.743,0,0,1-.76-1.33,10.184,10.184,0,0,1-.671-1.775l-.042-.16a10.657,10.657,0,0,1-.332-2.636V127.611a10.556,10.556,0,0,1,10.543-10.537H378.83a10.555,10.555,0,0,1,9.789,6.649A10.447,10.447,0,0,1,389.367,127.611Z" transform="translate(-2.032 -2.032)"/><g transform="translate(299.572 115.042)"><path class="c" d="M368.2,117.074,301.6,219.049V168.91l33.855-51.836Z" transform="translate(-301.604 -117.074)"/><path class="c" d="M388.619,123.723,301.6,256.946V233.717l76.181-116.643h1.045A10.555,10.555,0,0,1,388.619,123.723Z" transform="translate(-301.604 -117.074)"/><path class="c" d="M396.827,228.154l-76.864,117.7h15.173l61.69-94.465Z" transform="translate(-309.065 -162.213)"/></g><path class="a" d="M374.545,119.786H354.717a6.04,6.04,0,0,1-6.04-6.04h31.908A6.04,6.04,0,0,1,374.545,119.786Z" transform="translate(-21.161 -0.679)"/></g><g transform="translate(603.293 4157.941)"><g class="o" transform="matrix(1, 0, 0, 1, -39.46, -73.17)"><rect class="d" width="128.03" height="76.997" rx="10" transform="translate(34.5 105.3) rotate(-17.26)"/></g><rect class="e" width="128.03" height="11.042" transform="translate(-1.955 41.824) rotate(-17.261)"/><rect class="f" width="32.53" height="4.775" transform="translate(23.32 88.972) rotate(-17.261)"/><rect class="f" width="56.405" height="4.775" transform="translate(20.929 81.278) rotate(-17.261)"/><g class="n" transform="matrix(1, 0, 0, 1, -39.46, -73.17)"><rect class="d" width="128.03" height="76.997" rx="10" transform="translate(68.1 110.26)"/></g><rect class="g" width="3.73" height="10.595" transform="translate(59.082 74.466)"/><rect class="g" width="3.73" height="10.595" transform="translate(63.857 74.466)"/><rect class="g" width="3.73" height="10.595" transform="translate(68.632 74.466)"/><rect class="g" width="3.73" height="10.595" transform="translate(76.988 74.466)"/><rect class="g" width="3.73" height="10.595" transform="translate(81.763 74.466)"/><rect class="g" width="3.73" height="10.595" transform="translate(86.538 74.466)"/><rect class="g" width="3.73" height="10.595" transform="translate(94.895 74.466)"/><rect class="g" width="3.73" height="10.595" transform="translate(99.67 74.466)"/><rect class="g" width="3.73" height="10.595" transform="translate(104.445 74.466)"/><rect class="g" width="3.73" height="10.595" transform="translate(112.801 74.466)"/><rect class="g" width="3.73" height="10.595" transform="translate(117.576 74.466)"/><rect class="g" width="3.73" height="10.595" transform="translate(122.351 74.466)"/><rect class="e" width="22.243" height="12.198" transform="translate(36.781 57.26)"/><rect class="h" width="13.633" height="13.633" transform="translate(123.24 97.26)"/><rect class="h" width="13.633" height="13.633" transform="translate(130.056 97.26)"/><path class="i" d="M22.606,53.235.975,31.6a3.328,3.328,0,0,1,0-4.706l4.706-4.706a3.328,3.328,0,0,1,4.706,0L24.959,36.763,56.17,5.552a3.328,3.328,0,0,1,4.706,0l4.706,4.706a3.328,3.328,0,0,1,0,4.706l-38.27,38.27A3.328,3.328,0,0,1,22.606,53.235Z" transform="translate(72.307 -71.728)"/></g><g class="j" transform="translate(583.081 4113.692)"><path class="k" d="M538.765,119.82l-.02.023c-.485.02-.969.026-1.467.016s-.993-.034-1.488-.074c-.35-.028-.714-.056-1.061-.113-.19-.015-.377-.045-.58-.075q-.913-.116-1.82-.32a26.235,26.235,0,0,1-11.2-5.441c-.055-.048-.1-.081-.151-.129-.233-.194-.466-.4-.685-.6-.424-.385-.846-.785-1.238-1.2-.162-.175-.325-.333-.486-.522s-.351-.38-.512-.568a6.831,6.831,0,0,1-.508-.612,10.279,10.279,0,0,1-.692-.89c-.292-.374-.555-.762-.818-1.149-.471-.711-.911-1.434-1.307-2.183a25.753,25.753,0,0,1-2.935-9.389c-.046-.34-.077-.694-.109-1.034a26.028,26.028,0,0,1,.01-4.013c.027-.335.055-.685.11-1.017.019-.233.052-.465.084-.682.039-.3.09-.594.142-.882l.15-.779a.135.135,0,0,0,.02-.072,26.273,26.273,0,0,1,20.11-20.151,25.6,25.6,0,0,1,4.925-.592c.454-.008.893,0,1.347,0,.438.02.876.04,1.327.075h.015a26.22,26.22,0,0,1,10.141,2.925c.351.189.7.378,1.053.582.685.406,1.368.855,2.006,1.3a.2.2,0,0,0,.055.048c.346.247.677.508,1.008.768s.661.536.976.809q.8.723,1.552,1.485c.271.286.541.571.8.869a26.33,26.33,0,0,1,5.209,8.981c.156.438.3.888.421,1.337a27.169,27.169,0,0,1,.594,2.684c.039.252.078.5.1.756.059.371.1.755.131,1.123a24.593,24.593,0,0,1,.05,4.56A26.25,26.25,0,0,1,538.765,119.82Z" transform="translate(-509.371 -67.239)"/><path class="l" d="M539.378,67.96a24.385,24.385,0,0,1,4.91-.579,25.6,25.6,0,0,0-4.925.592Z" transform="translate(-516.422 -67.24)"/><path class="l" d="M549.114,67.448l0,.015H549.1c-.451-.036-.889-.055-1.327-.075C548.21,67.391,548.662,67.412,549.114,67.448Z" transform="translate(-518.559 -67.242)"/><g transform="translate(0.622 0)"><circle class="d" cx="23.327" cy="23.327" r="23.327" transform="translate(2.922 2.921)"/><path class="m" d="M533.623,119.607a26.248,26.248,0,1,1,28.234-24.1A26.278,26.278,0,0,1,533.623,119.607ZM537.3,73.1a20.406,20.406,0,1,0,18.735,21.95A20.43,20.43,0,0,0,537.3,73.1Z" transform="translate(-509.441 -67.192)"/></g><g transform="translate(16.26 9.877)"><path class="m" d="M548.273,102.556a7.852,7.852,0,0,1-6.148,7.06l-.324,4.108-6.13-.484.3-3.73a11.18,11.18,0,0,1-4.427-2.109l-1.132-.956,2.661-5.931,1.976,1.56a7.533,7.533,0,0,0,3.885,1.488c1.031.081,2.274-.214,2.361-1.309.035-.444.1-1.265-2.577-2.592-3.36-1.644-6.762-3.933-6.4-8.459a7.541,7.541,0,0,1,5.888-6.765l.317-4,6.09.482-.286,3.612a10.9,10.9,0,0,1,3.509,1.59l1.355.947L546.438,92.9l-1.906-1.292a6.612,6.612,0,0,0-3.395-1.214c-.652-.051-1.785,0-1.858.929-.034.43-.072.9,2.981,2.453C545.025,95.174,548.664,97.6,548.273,102.556Z" transform="translate(-530.407 -80.434)"/></g><path class="k" d="M541.622,130.606q-.111,2.492-.222,4.983c-.023.527.8.46.819-.062q.111-2.492.222-4.983C542.465,130.017,541.646,130.084,541.622,130.606Z" transform="translate(-516.94 -83.197)"/><path class="k" d="M550.29,129.941c-.07-.522-.889-.463-.819.062l.664,4.983c.069.521.889.463.819-.062Q550.621,132.433,550.29,129.941Z" transform="translate(-518.99 -83.044)"/><path class="k" d="M559.9,132.544l-1.883-4.762c-.194-.49-.968-.216-.774.277l1.883,4.762C559.323,133.312,560.1,133.037,559.9,132.544Z" transform="translate(-520.958 -82.522)"/><path class="k" d="M566.275,128.348q-1.4-2.263-2.789-4.528c-.277-.451-.953.016-.676.467l2.788,4.528C565.876,129.266,566.552,128.8,566.275,128.348Z" transform="translate(-522.364 -81.535)"/><path class="k" d="M571.245,123.122l-4.061-3.586c-.4-.351-.932.273-.536.623l4.061,3.586C571.106,124.1,571.641,123.473,571.245,123.122Z" transform="translate(-523.32 -80.467)"/><path class="k" d="M575.226,115.629l-4.32-1.547c-.493-.177-.857.56-.36.738l4.32,1.546C575.359,116.543,575.723,115.806,575.226,115.629Z" transform="translate(-524.286 -79.1)"/><path class="k" d="M577.893,106.6l-5.538.178c-.529.017-.465.836.062.819l5.538-.178C578.484,107.4,578.422,106.582,577.893,106.6Z" transform="translate(-524.712 -77.205)"/><path class="k" d="M578.272,97.691l-4.981,1.226c-.512.126-.233.9.278.774l4.981-1.227C579.061,98.338,578.781,97.565,578.272,97.691Z" transform="translate(-524.974 -74.938)"/><path class="k" d="M549.624,72.938q.286-2.478.574-4.956c.06-.524-.762-.515-.822,0l-.573,4.956C548.742,73.466,549.564,73.457,549.624,72.938Z" transform="translate(-518.82 -67.294)"/><path class="k" d="M540.9,72.971c.033.525.854.524.821,0l-.31-5.018c-.032-.525-.854-.525-.821,0Q540.746,70.462,540.9,72.971Z" transform="translate(-516.734 -67.285)"/><path class="k" d="M531.074,69.74l1.542,4.883c.158.5.95.284.791-.222l-1.542-4.883C531.706,69.015,530.914,69.234,531.074,69.74Z" transform="translate(-514.311 -67.711)"/><path class="k" d="M524.116,73.519q1.232,2.357,2.462,4.714c.245.468.952.051.707-.418L524.824,73.1C524.579,72.633,523.872,73.051,524.116,73.519Z" transform="translate(-512.535 -68.642)"/><path class="k" d="M518.332,78.671l3.8,3.864c.371.377.949-.206.578-.583l-3.8-3.864C518.539,77.71,517.962,78.293,518.332,78.671Z" transform="translate(-511.048 -69.93)"/><path class="k" d="M513.686,86.564l4.2,1.849c.48.211.894-.5.411-.712l-4.2-1.848C513.618,85.642,513.2,86.351,513.686,86.564Z" transform="translate(-509.843 -71.924)"/><path class="k" d="M509.95,95.869l5.537.213c.529.02.524-.8,0-.821l-5.537-.213C509.418,95.027,509.423,95.848,509.95,95.869Z" transform="translate(-508.848 -74.27)"/><path class="k" d="M509.125,104.45l5.056-.871c.52-.089.3-.88-.222-.791l-5.055.872C508.383,103.749,508.607,104.54,509.125,104.45Z" transform="translate(-508.608 -76.235)"/><path class="k" d="M572.643,94.528l4.627-1.864c.489-.2.089-.915-.4-.72l-4.627,1.864C571.759,94.006,572.159,94.724,572.643,94.528Z" transform="translate(-524.722 -73.473)"/><path class="k" d="M574.975,85.084l-4.608,2.232c-.474.23-.144.982.334.751l4.608-2.232C575.783,85.6,575.452,84.853,574.975,85.084Z" transform="translate(-524.242 -71.727)"/><path class="k" d="M570.317,78.749l-4.308,3.118c-.428.31.088.95.516.64l4.308-3.118C571.26,79.079,570.744,78.439,570.317,78.749Z" transform="translate(-523.152 -70.108)"/><path class="k" d="M564.736,73.772l-3.274,4.317c-.32.421.342.909.661.487L565.4,74.26A.411.411,0,0,0,564.736,73.772Z" transform="translate(-522.016 -68.823)"/><path class="k" d="M556.965,70.318q-.611,2.211-1.221,4.423c-.14.5.623.813.763.3q.611-2.211,1.221-4.423C557.868,70.117,557.106,69.809,556.965,70.318Z" transform="translate(-520.581 -67.92)"/><path class="k" d="M515.508,108.393l-3.839,1.476c-.492.189-.218.964.277.773l3.839-1.476A.411.411,0,0,0,515.508,108.393Z" transform="translate(-509.32 -77.654)"/><path class="k" d="M517.47,115.239l-4.2,1.707c-.488.2-.214.973.277.773l4.2-1.708C518.235,115.814,517.962,115.039,517.47,115.239Z" transform="translate(-509.726 -79.392)"/><path class="k" d="M520.423,119.478l-3.715,2.25c-.452.274.016.95.467.676l3.715-2.25C521.342,119.88,520.874,119.205,520.423,119.478Z" transform="translate(-510.619 -80.462)"/><path class="k" d="M524.283,123.59l-3.4,2.953c-.395.342.067,1.023.466.676l3.4-2.953C525.144,123.923,524.682,123.243,524.283,123.59Z" transform="translate(-511.689 -81.498)"/><path class="k" d="M529.094,127.321l-2.157,3.533c-.276.452.465.808.739.36l2.157-3.534C530.108,127.229,529.367,126.873,529.094,127.321Z" transform="translate(-513.25 -82.418)"/><path class="k" d="M536,129.8q-.741,2.066-1.48,4.133c-.177.493.56.857.738.36q.74-2.067,1.48-4.133C536.912,129.666,536.175,129.3,536,129.8Z" transform="translate(-515.184 -83.04)"/></g></g></svg>