<svg xmlns="http://www.w3.org/2000/svg" xmlns:xlink="http://www.w3.org/1999/xlink" width="579.484" height="526.709" viewBox="0 0 579.484 526.709"><defs><style>.a{fill:url(#a);}.b{fill:#4792ff;}.c{fill:url(#b);}.d{fill:#282849;}.e{fill:url(#c);}.f{fill:#fcddc0;}.g{fill:url(#f);}.h{fill:url(#h);}.i{fill:#bfad84;}.j{fill:url(#i);}.k,.q,.s,.u,.w{fill:none;}.k,.u,.w{stroke:#fff;}.k,.u{stroke-linecap:round;}.k{stroke-width:2px;}.l{fill:#ebaea1;}.m{fill:url(#l);}.n{fill:#65f9ff;mix-blend-mode:hue;isolation:isolate;}.o{fill:#fff;}.p{fill:url(#o);}.q{stroke:#4792ff;stroke-width:12px;}.r{clip-path:url(#s);}.s{stroke:#862c00;}.s,.u{stroke-width:1.5px;}.t{fill:#353221;}.v{clip-path:url(#u);}.w{stroke-width:4px;}</style><linearGradient id="a" x1="0.153" y1="0.157" x2="0.869" y2="0.838" gradientUnits="objectBoundingBox"><stop offset="0" stop-color="#ff9d00"/><stop offset="1" stop-color="#ff8900"/></linearGradient><linearGradient id="b" x1="0.5" x2="0.5" y2="1" gradientUnits="objectBoundingBox"><stop offset="0" stop-color="#4792ff"/><stop offset="1" stop-color="#4566d8"/></linearGradient><linearGradient id="c" x1="0.5" x2="0.5" y2="1" gradientUnits="objectBoundingBox"><stop offset="0" stop-color="#ffe5c7"/><stop offset="1" stop-color="#f2cbb9"/></linearGradient><linearGradient id="f" x1="0.251" y1="0.915" x2="0.784" y2="0.068" xlink:href="#c"/><linearGradient id="h" x1="0.245" y1="0.861" x2="0.6" gradientUnits="objectBoundingBox"><stop offset="0" stop-color="#fcddc0"/><stop offset="1" stop-color="#f0bfa8"/></linearGradient><linearGradient id="i" x1="0.5" x2="0.5" y2="1" gradientUnits="objectBoundingBox"><stop offset="0" stop-color="#e5e5e5"/><stop offset="1" stop-color="#fff"/></linearGradient><linearGradient id="l" x1="0.5" x2="0.5" y2="1" gradientUnits="objectBoundingBox"><stop offset="0" stop-color="#ebaea1"/><stop offset="1" stop-color="#f0bfa8"/></linearGradient><linearGradient id="o" x1="0.5" x2="0.5" y2="1" gradientUnits="objectBoundingBox"><stop offset="0" stop-color="#ededed"/><stop offset="1" stop-color="#f5f5f5"/></linearGradient><clipPath id="s"><ellipse class="a" cx="35.5" cy="36" rx="35.5" ry="36" transform="translate(-0.15 -0.274)"/></clipPath><clipPath id="u"><path class="b" d="M-2043.326,445.854s-3.261,11.853,2.9,32.037,34.985,60.335,34.985,60.335l55.1-14.736-5.165-12.585,35.073-7.49-18.786-60.546Z" transform="translate(3120 91)"/></clipPath></defs><g transform="translate(-1011.221 -290.521)"><path class="c" d="M404.134-5.52C410.771-149.7,307.215-167.073,222.5-137.679S126.592-23.561,56.258,13.675-95.789,124.348-46.141,209.164s163.474,36.634,205-37.371S397.5,138.662,404.134-5.52Z" transform="matrix(0.998, 0.07, -0.07, 0.998, 1090.165, 458.515)"/><g transform="translate(26 20)"><g transform="translate(1020.747 270.521)"><path class="d" d="M-2050.725,693.232s-11.775,6.965-9.4,18.547,2.566,12.544,12.436,26.866,19.224,23.523,29.38,18.5,4.37-20.406,0-27.411-8.149-22.965-18.9-32.369S-2050.725,693.232-2050.725,693.232Z" transform="translate(2128.699 -296.869)"/><path class="e" d="M-2014.461,589.887s18.992,37.57,25.957,43.84,22.282,12.82,17.814,35.247,23.426,63.591,24.187,74.983,17.6,2.924,16.742-5.407.7-23.916-2.4-48.511-8.639-43.855-14.347-54.786-15.025-52.77-15.025-52.77Z" transform="translate(2108.559 -287.956)"/><path class="e" d="M-2017.695,590.846s19.333,42.58,15.855,54.879c-4.19,14.817-20.221,35.584-27.486,44.8s-6.459,16.943-8.86,18.277-16.007-1.632-15.262-11.664,2.93-6.82,1.5-21.9,12.288-29.514,12.288-29.514l-33.037-42.29s21.809-7.119,33.037-6.447Z" transform="translate(2129.272 -290.94)"/><path class="f" d="M-2035.115,350.161h8.635l31.844,11.051,9,5.9s9.454,13.289.891,19.505-31.232,10.577-32.7,5.7-12.189-31.829-12.189-31.829Z" transform="translate(2127.115 -275.502)"/><path class="e" d="M-1975.526,375.611s.586,36.034,0,47.566,0,23.931,0,23.931,22.533,15.38,31.189,22.8,0,25,0,25-37.712-18.077-49.72-27.995-9.432-26.874-9.432-26.874Z" transform="translate(2123.276 -277.817)"/><path class="d" d="M-2031.367,350.139s-10.062-1.145-29.877,0-36.063,58.142-36.986,77.821c-.46,9.819-5.395,31.775-7.6,53.252-2.159,21.017,3.219,42.084,3.219,42.084l104.63-7.552s-3.062-27.251,0-65.229,15.867-80.631,15.867-80.631l-17.4-8.786s-1.5,22.483-18.927,19.806S-2031.367,350.139-2031.367,350.139Z" transform="translate(2131.94 -275.347)"/><path class="g" d="M46.769,0C44,.045,29.718,6.641,19.058,32.9S-.9,91.386.069,94.852s18.638,11.31,23.859,2.127C27.87,90.046,46.7,56.888,54.289,34.667,56.648,27.754,49.537-.044,46.769,0Z" transform="translate(22.445 67.989) rotate(9)"/><path class="e" d="M2.977,2.466S-2.71,14.405-.012,20.119s75.368,34.971,79.549,36.1,3.594-14.29,3.594-14.29S73.663,39.5,46.391,17.7,2.977,2.466,2.977,2.466Z" transform="translate(8.804 148.817) rotate(9)"/><path class="h" d="M-3061.472-368.6l5.748-13.87s-11.585-28.617,9.149-44.084,31.473-6.2,41.607,1.143,3.189,16.47,2.018,27.012,1.68,16.249,1.68,16.249h-7.541s-1.28,6.574-3.055,14.079-15.185,1.112-15.185,1.112l-3.6,8.961Z" transform="translate(3163.106 443.688)"/><path class="i" d="M-3053.356-377.309c-2.6-1.645-11.836-18.108-8.931-33.764s12.538-22.93,20.617-26.4,25.656-.761,32.1,3.847,7.76,9.15,17.31,6.385,14.288,18.3,0,20.9-28.094-5.547-28.094-5.547l-4.762,16.781-6.6-1.29s1.988-10.828-6.069-8.509-1.138,15.472-1.138,15.472S-3050.761-375.664-3053.356-377.309Z" transform="translate(3160.722 439.05)"/><path class="j" d="M-1922.537,757.565l-4.284-36.428-18.159,7.694-7.261.657,8.887,35.622s-1.647,2.839,0,3.838,20.641-.668,22.245-3.838S-1922.537,757.565-1922.537,757.565Z" transform="translate(2104.976 -296.694)"/><path class="d" d="M21.037.136A14.773,14.773,0,0,0,10.055,3.091C4.843,7.146-1.915,16.085.507,18.424S48.02,62.73,48.02,62.73s7.3-3.878,6.183-11.618S43.423,35.461,42.016,29.948s3.335-14.414,2.674-18.23-12.321,1.55-17.158-3.987S21.037.136,21.037.136Z" transform="translate(144.845 480.831) rotate(-43)"/><path class="k" d="M-1913.254,765.387s-7.341,4.292-9.454,8.4" transform="translate(2106.833 -296.662)"/><path class="k" d="M-1913.254,765.387s-7.341,4.292-9.454,8.4" transform="translate(2111.521 -293.85)"/><path class="j" d="M-2051.66,697.042a8.671,8.671,0,0,0-4.222,7.2c.037,3.644.566,8.847,5.454,11.441s10.143,4.322,13.167,2.733,4-3.493,4.563-6.534a6.286,6.286,0,0,0-1.227-5.056s-.568,4.55-7.805,3.9-9.159-5.014-9.929-7.972A12.164,12.164,0,0,1-2051.66,697.042Z" transform="translate(2128.414 -297.2)"/><path class="k" d="M0,5.745S8.858,3.933,14.2,0" transform="matrix(0.998, -0.07, 0.07, 0.998, 86.624, 428.298)"/><path class="k" d="M0,5.745S8.858,3.933,14.2,0" transform="matrix(0.998, -0.07, 0.07, 0.998, 89.756, 432.778)"/><path class="e" d="M1.013,16.579S11.245,6.157,14.458,3.047,36.222.64,40.222,2.83s9.531,5.4,3.458,7.4-17,5.6-19.279,6.119-1.071,10.778-7.7,13.082A45.511,45.511,0,0,1,3.766,31.79Z" transform="matrix(0.966, 0.259, -0.259, 0.966, 83.468, 185.17)"/></g><g transform="translate(1077.231 331.921)"><path class="l" d="M-1878.932,394.977l4.1,14.092-.612,6.422h-6.514l1.73-15.069Z" transform="translate(2063.863 -346.268)"/><path class="b" d="M.266,26.02S18.022,39.031,28.653,45.763,54.878,48.8,47.6,34.028c-4.468-6.214-11.926-16-17.779-21.691A60.534,60.534,0,0,0,15.953,2.367C9.344-1.028,2.8-.874,1.052,3.5S.266,26.02.266,26.02Z" transform="matrix(0.999, -0.035, 0.035, 0.999, 315.986, 282.101)"/><path class="m" d="M-1917.644,425.121l-.916,20.6,38.042,16.389,15.409-24.329-2.7-25.569-7.212-4.01Z" transform="translate(2066.152 -347.095)"/><path class="n" d="M487.474,528h0Z" transform="translate(0 -126.788)"/><path class="m" d="M-1850.235,412.839s13.531-4.361,35.953,3.095,29.14,18.284,48.274,18.389,41.009,4.564,60.056,9.349,42.287,9.067,42.657,18.314-34.959,6.043-34.959,6.043-1.814-6.469-17.122-6.043-26.678,4.268-50.633,0-65.426-18.314-65.426-18.314Z" transform="translate(2061.878 -355.743)"/><path class="l" d="M-1802.139,622.017s13.54,46.542,34.476,47.356,35.255-2.77,38.517-5.335,6.293-12.437,2-16.565-15.414-10.837-24.67-7.126c-3-12.6-21.288-49.432-21.288-49.432Z" transform="translate(2058.87 -359.349)"/><path class="l" d="M-1819.374,602.9s18.28,41.874,24.3,54.787,21.714,15.677,37.087,35.935,22.265,33.822,22.265,33.822-3.809,23.514-27.08,3.218-43.286-30.8-51.568-43.419-51.322-60.985-51.322-60.985,31.536-16.533,37.425-15S-1819.374,602.9-1819.374,602.9Z" transform="translate(2062.091 -359.791)"/><path class="d" d="M-1802.12,520.172l44.943,93.015s-45.511,18.807-49.208,20.1c-1.3-2.865-5.9-12.851-5.9-12.851l-47.583,21.591-26.914-54.214-6.342-16.356Z" transform="translate(2064.878 -354.099)"/><path class="o" d="M-1943.434,454.364l24.229-29.614s0,.061.04.492c.146,1.949,2.69,25.168,34.214,30.24,18.683-16.926,6.169-46.779,6.169-46.779a19.165,19.165,0,0,1,4.991-2.732,78.751,78.751,0,0,1,10.665-2.558c8.138-1.671,11.042,0,11.042,0s26.542,53.116,37.764,81.678,23.875,57.223,23.875,57.223-22.417,15.231-47.682,25.137-53.38,14.487-53.38,14.487-7.158-19.432-14.882-39.624-15.107-45.287-15.107-45.287Z" transform="translate(2067.969 -346.749)"/><path class="m" d="M-1943.228,457.682c-7.585,14.285-5.077,51.9-4.36,58.876s-.231,32.626,2.267,41.671,21.413-11.066,25.125-25.954-2.45-24.117,0-31.222,10.45-14.633,3.056-26.3S-1943.228,457.682-1943.228,457.682Z" transform="translate(2068.029 -350.19)"/><path class="p" d="M-837.49,728.995s9.27,1.94,12.08-3.811,5.315-10.79,5.315-10.79l19.543,21.3s3.447,13.071-3.3,14.561-10.875,0-10.875,0Z" transform="translate(1142.839 -353.473)"/><path class="q" d="M-1839.786,474.219c-19.047-3.487-39.65,1.379-38.409,14.066s18.625,6.52,32.052,7.146,18.5,16.909,3.084,20.259a150.722,150.722,0,0,1-31.3,2.955" transform="translate(2056.131 -349.281)"/><path class="m" d="M.108,40.982C-.91,34.722,5.165,22.909,21.888,15.944S47.213,22.126,79.438,5.084s6.689,14.227,6.689,14.227S56.292,35.786,30.381,42.568,1.126,47.241.108,40.982Z" transform="translate(120.53 165.735) rotate(-3)"/><path class="m" d="M0,16.392S10.973,4.641,14.181,1.537s21.975-.9,25.967,1.288,12.36,7.452,6.3,9.442-18.54,5.88-20.82,6.4-2.34,8.4-8.958,10.7A54.354,54.354,0,0,1,3.147,31.986Z" transform="matrix(0.974, -0.225, 0.225, 0.974, 186.829, 156.067)"/><g transform="translate(347.919 92.353)"><ellipse class="a" cx="35.5" cy="36" rx="35.5" ry="36" transform="translate(-0.15 -0.274)"/><g class="r"><g transform="translate(-0.986)"><path class="s" d="M-1681.734,449.133s21.744,17.345,20.79,69.391" transform="translate(1708.28 -449.008)"/><path class="s" d="M-1708.052,489.947s21.066-41.141,67.837-22.578" transform="translate(1708.052 -449.848)"/><path class="s" d="M-1661.91,449s-5.371,4.813-1.875,12.933,10.131,10.569,14.075,11.854,14.335,2.224,16.468,9.175" transform="translate(1707.232 -449)"/><path class="s" d="M-1693.173,456.3s11.111-.079,14.935,8.382.547,18.369-6.124,24.458-11.333,13.526-6.864,25.532" transform="translate(1707.121 -449.457)"/></g></g></g><path class="k" d="M-1719.881,675.685l8.882-11.4" transform="translate(2051.85 -362.176)"/><path class="k" d="M-1719.881,675.685l8.882-11.4" transform="translate(2057.475 -358.426)"/><path class="m" d="M-1812.5,365.745s5.772,22.471,7.1,23.417,4.379,6.034,4.569,9.157,16.512,22.7,20.852,23.973,9.416-.438,12.131-2.615,13.853-15.235,13.694-22.324,0-12.749,0-12.749,7.611-5.118,3.233-13.789-10.058,0-10.058,0l1.707,7.385h-4.106a79.727,79.727,0,0,0-5.935-16.405c-4.167-8.36-12.886-3.513-21.132,0S-1812.5,365.745-1812.5,365.745Z" transform="translate(1939.524 -334.452)"/><path class="t" d="M-1884.476,375.67s2.15-15.727-5.945-23.446c-2.963-2.825-6.984-6.23-11.519-4.755-2.382-4.4-13.244-6.579-23.875-1.58-16.768,7.884-16.038,23.127-24.436,24.638s-8.082,8.262-3.939,10.236,9.223,0,9.223,0-6.137,5.234-.84,7.523,25.089-12.616,25.089-12.616,12.818-8.885,18.778-3.3,10.138,16.424,10.138,16.424l4.567-2.049s-2.033-4.982-2.107-7.854A5.01,5.01,0,0,1-1884.476,375.67Z" transform="translate(2068.558 -343.018)"/><path class="t" d="M-1908.367,372.537s-5.7,4.089-8.409,7.412-6.647,8.115-10.819,8.463-1.971-5.289,0-7.522,10.068-8.627,11.583-8.353A69.608,69.608,0,0,0-1908.367,372.537Z" transform="translate(2066.865 -344.864)"/><path class="b" d="M-1725.08,769.043s1.95-8.065,7.261-7.079,12.442,11.529,10.861-1.128,8.655,8.444,12.278,14.877,2.79,9.377,2.79,9.377l-33.19,15.748s-13.516,1.237-15.888-3.5,2.13-11.554,9.986-16.272S-1725.08,769.043-1725.08,769.043Z" transform="translate(2047.926 -375.563)"/><path class="u" d="M0,.11S8.8-.943,13.542,3.461" transform="translate(320.73 399.807) rotate(3)"/><path class="u" d="M0,.11S8.8-.943,13.542,3.461" transform="translate(323.413 396.527) rotate(-1)"/><path class="o" d="M328.794,285.692s7.043,7.233,3.518,14.1-9.492,7.751-9.492,7.751,8.679,3.1,12.142-6.223S328.794,285.692,328.794,285.692Z"/></g></g><g transform="translate(0 -35)"><path class="b" d="M-2043.326,445.854s-3.261,11.853,2.9,32.037,34.985,60.335,34.985,60.335l55.1-14.736-5.165-12.585,35.073-7.49-18.934-64.3Z" transform="translate(3120 127)"/><g class="v" transform="translate(0 36)"><path class="w" d="M-2034.974,445.527s1.163,18.718,9,35.315,31.71,55.59,31.71,55.59" transform="translate(3119 91)"/><path class="w" d="M-2034.974,445.527s1.163,18.718,9,35.315,31.71,55.59,31.71,55.59" transform="translate(3129 89)"/></g></g></g></svg>