<svg xmlns="http://www.w3.org/2000/svg" xmlns:xlink="http://www.w3.org/1999/xlink" width="220.017" height="193.063" viewBox="0 0 220.017 193.063"><defs><style>.a{fill:#fff;}.b{fill:none;stroke:#282849;stroke-width:1.5px;}.c{fill:#404040;}.c,.i{opacity:0.05;}.d{fill:url(#c);}.e{opacity:0.1;}.f{fill:#ffd9c7;}.g{fill:#f0f0f0;}.h{fill:#282849;}.j{fill:#bcd205;}.k{fill:#fbbebe;}.l{fill:url(#d);}.m{fill:#6f503a;}.n{filter:url(#a);}</style><filter id="a" x="0" y="0" width="218.904" height="184.406" filterUnits="userSpaceOnUse"><feOffset dy="3" input="SourceAlpha"/><feGaussianBlur stdDeviation="3" result="b"/><feFlood flood-opacity="0.161"/><feComposite operator="in" in2="b"/><feComposite in="SourceGraphic"/></filter><linearGradient id="c" x1="0.5" x2="0.5" y2="1" gradientUnits="objectBoundingBox"><stop offset="0" stop-color="#4792ff"/><stop offset="1" stop-color="#4792ff"/></linearGradient><linearGradient id="d" x1="0.5" x2="0.5" y2="1" gradientUnits="objectBoundingBox"><stop offset="0" stop-color="#dff052"/><stop offset="1" stop-color="#bad000"/></linearGradient></defs><g transform="translate(-52.338 -38.366)"><g class="n" transform="matrix(1, 0, 0, 1, 52.34, 38.37)"><path class="a" d="M267.81,317.87V478.663c0,3.1,2.087,5.613,4.661,5.613H464.053c2.574,0,4.661-2.513,4.661-5.613V317.87Z" transform="translate(-258.81 -311.87)"/></g><rect class="b" width="48.026" height="28.19" rx="8.65" transform="translate(77.235 84.558)"/><rect class="b" width="48.026" height="28.19" rx="8.65" transform="translate(137.778 84.558)"/><rect class="c" width="46.675" height="27.395" rx="8.65" transform="translate(245.669 112.349) rotate(180)"/><rect class="c" width="46.675" height="27.395" rx="8.65" transform="translate(77.909 124.527)"/><rect class="c" width="46.675" height="27.395" rx="8.65" transform="translate(245.669 151.922) rotate(180)"/><rect class="c" width="46.675" height="27.395" rx="8.65" transform="translate(185.127 151.922) rotate(180)"/><rect class="c" width="46.675" height="27.395" rx="8.65" transform="translate(77.909 164.099)"/><rect class="c" width="46.675" height="27.395" rx="8.65" transform="translate(245.669 191.498) rotate(180)"/><rect class="c" width="46.675" height="27.395" rx="8.65" transform="translate(185.127 191.498) rotate(180)"/><path class="d" d="M267.81,229.094v24.255h200.9V229.094a4.661,4.661,0,0,0-4.66-4.664H272.471A4.661,4.661,0,0,0,267.81,229.094Zm49.719,7.175a3.721,3.721,0,1,1,3.721-3.721A3.721,3.721,0,0,1,317.529,236.269Zm101.466,0a3.728,3.728,0,1,0-.006,0Z" transform="translate(-206.473 -180.064)"/><path class="e" d="M422.151,236.74a4.4,4.4,0,1,0,4.395,4.4A4.4,4.4,0,0,0,422.151,236.74Zm0,8.118a3.721,3.721,0,1,1,3.721-3.721A3.721,3.721,0,0,1,422.151,244.858Z" transform="translate(-311.094 -188.654)"/><path class="e" d="M757.848,236.74a4.4,4.4,0,1,0,4.4,4.4A4.4,4.4,0,0,0,757.848,236.74Zm0,8.118a3.721,3.721,0,1,1,3.721-3.721,3.72,3.72,0,0,1-3.721,3.721Z" transform="translate(-545.331 -188.654)"/><path class="f" d="M863.912,806.855a3.367,3.367,0,0,1-.166,1.028,2.484,2.484,0,0,1-1.578,1.327c-.671.233-1.384.3-2.067.5a1.814,1.814,0,0,0-.807.417,1.464,1.464,0,0,0,.465,2.143,4.015,4.015,0,0,0,2.448.378,32.234,32.234,0,0,0,5.3-.753c.629-.148,1.363-.438,1.463-1.076a1.763,1.763,0,0,0-.048-.6,35.74,35.74,0,0,1-.68-6.568,13.649,13.649,0,0,0-3.832-.027C863.673,804.1,863.951,806.112,863.912,806.855Z" transform="translate(-618.971 -584.115)"/><path class="f" d="M925.451,782.006q.871,1.442,1.635,2.941a10.4,10.4,0,0,1,.888,2.179,10.011,10.011,0,0,1,.082,3.515q-.106.928-.26,1.853a2.339,2.339,0,0,1-.777,1.638,1.789,1.789,0,0,0,1.542.136,4.44,4.44,0,0,0,1.357-.831,11.979,11.979,0,0,0,4.63-8.6,1.362,1.362,0,0,0-.142-.762,1.512,1.512,0,0,0-.453-.4,34.835,34.835,0,0,1-5.359-4.5.656.656,0,0,0-.393-.251.681.681,0,0,0-.35.1c-.994.5-2.657,1.209-3.071,2.342a1.583,1.583,0,0,1,.671.644Z" transform="translate(-664.878 -566.963)"/><path class="g" d="M862.814,823.215a26.909,26.909,0,0,1-6.888,1.544.94.94,0,0,1-.825-.151.628.628,0,0,1-.055-.707,1.842,1.842,0,0,1,.5-.556l1.563-1.309a5.44,5.44,0,0,0-3.971.683,1.581,1.581,0,0,0-.792.907,1.475,1.475,0,0,0,.278,1.073,4.939,4.939,0,0,0,2.793,1.958,14.929,14.929,0,0,0,3.443.474l2.116.121a.571.571,0,0,0,.142.75,1.51,1.51,0,0,0,.786.287,10.076,10.076,0,0,0,2.63.036,1,1,0,0,0,.6-.215.381.381,0,0,0,0-.568.637.637,0,0,0,.58-.42,1.749,1.749,0,0,0,.079-.753,7.915,7.915,0,0,0-.662-3.273C864.622,822.242,863.546,822.913,862.814,823.215Z" transform="translate(-614.331 -596.966)"/><path class="g" d="M937.415,794.625a9.728,9.728,0,0,0-2.243-1.242.266.266,0,0,0-.4.1,23.007,23.007,0,0,0-3.3,6.368,11.073,11.073,0,0,1-1.65,3.736c-.115.139-.3.281-.459.2-.227-.115-.088-.481-.215-.7-.157-.278-.586-.151-.843.039a3.624,3.624,0,0,0-1.04,1.209,1.207,1.207,0,0,0-.188.758,1.119,1.119,0,0,0,.589.744c1.121.65,2.53.181,3.73-.3a4.271,4.271,0,0,0,.94-.469c.6-.426.934-1.136,1.535-1.55a8.834,8.834,0,0,0,.928-.58c.556-.5.6-1.354,1.01-1.995.677-1.1,2.191-1.381,2.784-2.548C939.247,797.092,938.449,795.465,937.415,794.625Z" transform="translate(-666.472 -577.017)"/><path class="h" d="M859.56,594.3c2.376,1.783,3.373,4.954,3.267,7.922a27.95,27.95,0,0,1-2.182,8.6q-2.222,5.975-4.437,11.948a4.932,4.932,0,0,1,.3,1.36,1.671,1.671,0,0,1-.3,1.336c-.139.16-.3.284-.453.441a2.368,2.368,0,0,0-.393,1.853,5.361,5.361,0,0,1,.051,1.937c-.069.269-.2.523-.245.795a.789.789,0,0,0,.22.762c.3.242.907.163.995.544a45.173,45.173,0,0,1,10.065,12.392c.979,1.762,1.968,3.714,3.8,4.567a66.286,66.286,0,0,0-5.117,4.5c-2.554-2.237-3.827-5.492-5.912-8.161a18.738,18.738,0,0,0-4.709-4.21,8.614,8.614,0,0,1,1.158,5.2,24.175,24.175,0,0,1-.4,2.626c-.469,2.75-.426,5.743,1.058,8.118a8.884,8.884,0,0,1-5.171,1.188,4.4,4.4,0,0,1-2.817-1.608,106.288,106.288,0,0,0-3.261-17.188,21.138,21.138,0,0,1-.7-3.479c-.212-2.418.432-5.108-.242-7.339a13.677,13.677,0,0,1-.6-3.343v-.36a13.689,13.689,0,0,0-.284-2.454l-1.288-5.718c-.562-2.5-1.124-5.1-.517-7.592a4.029,4.029,0,0,1-.822-.432c-.493-.281-.414-1.016-.191-1.535s.523-1.109.272-1.617a3.954,3.954,0,0,0-.456-.577,2.9,2.9,0,0,1-.423-1.575l-.157-2.182a4.271,4.271,0,0,1,2.152,1.883c-1.191-1.844-.6-4.473.275-6.486a2.956,2.956,0,0,1,2.775-2.2C849.707,593.4,855.624,591.344,859.56,594.3Z" transform="translate(-605.485 -437.067)"/><path class="e" d="M890.89,638.93s-2.382,1.59-2.382,2.781-.6,11.908-.6,11.908v7.556s.4,3.971,0,4.963,0,5.558,0,6.154.6-6.154.6-6.154v-7.157l.6-16.279Z" transform="translate(-639.025 -469.284)"/><path class="f" d="M804.139,420.59l-1.387-.541c-2.835-1.136-5.673-2.276-8.417-3.609a12.869,12.869,0,0,1-5.259-3.944c-.4-.6-.707-1.239-1.1-1.835a14.614,14.614,0,0,0-1.511-1.792l-3.705-3.959c-.284.529.078,1.152.369,1.674a7.255,7.255,0,0,1,.686,1.75.81.81,0,0,1-.021.6,1.174,1.174,0,0,1-.5.357,1.774,1.774,0,0,0-.765,2.046,2.282,2.282,0,0,0,1.711,1.475A3.25,3.25,0,0,1,785,413c.447.221.659.725.979,1.1a4.4,4.4,0,0,0,2.394,1.179c1.372,1.563,2.8,3.059,4.168,4.621a29.892,29.892,0,0,0,6.9,6.371,10.109,10.109,0,0,0,3.116,1.251A50.519,50.519,0,0,1,804.139,420.59Z" transform="translate(-565.557 -305.996)"/><path class="i" d="M804.139,420.59l-1.387-.541c-2.835-1.136-5.673-2.276-8.417-3.609a12.869,12.869,0,0,1-5.259-3.944c-.4-.6-.707-1.239-1.1-1.835a14.614,14.614,0,0,0-1.511-1.792l-3.705-3.959c-.284.529.078,1.152.369,1.674a7.255,7.255,0,0,1,.686,1.75.81.81,0,0,1-.021.6,1.174,1.174,0,0,1-.5.357,1.774,1.774,0,0,0-.765,2.046,2.282,2.282,0,0,0,1.711,1.475A3.25,3.25,0,0,1,785,413c.447.221.659.725.979,1.1a4.4,4.4,0,0,0,2.394,1.179c1.372,1.563,2.8,3.059,4.168,4.621a29.892,29.892,0,0,0,6.9,6.371,10.109,10.109,0,0,0,3.116,1.251A50.519,50.519,0,0,1,804.139,420.59Z" transform="translate(-565.557 -305.996)"/><path class="j" d="M842.722,463.76a1.664,1.664,0,0,1-1.185-.568,1.592,1.592,0,0,1-.13-1.043,29.237,29.237,0,0,1,1.511-6.68,7.223,7.223,0,0,0,3.258,2.633,24.185,24.185,0,0,0,3.5,1.6c-.3-.1-1.043,4.552-1.46,4.836-.526.369-1.8-.13-2.379-.23Z" transform="translate(-606.68 -341.274)"/><circle class="f" cx="6.353" cy="6.353" r="6.353" transform="translate(232.909 108.408)"/><path class="k" d="M852.22,464.595s4.168,3.572,2.382,5.954-2.781,3.971-.4,4.171,10.322-3.971,10.322-3.971-7.344-5.954-6.154-9.527S852.22,464.595,852.22,464.595Z" transform="translate(-614.249 -344.575)"/><path class="l" d="M850.225,482.924a4.93,4.93,0,0,0-3.648,3.669c-.468,2.14.526,4.534-.411,6.5a25.829,25.829,0,0,1-1.813,2.518,5.138,5.138,0,0,0,.478,5.927c.414.471.946.928.994,1.551a5.707,5.707,0,0,1-.085.846,6.279,6.279,0,0,0,.435,1.968,2,2,0,0,1-.166,1.626,2.353,2.353,0,0,0-.411,1.563,10.447,10.447,0,0,1-.263,2.545c-.027.369,0,.737-.033,1.106a6.446,6.446,0,0,1-.218,1.037l-.532,1.961a21.8,21.8,0,0,0,9.067,1.62,44.44,44.44,0,0,0,8.279-1.209c.831-.175,1.662-.35,2.481-.577-1.729-2.261-1.913-5.256-1.962-8.1a120.955,120.955,0,0,0-1.061-14.175,18.231,18.231,0,0,0,1.553-5.1,8.62,8.62,0,0,0,.193-2.155,11.469,11.469,0,0,0-1.46-4.316c-.623-1.251-1.3-2.569-2.684-3.11a2.134,2.134,0,0,0-2.064.227c-1.049.792-.738,2.158-1.006,3.325a4.463,4.463,0,0,1-3.231,3.022,10.5,10.5,0,0,1-3.4.317.6.6,0,0,1-.429-.991C849.318,483.985,849.808,483.438,850.225,482.924Z" transform="translate(-608.255 -357.313)"/><path class="f" d="M851.04,574.49a41.35,41.35,0,0,1-7.444,5.223c-1.593.8-3.286,1.387-4.836,2.246a1.932,1.932,0,0,0-.907.822,2.031,2.031,0,0,0-.048,1.133l.689,4.751c.19,1.288,1.427,2.116,2.418,2.938a1.74,1.74,0,0,1,.064-1.151,3.883,3.883,0,0,1,.233-.348,3.261,3.261,0,0,0,.335-2.234,12.408,12.408,0,0,1-.263-2.291.75.75,0,0,1,.32-.665c3.376-1.623,7.012-2.868,10.424-4.41a11.04,11.04,0,0,0,2.53-1.436,3.892,3.892,0,0,0,1.469-2.439.477.477,0,0,0-.06-.372.505.505,0,0,0-.257-.151C854.178,575.551,852.564,575.04,851.04,574.49Z" transform="translate(-604.15 -424.321)"/><path class="e" d="M853.289,508.493a3.417,3.417,0,0,0-2.79,1.919,4.265,4.265,0,0,0-.157,1.511,4.914,4.914,0,0,0,.354,2.095,5.922,5.922,0,0,0,.707,1.028c2.793,3.579,4.2,8.073,6.915,11.709.242.32.683.738.547,1.115a2.726,2.726,0,0,0-.13.3.6.6,0,0,0,.2.529,1.292,1.292,0,0,1,.33.481c.051.19-.076.438-.272.423a4.043,4.043,0,0,0,2.276,2.076,9.477,9.477,0,0,0,5.081,1.248,11.6,11.6,0,0,0,.6-4.159,10.8,10.8,0,0,0-1.013-2.95l-1.182-2.581a38.435,38.435,0,0,0-3.424-6.4,9.67,9.67,0,0,1-1.266-2.04c-.36-.934-1.348-1.59-1.946-2.391a14.816,14.816,0,0,0-3-3.291A2.714,2.714,0,0,0,853.289,508.493Z" transform="translate(-612.93 -378.26)"/><path class="l" d="M853.29,506.523a3.421,3.421,0,0,0-2.79,1.916,4.294,4.294,0,0,0-.157,1.511,4.916,4.916,0,0,0,.354,2.094,5.918,5.918,0,0,0,.707,1.028c2.793,3.579,4.2,8.073,6.915,11.709.242.32.683.737.547,1.115a2.677,2.677,0,0,0-.13.3.6.6,0,0,0,.2.529,1.29,1.29,0,0,1,.33.481c.051.19-.076.438-.272.423a4.044,4.044,0,0,0,2.276,2.076,9.477,9.477,0,0,0,5.081,1.248,11.6,11.6,0,0,0,.6-4.159,10.793,10.793,0,0,0-1.012-2.95l-1.182-2.581a38.43,38.43,0,0,0-3.425-6.4,9.627,9.627,0,0,1-1.266-2.043c-.36-.931-1.348-1.587-1.946-2.388a14.811,14.811,0,0,0-3-3.291A2.727,2.727,0,0,0,853.29,506.523Z" transform="translate(-612.931 -376.885)"/><path class="m" d="M838.974,419.184a7,7,0,0,0-2.472.52,2.379,2.379,0,0,0-1.436,1.94,11.527,11.527,0,0,1,.118,1.469c-.106.81-.858,1.357-1.245,2.073a3.714,3.714,0,0,0,.725,3.929c.877,1.1,2.064,1.946,2.965,3.041a7.858,7.858,0,0,1,1.638,6.323,5.021,5.021,0,0,0-.16,1.321,3.8,3.8,0,0,0,1.136,2.052c2.588,3.026-.143,4.694,7.342,8.432s12.421-3.306,11.819-6.521-1.565-3.11-1.268-4.867c.13-.774,1.758-1.52.338-3.736s-3.99-1.125-6.018-5.13-.136-5.283-2.118-8.385-3.585-4.12-5.81-4.026a11.607,11.607,0,0,0-3.451.864l-2.914,1.061" transform="translate(-601.277 -314.86)"/><path class="l" d="M390.109,348.7l-2.191-2.2a1.164,1.164,0,0,0-1.653,0L372.5,360.129l-5.821-5.864a1.161,1.161,0,0,0-1.641,0l-2.216,2.191a1.176,1.176,0,0,0,0,1.653l8.841,8.907a1.173,1.173,0,0,0,1.65,0l16.793-16.666a1.164,1.164,0,0,0,0-1.653Z" transform="translate(-272.534 -264.995)"/><path class="l" d="M591.109,348.7l-2.191-2.2a1.164,1.164,0,0,0-1.653,0L573.5,360.129l-5.821-5.864a1.16,1.16,0,0,0-1.641,0l-2.216,2.191a1.176,1.176,0,0,0,0,1.653l8.841,8.907a1.173,1.173,0,0,0,1.65,0l16.793-16.666a1.164,1.164,0,0,0,0-1.653Z" transform="translate(-412.783 -264.995)"/></g></svg>