<svg xmlns="http://www.w3.org/2000/svg" xmlns:xlink="http://www.w3.org/1999/xlink" width="126" height="131" viewBox="0 0 126 131"><defs><style>.a{fill:url(#a);}.b{fill:#404040;opacity:0.1;}.c{clip-path:url(#c);}.d{fill:none;stroke:#862c00;stroke-width:2.5px;}</style><linearGradient id="a" x1="0.153" y1="0.157" x2="0.869" y2="0.838" gradientUnits="objectBoundingBox"><stop offset="0" stop-color="#ff9d00"/><stop offset="1" stop-color="#ff8900"/></linearGradient><clipPath id="c"><circle class="a" cx="63" cy="63" r="63" transform="translate(0 0.404)"/></clipPath></defs><g transform="translate(-541 -7451.404)"><ellipse class="b" cx="63" cy="8" rx="63" ry="8" transform="translate(541 7566.404)"/><g transform="translate(541 7451)"><circle class="a" cx="63" cy="63" r="63" transform="translate(0 0.404)"/><g class="c"><g transform="translate(-1.745 -0.146)"><path class="d" d="M-1681.735,449.133s38.476,30.694,36.789,122.791" transform="translate(1728.709 -448.912)"/><path class="d" d="M-1708.052,511.025s37.277-72.8,120.042-39.954" transform="translate(1708.052 -440.067)"/><path class="d" d="M-1659.557,449s-9.5,8.517-3.318,22.886,17.928,18.7,24.906,20.976,25.366,3.936,29.141,16.236" transform="translate(1739.757 -449)"/><path class="d" d="M-1693.173,456.3s19.662-.139,26.429,14.833.969,32.5-10.837,43.279-20.054,23.934-12.146,45.18" transform="translate(1717.855 -444.19)"/></g></g></g></g></svg>