<svg xmlns="http://www.w3.org/2000/svg" xmlns:xlink="http://www.w3.org/1999/xlink" width="213.405" height="172.702" viewBox="0 0 213.405 172.702"><defs><style>.a{fill:#cfe800;}.b{fill:#f2f2f2;}.c{fill:#282849;}.d,.h{fill:#fff;}.d{opacity:0.32;}.e{opacity:0.1;mix-blend-mode:multiply;}.e,.o{isolation:isolate;}.f{fill:#4792ff;}.g{fill:#eab01f;}.i{fill:#bcd7ff;}.j{fill:url(#a);}.k{fill:#4a8bf8;}.l{fill:#3c59be;}.m{fill:#85a5f1;}.n{opacity:0.3;}</style><linearGradient id="a" x1="0.5" x2="0.5" y2="1" gradientUnits="objectBoundingBox"><stop offset="0" stop-color="#4792ff"/><stop offset="1" stop-color="#5574e1"/></linearGradient></defs><g transform="translate(-836 -5481.013)"><g transform="translate(836 5521.82)"><path class="a" d="M556.467,243.778q-106.705,0-213.405,0,18.523-44.534,37.04-89.071H519.43Q537.939,199.241,556.467,243.778Z" transform="translate(-343.062 -154.707)"/><path class="b" d="M366.645,243.778c-3.255,0-4.881,0-8.133,0q11.765-44.538,23.535-89.074h5.314Q377.008,199.241,366.645,243.778Z" transform="translate(-319.622 -154.707)"/><path class="b" d="M388.5,213.281h-4.264c.289-21.788.435-32.682.722-54.468h3.26C388.337,180.6,388.39,191.493,388.5,213.281Z" transform="translate(-280.591 -148.478)"/><path class="b" d="M428.552,243.776c-3.255,0-4.883,0-8.138,0q-10.006-44.538-20.009-89.071h5.314Q417.129,199.241,428.552,243.776Z" transform="translate(-256.065 -154.707)"/><path class="b" d="M518.318,168.666q-82.9,0-165.8,0c.365-.873.544-1.309.911-2.182q81.982,0,163.971,0C517.769,167.357,517.953,167.793,518.318,168.666Z" transform="translate(-328.715 -136.842)"/><path class="b" d="M459.669,159.905H366.706l.36-1.362q46.124,0,92.253,0C459.46,159.087,459.525,159.362,459.669,159.905Z" transform="translate(-307.191 -148.89)"/><path class="b" d="M482.019,181.3H361.06c.149-.566.222-.848.373-1.415H481.659C481.8,180.456,481.873,180.738,482.019,181.3Z" transform="translate(-315.757 -116.501)"/><rect class="c" width="3.987" height="24.434" transform="translate(24.27 6.3)"/><rect class="c" width="3.989" height="24.434" transform="translate(185.613 6.3)"/><rect class="d" width="157.355" height="19.661" transform="translate(28.258 8.303)"/><rect class="c" width="157.355" height="2.002" transform="translate(28.258 7.559)"/><path class="e" d="M541.649,230.38H410.866L386.6,206.107l-1.417-1.415-3.2-3.2L353.609,173.12l-1.09-1.087H356.5v-2.769H513.85V163.54c1.024,2.482,2.054,4.944,3.078,7.405.186.451.33.78.451,1.108.086.166.143.33.227.493a5.327,5.327,0,0,0,.224.574Q529.742,201.77,541.649,230.38Z" transform="translate(-328.715 -141.306)"/></g><g transform="translate(845.438 5481.013)"><g transform="translate(0 0)"><path class="f" d="M204.9,76.33l.011.016c-.07.311-.149.618-.24.931s-.191.622-.3.929c-.077.216-.157.442-.252.652-.042.117-.092.231-.147.355q-.229.558-.512,1.1a17.2,17.2,0,0,1-5.352,6.159c-.04.026-.067.047-.107.074-.163.115-.334.226-.494.332-.316.2-.641.4-.968.579-.138.073-.266.149-.413.219s-.3.157-.446.227a4.626,4.626,0,0,1-.474.217,6.794,6.794,0,0,1-.68.286c-.287.121-.577.221-.866.321-.53.177-1.063.333-1.6.455a16.873,16.873,0,0,1-6.44.256c-.223-.029-.453-.07-.673-.107a16.952,16.952,0,0,1-2.538-.69c-.207-.074-.423-.151-.625-.242-.144-.051-.285-.112-.417-.169-.186-.076-.36-.158-.534-.24l-.467-.228a.089.089,0,0,0-.042-.025A17.215,17.215,0,0,1,171,71.573a16.827,16.827,0,0,1,.465-3.217c.073-.289.151-.566.232-.852s.174-.547.274-.827l0-.009a17.189,17.189,0,0,1,3.579-5.917c.18-.19.359-.38.547-.567.374-.365.774-.72,1.166-1.048a.137.137,0,0,0,.04-.026c.215-.177.437-.342.658-.507s.452-.327.678-.479q.593-.383,1.2-.729c.226-.122.453-.245.685-.355a17.258,17.258,0,0,1,6.57-1.764c.3-.024.612-.036.918-.039a17.8,17.8,0,0,1,1.8.082c.166.018.332.037.5.065.245.026.5.065.733.109a16.07,16.07,0,0,1,2.894.746A17.2,17.2,0,0,1,204.9,76.33Z" transform="translate(-170.506 -55.237)"/><path class="g" d="M171.014,86.268a15.975,15.975,0,0,1,.471-3.2,16.831,16.831,0,0,0-.465,3.217Z" transform="translate(-170.524 -69.943)"/><path class="g" d="M172.773,79.477l.009,0,0,.009c-.1.28-.187.553-.274.827C172.583,80.039,172.674,79.757,172.773,79.477Z" transform="translate(-171.312 -68.048)"/><g transform="translate(0.109 1)"><circle class="h" cx="15.284" cy="15.284" r="15.284" transform="translate(1.915 1.915)"/><path class="i" d="M203.607,80.326a17.2,17.2,0,1,1-10.433-21.971A17.217,17.217,0,0,1,203.607,80.326Zm-28.8-10.254a13.37,13.37,0,1,0,17.081-8.11A13.386,13.386,0,0,0,174.81,70.072Z" transform="translate(-170.207 -57.358)"/></g><g transform="translate(6.524 11.373)"><path class="i" d="M199.471,82.575a5.145,5.145,0,0,1,3.418,5.093l2.543.906-1.351,3.795-2.309-.822a7.331,7.331,0,0,1-2.088,2.441l-.8.553-3.3-2.694,1.324-.984a4.937,4.937,0,0,0,1.6-2.2c.227-.638.252-1.475-.426-1.717-.275-.1-.784-.279-2.079,1.189-1.613,1.846-3.641,3.608-6.443,2.61a4.942,4.942,0,0,1-3.276-4.879l-2.479-.883,1.343-3.771,2.237.8a7.153,7.153,0,0,1,1.6-1.949l.83-.7,3.222,2.731-1.142.985a4.33,4.33,0,0,0-1.346,1.941c-.144.4-.3,1.13.271,1.334.267.1.557.2,2.061-1.468C194.247,83.372,196.4,81.483,199.471,82.575Z" transform="translate(-183.812 -79.359)"/></g><path class="f" d="M234.061,103.817l3.115.99c.33.1.427-.425.1-.529l-3.115-.99C233.832,103.183,233.734,103.713,234.061,103.817Z" transform="translate(-203.739 -80.625)"/><path class="f" d="M235.642,95.357c-.342-.045-.445.484-.1.529l3.266.429c.342.045.445-.483.1-.529Z" transform="translate(-204.516 -76.44)"/><path class="f" d="M238.947,86.231l-3.333.38c-.343.039-.3.576.044.537l3.333-.38C239.333,86.728,239.292,86.192,238.947,86.231Z" transform="translate(-204.541 -71.617)"/><path class="f" d="M236.5,78.394l-3.34.992c-.332.1-.152.606.18.507l3.34-.992C237.011,78.8,236.831,78.295,236.5,78.394Z" transform="translate(-203.276 -67.469)"/><path class="f" d="M232.863,71.467l-2.96,1.958a.269.269,0,0,0,.3.445l2.96-1.958A.269.269,0,0,0,232.863,71.467Z" transform="translate(-201.586 -63.79)"/><path class="f" d="M227.2,65.14l-1.715,2.47c-.2.282.208.638.406.354l1.715-2.47C227.8,65.212,227.4,64.856,227.2,65.14Z" transform="translate(-199.286 -60.416)"/><path class="f" d="M219.478,59.437l-.831,3.534c-.08.338.449.438.529.1l.831-3.534C220.086,59.2,219.557,59.1,219.478,59.437Z" transform="translate(-195.695 -57.347)"/><path class="f" d="M211.467,56.8q-.036,1.68-.073,3.361c-.008.345.529.3.537-.044q.037-1.68.073-3.36C212.011,56.409,211.475,56.454,211.467,56.8Z" transform="translate(-191.866 -55.913)"/><path class="f" d="M176.7,79.733l-3.037-1.207c-.322-.128-.456.394-.138.521l3.037,1.207C176.88,80.381,177.015,79.859,176.7,79.733Z" transform="translate(-171.754 -67.535)"/><path class="f" d="M174.279,88.7c.338.069.478-.451.138-.52l-3.227-.659c-.338-.069-.478.451-.138.52Z" transform="translate(-170.441 -72.297)"/><path class="f" d="M170.238,97.878l3.352-.142c.345-.015.341-.553-.006-.538l-3.352.143C169.888,97.355,169.89,97.894,170.238,97.878Z" transform="translate(-169.975 -77.414)"/><path class="f" d="M172.1,105.191l3.4-.754c.338-.074.194-.593-.144-.519l-3.4.754C171.621,104.748,171.765,105.266,172.1,105.191Z" transform="translate(-170.922 -80.962)"/><path class="f" d="M175.66,111.272l3.092-1.744a.269.269,0,0,0-.27-.465l-3.092,1.744A.269.269,0,0,0,175.66,111.272Z" transform="translate(-172.767 -83.665)"/><path class="f" d="M182.285,117.383l1.885-2.342c.215-.267-.163-.651-.38-.381L181.905,117C181.69,117.269,182.068,117.653,182.285,117.383Z" transform="translate(-176.247 -86.594)"/><path class="f" d="M190.531,122.479l1.079-3.467c.1-.331-.417-.468-.52-.138l-1.079,3.467C189.907,122.672,190.428,122.809,190.531,122.479Z" transform="translate(-180.557 -88.77)"/><path class="f" d="M199.19,125.872q.155-1.673.31-3.347c.032-.344-.506-.337-.538.006q-.156,1.673-.311,3.347C198.62,126.222,199.158,126.215,199.19,125.872Z" transform="translate(-185.13 -90.665)"/><path class="f" d="M206.3,59.849l-.39-3.245c-.041-.343-.564-.213-.523.128l.39,3.245C205.82,60.32,206.343,60.189,206.3,59.849Z" transform="translate(-188.691 -55.853)"/><path class="f" d="M198.009,56.82l.626,3.3c.065.339.6.258.532-.083l-.627-3.3C198.476,56.4,197.944,56.478,198.009,56.82Z" transform="translate(-184.789 -55.915)"/><path class="f" d="M190.375,59.818l1.238,3.257c.123.324.615.106.493-.217q-.62-1.628-1.238-3.257C190.745,59.277,190.252,59.494,190.375,59.818Z" transform="translate(-180.747 -57.459)"/><path class="f" d="M183.771,64.379l2.172,2.807c.213.274.634-.061.422-.335l-2.173-2.807C183.979,63.77,183.558,64.105,183.771,64.379Z" transform="translate(-177.236 -59.838)"/><path class="f" d="M177.989,71.918l2.59,1.527c.3.174.62-.256.322-.431l-2.59-1.527C178.016,71.313,177.691,71.742,177.989,71.918Z" transform="translate(-174.148 -63.804)"/><path class="f" d="M205.23,122.9q.14,1.341.28,2.681a.269.269,0,0,0,.537-.044q-.139-1.34-.28-2.68A.269.269,0,0,0,205.23,122.9Z" transform="translate(-188.607 -90.848)"/><path class="f" d="M212.644,122.657l.364,2.951c.042.342.579.3.537-.044l-.363-2.951C213.139,122.271,212.6,122.312,212.644,122.657Z" transform="translate(-192.525 -90.721)"/><path class="f" d="M217.633,120.955q.4,1.366.79,2.734c.1.333.6.152.507-.18q-.395-1.367-.79-2.734C218.044,120.442,217.537,120.622,217.633,120.955Z" transform="translate(-195.157 -89.781)"/><path class="f" d="M222.75,118.341l1.289,2.652c.15.308.659.132.507-.18l-1.289-2.652C223.107,117.854,222.6,118.03,222.75,118.341Z" transform="translate(-197.853 -88.409)"/><path class="f" d="M227.64,114.835l1.868,1.967c.239.251.59-.157.354-.406l-1.868-1.967C227.755,114.177,227.4,114.585,227.64,114.835Z" transform="translate(-200.411 -86.479)"/><path class="f" d="M231.9,108.868l2.363,1.641c.282.2.638-.208.354-.406l-2.363-1.641C231.97,108.266,231.614,108.671,231.9,108.868Z" transform="translate(-202.647 -83.34)"/></g><g transform="translate(35.545 48.351)"><g transform="translate(0 24.241)"><path class="j" d="M364.234,258.9c0,14.4-5.327,24.458-14.125,31.132v15.453H338.942l-3.817-8.017c-1.141.35-2.306.686-3.5.983a86.916,86.916,0,0,1-13.459,2.225c-3.591.326-7.3.484-11.09.484-1.237,0-2.469-.024-3.682-.053v4.378H292.228l-2.666-5.61q-2.373-.366-4.646-.863c-.719-.158-1.439-.326-2.138-.5a54.6,54.6,0,0,1-15.262-6.123,36.678,36.678,0,0,1-8.889-7.427,31.066,31.066,0,0,1-2.172-2.81,36.355,36.355,0,0,1-5.945-15.458c-.038-.211-.072-.427-.1-.643a52.737,52.737,0,0,1,2.349-24.189l-.144-.053s-3.486-15.564,1.52-20.43c0,0,3.423.734,8.544,4.517a54.955,54.955,0,0,1,9.287,8.913,11.082,11.082,0,0,0,1.323-7.125,50.152,50.152,0,0,0-7.883-4.387c10.429-9.182,25.234-14.1,41.671-14.1,1.683,0,3.351.053,5,.158C341.3,211.177,364.234,229.022,364.234,258.9Z" transform="translate(-247.777 -209.201)"/><g transform="translate(102.573 5.06)"><path class="k" d="M474.8,221.066c-.272-.179-.609.207-.334.389a4.6,4.6,0,0,1-.35,8.126,3.632,3.632,0,0,0-1.632-3.116c-1.915-1.207-4.725.772-3.214,2.9.993,1.4,2.751,1.5,4.311.957a4.61,4.61,0,0,1-.576,1.7,4.412,4.412,0,0,1-6.765.973.256.256,0,0,0-.334.388,4.954,4.954,0,0,0,7-.344,5.292,5.292,0,0,0,1.189-2.925,5.633,5.633,0,0,0,1.993-1.455A5.22,5.22,0,0,0,474.8,221.066Zm-1.354,8.8a4.321,4.321,0,0,1-2.044.172c-1.144-.194-2.83-1.393-1.742-2.789,1.209-1.551,3.183-.239,3.717,1.166a3.843,3.843,0,0,1,.243,1.386C473.566,229.818,473.509,229.844,473.451,229.863Z" transform="translate(-465.311 -220.508)"/><path class="k" d="M468.753,234.609A5.752,5.752,0,0,1,465,233.2a.743.743,0,0,1-.264-.573.781.781,0,0,1,.195-.507.755.755,0,0,1,1.075-.081,4.1,4.1,0,0,0,3.375.973,3.668,3.668,0,0,0,2.611-1.815,4.114,4.114,0,0,0,.329-.729,3.8,3.8,0,0,1-4.039-1.379,2.373,2.373,0,0,1,.148-3.147,3.035,3.035,0,0,1,3.758-.485,3.96,3.96,0,0,1,1.785,2.691,4.173,4.173,0,0,0,1.26-1.468,4.279,4.279,0,0,0-1.619-5.373.716.716,0,0,1-.331-.641.788.788,0,0,1,.442-.649.78.78,0,0,1,.787.047h0a5.9,5.9,0,0,1,2.577,4.062,5.388,5.388,0,0,1-1.176,4.292,6,6,0,0,1-1.91,1.468,5.793,5.793,0,0,1-1.277,2.917,5.153,5.153,0,0,1-3.568,1.79Q468.957,234.609,468.753,234.609Zm1.662-8.126a1.137,1.137,0,0,0-.919.5.814.814,0,0,0-.191.86,2.3,2.3,0,0,0,1.615,1.108,3.736,3.736,0,0,0,1.6-.095,3.242,3.242,0,0,0-.194-.841A2.5,2.5,0,0,0,470.6,226.5,1.271,1.271,0,0,0,470.415,226.483Z" transform="translate(-464.737 -219.933)"/></g><path class="c" d="M395.467,215.189l4.04,3.591c-.612-.124-1.23-.241-1.861-.339a53.871,53.871,0,0,0-5.848-3.552C394.1,215.027,395.467,215.189,395.467,215.189Z" transform="translate(-322.757 -212.208)"/><path class="l" d="M362.2,231.488c7.891,3.76,11.514,17.675,11.514,17.675a13.124,13.124,0,0,1-6.726,4.385c.7-15.294-4.853-21.929-4.853-21.929Z" transform="translate(-307.079 -220.98)"/><path class="c" d="M366.071,218.207c-1.6-.259-3.251-.446-4.9-.571-.455-.039-.916-.067-1.376-.091-.585-.033-1.17-.062-1.755-.082-.249-.009-.5-.019-.753-.019-.11-.01-.225-.01-.336-.01-1.089-.029-2.167-.029-3.227-.014-.225,0-.451,0-.676.009-3.193.062-6.195.273-8.736.513-.106.01-.211.019-.312.034-1.342.129-2.546.268-3.572.4-.182.024-.355.048-.527.067-.235.033-.461.062-.671.091-.6.082-1.117.158-1.515.221-.058.009-.11.019-.158.024-.552.086-.849.139-.849.139l-4.651-2.076q1.373-.352,2.771-.647c.129-.024.254-.053.383-.082q.906-.18,1.812-.346l.681-.115.911-.144h.005c.273-.043.542-.086.815-.12,1.189-.173,2.373-.316,3.539-.436h0l.461-.043c3.188-.307,6.247-.431,8.98-.455.278,0,.556,0,.829,0,.661,0,1.3,0,1.918.014.124.005.249.005.374.005.657.014,1.28.029,1.875.052.9.034,1.721.072,2.46.116.115,0,.23.014.345.019h.005c.484.254.968.518,1.443.791.312.173.619.35.926.532.148.086.3.173.446.264l.441.269c.3.182.59.364.877.551s.58.374.863.566S365.788,218.011,366.071,218.207Z" transform="translate(-291.181 -211.974)"/><path class="c" d="M346.471,242.223c2.895,4.527,1.639,15.436,1.639,15.436-9.179-.033-12.867-5.145-12.867-5.145C341.267,244.356,346.471,242.223,346.471,242.223Z" transform="translate(-292.867 -226.654)"/><path class="c" d="M262.94,244.554A13.645,13.645,0,0,1,266.9,247a43.718,43.718,0,0,0-4.768,6.941C261.684,247.618,262.94,244.554,262.94,244.554Z" transform="translate(-254.176 -227.886)"/><path class="l" d="M304.63,392.267v6.473H293.454l-6.225-13.088v-.007a54.69,54.69,0,0,0,15.261,6.121C303.193,391.942,303.908,392.111,304.63,392.267Z" transform="translate(-267.491 -302.454)"/><path class="l" d="M408.127,398.5v7.032H396.951l-2.283-4.807A87.509,87.509,0,0,0,408.127,398.5Z" transform="translate(-324.274 -309.251)"/><circle class="c" cx="3.005" cy="3.005" r="3.005" transform="translate(29.606 41.395)"/><circle class="c" cx="3.005" cy="3.005" r="3.005" transform="translate(5.7 41.395)"/><path class="c" d="M410.687,413.419v3.825h-9.354l-1.821-3.825Z" transform="translate(-326.833 -317.133)"/><path class="c" d="M350.814,413.419v3.825h-9.354l-1.815-3.825Z" transform="translate(-295.193 -317.133)"/><path class="c" d="M267.01,249.742a53.528,53.528,0,0,1,7.455,8.034c-5.848,5.275-11.638,3.617-11.638,3.617a47.015,47.015,0,0,1-.586-4.71A43.718,43.718,0,0,1,267.01,249.742Z" transform="translate(-254.285 -230.628)"/><path class="l" d="M287.593,243.482a11.108,11.108,0,0,1-1.327,7.13,54.732,54.732,0,0,0-9.29-8.919c.872-.9,1.783-1.776,2.732-2.6A50.683,50.683,0,0,1,287.593,243.482Z" transform="translate(-262.072 -224.998)"/><path class="c" d="M449.892,413.419v3.825h-9.354l-1.815-3.825Z" transform="translate(-347.557 -317.133)"/><path class="l" d="M258.779,234.468c3.415-.794,7.676.449,11.312,2.05-.95.826-1.86,1.7-2.732,2.6-5.119-3.786-8.541-4.514-8.541-4.514Z" transform="translate(-252.455 -222.425)"/><path class="c" d="M311.609,413.419v3.825h-9.354l-1.821-3.825Z" transform="translate(-274.469 -317.133)"/><circle class="h" cx="0.756" cy="0.756" r="0.756" transform="translate(6.631 42.889)"/><circle class="h" cx="0.756" cy="0.756" r="0.756" transform="translate(30.525 42.889)"/><path class="m" d="M281.138,335.905c-3.476,3.577-8.314,5.265-13.2,5.691-5.452.475-11.752,0-16.479-2.992a12.258,12.258,0,0,1-6.036-9.839,10,10,0,0,1,1.1-5.744c4.968-9.469,19.7-9.9,28.7-7.5,4.4,1.17,8.256,3.711,9.412,8.348A12.9,12.9,0,0,1,281.138,335.905Z" transform="translate(-245.365 -264.743)"/><path class="c" d="M264.433,340.325a9.216,9.216,0,0,0-.924-2.378c-.61-1.1-2.232-.328-2.182.772l.01.222a1.355,1.355,0,0,0-.056.315,9.059,9.059,0,0,0,1.133,4.761.926.926,0,0,0,.255.3c.052.1.1.2.155.3a1.21,1.21,0,0,0,2.163-.45A9.088,9.088,0,0,0,264.433,340.325Z" transform="translate(-253.772 -276.964)"/><path class="c" d="M298.915,340.95a9.2,9.2,0,0,0,.215-2.542c-.066-1.254-1.861-1.276-2.3-.266l-.089.2a1.369,1.369,0,0,0-.189.258,9.058,9.058,0,0,0-1.075,4.774.937.937,0,0,0,.1.384c0,.111,0,.221.009.333a1.21,1.21,0,0,0,2.141.546A9.089,9.089,0,0,0,298.915,340.95Z" transform="translate(-271.848 -276.968)"/><g class="n" transform="translate(46.667 56.782)"><path class="h" d="M353.224,331.02a5.312,5.312,0,0,0-8.791,2.966c-.916,5.283,5.324,7.8,9.345,5.358C357.46,337.11,356.251,332.775,353.224,331.02Z" transform="translate(-344.343 -329.633)"/></g></g><g transform="translate(39.487)"><path class="f" d="M365.393,179.138c-.043.3-.1.609-.158.906a16.949,16.949,0,0,1-.47,1.74c-.053.158-.106.317-.168.47-.077.235-.168.47-.264.69a15.79,15.79,0,0,1-1.347,2.666c-.029.048-.062.1-.1.144-.235.374-.484.738-.743,1.083a17.656,17.656,0,0,1-1.424,1.659c-.455-.039-.916-.067-1.376-.091-.585-.033-1.17-.062-1.755-.082-.249-.009-.5-.019-.753-.019-.11-.01-.225-.01-.336-.01-1.089-.029-2.167-.029-3.227-.014-.225,0-.451,0-.676.009-3.193.062-6.195.273-8.736.513-.106.01-.211.019-.312.034-1.342.129-2.546.268-3.572.4-.182.024-.355.048-.527.067-.235.033-.461.062-.671.091-.6.082-1.117.158-1.515.221-.451-.384-.873-.782-1.276-1.2-.12-.13-.24-.259-.355-.389-.312-.34-.6-.69-.873-1.055a16.514,16.514,0,0,1-1.189-1.765c-.091-.153-.182-.306-.264-.465a16.313,16.313,0,0,1-.748-1.544c-.014-.048-.029-.076-.048-.124-.077-.182-.149-.374-.216-.551s-.139-.384-.206-.58c-.057-.163-.106-.326-.154-.489,0-.01,0-.015-.009-.024-.038-.144-.082-.278-.115-.427s-.091-.326-.124-.484a3.541,3.541,0,0,1-.11-.508,6.287,6.287,0,0,1-.134-.729c-.024-.13-.048-.259-.062-.393-.029-.173-.048-.345-.067-.522v-.01c-.058-.551-.1-1.1-.1-1.654,0-.211,0-.427.009-.638,0-.182,0-.359.019-.542a16.418,16.418,0,0,1,.422-2.963c.038-.178.086-.35.134-.528a15.5,15.5,0,0,1,.547-1.673c.076-.211.168-.427.249-.633.038-.086.072-.173.115-.254.067-.163.144-.326.225-.484a15.6,15.6,0,0,1,.877-1.592c.12-.187.24-.383.374-.561.082-.129.168-.254.254-.369.115-.167.23-.316.35-.47.009-.015.019-.024.029-.038.1-.125.2-.249.292-.37a.085.085,0,0,0,.034-.038.08.08,0,0,1,.019-.019,16.743,16.743,0,0,1,2.891-2.761q.216-.165.432-.316a17.035,17.035,0,0,1,3.174-1.765q.252-.108.5-.2a16.646,16.646,0,0,1,2.905-.844c.177-.038.36-.072.537-.1a16.715,16.715,0,0,1,3.246-.221c.177,0,.359,0,.542.019a17.137,17.137,0,0,1,3.529.575c.2.053.4.11.6.173.153.048.3.1.455.149.12.038.244.081.364.129.168.058.336.124.5.192l.35.144a.071.071,0,0,1,.029.009,1.727,1.727,0,0,1,.163.077h0c.067.029.134.058.2.091.124.058.249.115.374.177.269.134.522.273.782.413l.374.216a.109.109,0,0,1,.043.029q.165.093.331.2l.009,0a17.141,17.141,0,0,1,5.01,4.766c.149.216.293.431.437.657.278.441.537.911.772,1.362a.285.285,0,0,0,.019.043c.124.249.24.5.355.753s.221.513.322.767c.163.441.316.882.455,1.333.072.244.139.494.2.743A17.243,17.243,0,0,1,365.393,179.138Z" transform="translate(-330.225 -158.594)"/><path class="g" d="M377.283,160.583a15.972,15.972,0,0,1,3.029,1.147,16.821,16.821,0,0,0-3.043-1.144Z" transform="translate(-354.565 -159.265)"/><path class="g" d="M386.144,164.327l-.005.008-.008-.005c-.252-.157-.5-.3-.749-.445C385.636,164.021,385.892,164.17,386.144,164.327Z" transform="translate(-358.853 -161.01)"/><g transform="translate(0.086 0.149)"><path class="h" d="M363.906,177.619a15.185,15.185,0,0,1-.278,2.737c-.034.173-.072.35-.11.528a14.574,14.574,0,0,1-.609,1.985q-.093.252-.2.5a15.417,15.417,0,0,1-1.122,2.158c-.163.264-.336.522-.518.772-.1.149-.211.3-.321.441-.067.086-.13.168-.2.249a15.35,15.35,0,0,1-2.306,2.325c-.139.115-.283.225-.427.331-.067.048-.13.1-.192.144-1.089-.029-2.167-.029-3.227-.014-.225,0-.451,0-.676.009-3.193.062-6.195.273-8.736.513-.106.01-.211.019-.312.034-1.342.129-2.546.268-3.572.4a4.127,4.127,0,0,1-.364-.211c-.072-.038-.139-.082-.211-.124l-.245-.158a14.656,14.656,0,0,1-1.923-1.481c-.134-.115-.264-.24-.393-.364-.091-.086-.182-.177-.269-.269a15.143,15.143,0,0,1-1.764-2.167c-.1-.149-.2-.3-.288-.451a15.226,15.226,0,0,1-1.2-2.364c-.067-.168-.129-.336-.192-.508a16.342,16.342,0,0,1-.642-2.321c-.029-.178-.058-.35-.086-.528a15.1,15.1,0,0,1-.182-2.129q-.007-.274,0-.546a15.058,15.058,0,0,1,.35-2.954c.038-.177.081-.35.124-.527a15.255,15.255,0,0,1,.839-2.4c.072-.163.149-.326.225-.489.235-.475.494-.945.781-1.405a15.278,15.278,0,0,1,1.036-1.457c.11-.144.225-.283.35-.422a14.833,14.833,0,0,1,2.709-2.474q.216-.158.446-.3a14.915,14.915,0,0,1,2.892-1.5c.168-.063.335-.125.508-.182a14.755,14.755,0,0,1,2.6-.657c.178-.029.355-.053.537-.077a15.324,15.324,0,0,1,3-.082c.178.015.355.029.537.053a15.129,15.129,0,0,1,3.682.873c.168.062.331.125.5.2a14.885,14.885,0,0,1,2.263,1.165c.292.182.58.374.853.576.144.1.288.206.427.316h0a15.508,15.508,0,0,1,2.307,2.215c.115.139.23.278.34.417a15,15,0,0,1,1.716,2.747c.082.163.154.326.23.489a15.565,15.565,0,0,1,.844,2.44c.043.173.082.345.125.523a15.324,15.324,0,0,1,.335,2.886C363.911,177.26,363.911,177.442,363.906,177.619Z" transform="translate(-331.432 -160.24)"/><path class="i" d="M358.175,165.442a15.509,15.509,0,0,0-2.306-2.215h0c-.139-.11-.283-.216-.427-.316-.3.45-.609.9-.911,1.352a.208.208,0,0,0,.009.269.113.113,0,0,0,.033.033l-.038.053a13.12,13.12,0,0,1,2.445,2.388l.178-.144a.184.184,0,0,1-.034-.077.248.248,0,0,1-.014-.082.28.28,0,0,1,.077-.191C357.513,166.152,357.844,165.8,358.175,165.442Zm-13.8-3.467a.3.3,0,0,1-.148-.009.247.247,0,0,1-.077-.043.232.232,0,0,1-.082-.187v-1.529a14.754,14.754,0,0,0-2.6.657c.163.523.321,1.041.479,1.563a.357.357,0,0,1,.015.1.147.147,0,0,1-.015.067.482.482,0,0,1-.038.072.335.335,0,0,1-.062.053c-.009.009-.024.014-.033.024a.258.258,0,0,1-.379-.149l-.474-1.548a14.914,14.914,0,0,0-2.892,1.5l.883,1.1a.245.245,0,0,1,.058.149.186.186,0,0,1-.015.072.265.265,0,0,1-.038.062.3.3,0,0,1-.13.091l.154.22.043-.029a13.4,13.4,0,0,1,2.767-1.424l.034-.014a13.608,13.608,0,0,1,2.57-.671Zm18.944,9.805c-.038-.177-.077-.35-.12-.523a17.176,17.176,0,0,0-1.012-2.977c-.072-.163-.149-.326-.225-.489a17.229,17.229,0,0,0-5.1-6.214l0,0c-.058-.043-.12-.086-.182-.129a0,0,0,0,0-.005,0c-.167-.125-.335-.249-.513-.364a.109.109,0,0,0-.043-.029c-.01-.01-.019-.015-.029-.024a.062.062,0,0,1-.019-.015c-.153-.1-.307-.2-.465-.3a17.1,17.1,0,0,0-7.134-2.493c-.178-.024-.355-.043-.532-.053a16.854,16.854,0,0,0-3.337.048c-.177.019-.36.038-.537.067a16.964,16.964,0,0,0-3.155.762c-.168.053-.336.115-.5.182h0a17.1,17.1,0,0,0-7.183,5.13c-.11.139-.225.283-.336.427-.345.446-.671.916-.978,1.4a16.656,16.656,0,0,0-.992,1.836c-.082.163-.154.326-.221.489a16.954,16.954,0,0,0-1.386,6.377c0,.139,0,.273,0,.4a17.312,17.312,0,0,0,1.021,5.845c.029.082.062.163.091.245l0,0a17.054,17.054,0,0,0,2.954,5.03,16.064,16.064,0,0,0,1.309,1.381A15.526,15.526,0,0,0,336.1,189c.048,0,.1-.015.158-.024.4-.062.911-.139,1.515-.221.211-.029.436-.058.671-.091.173-.019.345-.043.527-.067,1.026-.13,2.23-.269,3.572-.4.1-.015.206-.024.312-.034a13.319,13.319,0,0,1-3.447-1.529,13.5,13.5,0,0,1-1.429-1.026,13.357,13.357,0,0,1-2.824-17.395,12.941,12.941,0,0,1,1.227-1.664,13.148,13.148,0,0,1,2.6-2.311l.043-.029a13.4,13.4,0,0,1,2.767-1.424l.034-.014a13.608,13.608,0,0,1,2.57-.671,13.109,13.109,0,0,1,3.126-.13c.019,0,.034,0,.053,0s.033.005.053.005a13.057,13.057,0,0,1,3.514.781c.12.043.235.086.355.134a13.322,13.322,0,0,1,2.081,1.059c.331.206.652.427.959.662a13.266,13.266,0,0,1,4.071,5.035,13.344,13.344,0,0,1-7.015,18c.225,0,.451-.009.676-.009,1.059-.015,2.138-.015,3.227.014.11,0,.225,0,.336.01.249,0,.5.009.753.019.585.019,1.17.048,1.755.082a16.334,16.334,0,0,0,1.875-2.1c.057-.072.11-.139.163-.215.106-.144.211-.293.312-.441l0,0c.134-.2.264-.393.388-.595a17,17,0,0,0,1.376-2.714c.072-.168.134-.336.2-.508a16.43,16.43,0,0,0,.652-2.258c.038-.173.072-.35.105-.527a17.061,17.061,0,0,0,.273-2.868c0-.182,0-.359,0-.537A17.228,17.228,0,0,0,363.315,171.781Z" transform="translate(-329.297 -158.103)"/></g><g transform="translate(8.196 7.068)"><path class="i" d="M358.06,188.589a5.145,5.145,0,0,1-5.708,2.246l-1.43,2.29-3.417-2.134,1.3-2.079a7.326,7.326,0,0,1-1.936-2.563l-.369-.9,3.339-2.644.678,1.5a4.939,4.939,0,0,0,1.809,2.039c.574.359,1.387.563,1.768-.048.154-.247.44-.705-.715-2.286-1.457-1.971-2.742-4.331-1.166-6.853a4.941,4.941,0,0,1,5.468-2.153l1.394-2.232,3.4,2.12-1.258,2.014a7.165,7.165,0,0,1,1.56,1.985l.5.96-3.358,2.561-.717-1.327a4.333,4.333,0,0,0-1.607-1.731c-.364-.227-1.039-.537-1.361-.021-.15.24-.313.5.992,2.327C358.4,183.316,359.785,185.827,358.06,188.589Z" transform="translate(-346.498 -172.779)"/></g><path class="f" d="M348.815,219.308c-.24.413-.479.825-.715,1.237-.058.1-.11.187-.163.278-.235.033-.461.062-.671.091.13-.215.254-.436.379-.652.225-.388.446-.777.671-1.165C348.489,218.8,348.987,219.011,348.815,219.308Z" transform="translate(-338.708 -190.115)"/><path class="f" d="M385.2,219.237c-.249-.009-.5-.019-.753-.019-.048-.053-.091-.1-.144-.154-.259-.283-.523-.566-.786-.849-.235-.254.2-.57.436-.321.259.278.518.561.777.839C384.882,218.9,385.04,219.07,385.2,219.237Z" transform="translate(-357.831 -189.507)"/><path class="f" d="M392.106,213.523l-3.274-1.57c-.313-.15-.523.345-.212.495l3.273,1.57C392.207,214.168,392.419,213.672,392.106,213.523Z" transform="translate(-360.484 -186.4)"/><path class="f" d="M396.6,206.3l-3.267-.793c-.336-.081-.407.453-.072.534l3.266.792C396.862,206.917,396.933,206.383,396.6,206.3Z" transform="translate(-362.901 -183.005)"/><path class="f" d="M383.232,168.234l1.831-2.707c.194-.287-.287-.53-.479-.246l-1.831,2.707C382.56,168.274,383.04,168.517,383.232,168.234Z" transform="translate(-357.44 -161.681)"/><path class="f" d="M375.58,163.944c-.14.315.338.563.479.246l1.336-3.011c.14-.315-.338-.563-.479-.246Z" transform="translate(-353.659 -159.372)"/><path class="f" d="M368.169,158l-.58,3.3c-.059.34.467.453.527.11q.29-1.652.579-3.3C368.755,157.765,368.229,157.653,368.169,158Z" transform="translate(-349.446 -157.788)"/><path class="f" d="M360.608,158.11q0,1.743.006,3.484c0,.347.538.317.537-.029q0-1.743-.006-3.484C361.145,157.735,360.608,157.764,360.608,158.11Z" transform="translate(-345.759 -157.813)"/><path class="f" d="M352.818,160.04l1.04,3.393a.269.269,0,0,0,.513-.164l-1.04-3.394A.269.269,0,0,0,352.818,160.04Z" transform="translate(-341.635 -158.796)"/><path class="f" d="M344.745,165.051l1.883,2.344c.215.268.671-.019.454-.289l-1.883-2.344C344.984,164.494,344.528,164.781,344.745,165.051Z" transform="translate(-337.345 -161.417)"/><path class="f" d="M336.816,171.741l3.154,1.8c.3.172.546-.307.246-.479l-3.155-1.8C336.761,171.09,336.516,171.569,336.816,171.741Z" transform="translate(-333.113 -164.89)"/><path class="f" d="M331.784,179.495l3.2,1.021c.329.105.438-.422.11-.527l-3.2-1.022C331.565,178.863,331.457,179.39,331.784,179.495Z" transform="translate(-330.421 -168.974)"/><path class="f" d="M394.751,201.056l3.253.315c.344.033.328-.5-.013-.538l-3.253-.315C394.395,200.485,394.41,201.023,394.751,201.056Z" transform="translate(-363.665 -180.371)"/><path class="f" d="M399.378,193.864l-3.354-.1c-.345-.01-.38.528-.033.537l3.354.1C399.69,194.411,399.725,193.874,399.378,193.864Z" transform="translate(-364.331 -176.804)"/><path class="f" d="M397.971,185.866l-3.447.51c-.343.051-.236.579.107.528l3.447-.51C398.42,186.343,398.313,185.815,397.971,185.866Z" transform="translate(-363.574 -172.626)"/><path class="f" d="M395.2,178.437l-3.208,1.52a.269.269,0,0,0,.237.483l3.207-1.52A.269.269,0,0,0,395.2,178.437Z" transform="translate(-362.266 -168.686)"/><path class="f" d="M390.4,171.172l-2.047,2.2c-.234.251.116.661.352.407l2.047-2.2C390.986,171.328,390.636,170.918,390.4,171.172Z" transform="translate(-360.382 -164.819)"/><path class="f" d="M334.045,186.508l-2.678-.3a.269.269,0,0,0-.073.533l2.678.3A.269.269,0,0,0,334.045,186.508Z" transform="translate(-330.148 -172.806)"/><path class="f" d="M332.373,193.83l-2.96-.278c-.343-.033-.419.5-.072.533l2.96.278C332.644,194.395,332.719,193.862,332.373,193.83Z" transform="translate(-329.115 -176.689)"/><path class="f" d="M333.093,199.371l-2.84.185c-.346.023-.278.556.067.534l2.839-.185C333.506,199.883,333.439,199.349,333.093,199.371Z" transform="translate(-329.596 -179.765)"/><path class="f" d="M334.54,204.943l-2.867.69c-.333.08-.27.615.067.534l2.867-.69C334.94,205.4,334.878,204.862,334.54,204.943Z" transform="translate(-330.351 -182.705)"/><path class="f" d="M337.472,210.454l-2.322,1.4c-.3.179.026.61.32.432l2.322-1.4C338.089,210.707,337.766,210.277,337.472,210.454Z" transform="translate(-332.242 -185.6)"/><path class="f" d="M342.676,215.9l-2.11,1.955c-.252.233.067.668.321.432L343,216.332C343.248,216.1,342.93,215.665,342.676,215.9Z" transform="translate(-335.118 -188.465)"/></g></g><g transform="translate(47.442 19.743)"><g class="o" transform="translate(0 0)"><g transform="translate(12.065 0.043)"><path class="f" d="M296.188,97.2l2.391.3c5.05.634,8.411,8.2,7.585,17.39l-2.391-.3C304.6,105.4,301.237,97.837,296.188,97.2Z" transform="translate(-296.188 -97.203)"/></g><g transform="translate(7.71 17.433)"><path class="f" d="M289.342,151.548l-2.391-.3a5.531,5.531,0,0,0,.622.043c5.392.065,10.459-7.641,11.318-17.2l2.391.3c-.859,9.563-5.926,17.27-11.318,17.2A5.429,5.429,0,0,1,289.342,151.548Z" transform="translate(-286.951 -134.087)"/></g><path class="i" d="M290.249,114.545c-.859,9.563-5.927,17.269-11.318,17.2s-9.066-7.879-8.207-17.441,5.926-17.261,11.318-17.2S291.108,104.982,290.249,114.545Z" transform="translate(-270.599 -97.112)"/></g><g transform="translate(1.169 2.988)"><path class="h" d="M289.426,117.952c-.714,7.955-4.93,14.367-9.416,14.312s-7.542-6.554-6.827-14.509,4.929-14.36,9.415-14.305S290.141,110,289.426,117.952Z" transform="translate(-273.079 -103.449)"/></g><path class="i" d="M300.107,165.352l2.034.309c.361.055.513-.5.149-.554l-2.034-.309C299.895,164.743,299.742,165.3,300.107,165.352Z" transform="translate(-286.084 -132.883)"/><path class="i" d="M305.578,158.175l1.755.443a.287.287,0,0,0,.149-.554l-1.756-.443A.287.287,0,0,0,305.578,158.175Z" transform="translate(-288.977 -129.087)"/><path class="i" d="M308.607,152l2,.413c.36.074.511-.479.148-.554l-2-.413C308.4,151.369,308.245,151.922,308.607,152Z" transform="translate(-290.577 -125.823)"/><path class="i" d="M311.805,144.643l1.447.334c.359.083.509-.471.148-.554l-1.446-.334C311.6,144.007,311.445,144.56,311.805,144.643Z" transform="translate(-292.268 -121.936)"/><path class="i" d="M311.647,136.364l1.931.6c.353.11.5-.444.148-.554l-1.93-.6C311.443,135.7,311.3,136.254,311.647,136.364Z" transform="translate(-292.187 -117.557)"/><path class="i" d="M311.971,129.85l1.926.616c.352.113.5-.441.148-.554l-1.926-.616C311.768,129.183,311.62,129.737,311.971,129.85Z" transform="translate(-292.359 -114.114)"/><path class="i" d="M313.091,124.186l1.793.331c.361.067.512-.486.149-.554l-1.794-.331C312.879,123.566,312.728,124.119,313.091,124.186Z" transform="translate(-292.946 -111.126)"/><path class="i" d="M312.528,118.343l1.691.131c.369.028.37-.545,0-.573l-1.692-.131C312.163,117.742,312.162,118.315,312.528,118.343Z" transform="translate(-292.614 -108.03)"/><path class="i" d="M310.788,112.446l1.8-.006a.287.287,0,0,0,0-.573l-1.8.006A.287.287,0,0,0,310.788,112.446Z" transform="translate(-291.694 -104.91)"/><path class="i" d="M308.459,107.126l1.866.1c.37.02.371-.554,0-.573l-1.866-.1C308.093,106.533,308.091,107.106,308.459,107.126Z" transform="translate(-290.463 -102.101)"/><path class="i" d="M305.1,101.722l1.625-.008a.287.287,0,0,0,0-.573l-1.625.008A.287.287,0,0,0,305.1,101.722Z" transform="translate(-288.686 -99.241)"/></g><g transform="translate(159.66 5.637)"><path class="f" d="M528.775,100.525l-.013.015c-.307.013-.612.017-.927.01s-.628-.022-.941-.047c-.221-.017-.451-.035-.67-.071-.12-.009-.239-.028-.367-.048q-.577-.074-1.15-.2a16.583,16.583,0,0,1-7.081-3.439l-.1-.082c-.148-.123-.295-.255-.433-.377-.268-.243-.535-.5-.783-.756-.1-.11-.206-.211-.307-.33s-.222-.24-.323-.359a4.32,4.32,0,0,1-.321-.387,6.508,6.508,0,0,1-.438-.562c-.185-.237-.351-.481-.517-.726-.3-.449-.576-.907-.826-1.38a16.278,16.278,0,0,1-1.855-5.935c-.029-.215-.049-.439-.069-.653a16.45,16.45,0,0,1,.006-2.537c.017-.212.034-.433.069-.643.012-.147.033-.294.053-.431.025-.192.057-.375.09-.558l.095-.493a.085.085,0,0,0,.013-.045A16.607,16.607,0,0,1,524.7,67.752a16.184,16.184,0,0,1,3.113-.374c.287-.005.565,0,.851,0s.554.025.839.048h.009a16.574,16.574,0,0,1,6.41,1.849c.222.119.444.239.666.368.433.256.865.54,1.268.822a.129.129,0,0,0,.035.031c.219.156.428.321.637.486s.418.339.617.512q.506.457.981.939c.171.181.342.361.5.549a16.642,16.642,0,0,1,3.292,5.677c.1.277.187.562.266.845a17.161,17.161,0,0,1,.375,1.7c.025.159.049.319.064.478.037.234.064.477.083.71a15.541,15.541,0,0,1,.032,2.883A16.592,16.592,0,0,1,528.775,100.525Z" transform="translate(-510.196 -67.289)"/><path class="g" d="M539.372,67.747a15.414,15.414,0,0,1,3.1-.366,16.183,16.183,0,0,0-3.113.374Z" transform="translate(-524.862 -67.292)"/><path class="g" d="M548.62,67.425v.009h-.009c-.285-.023-.562-.035-.839-.048C548.049,67.389,548.334,67.4,548.62,67.425Z" transform="translate(-529.306 -67.295)"/><g transform="translate(0.393 0)"><circle class="h" cx="14.745" cy="14.745" r="14.745" transform="translate(1.847 1.847)"/><path class="i" d="M524.726,100.324a16.591,16.591,0,1,1,17.847-15.233A16.61,16.61,0,0,1,524.726,100.324Zm2.323-29.4A12.9,12.9,0,1,0,538.892,84.8,12.914,12.914,0,0,0,527.05,70.925Z" transform="translate(-509.441 -67.192)"/></g><g transform="translate(10.278 6.243)"><path class="i" d="M541.7,94.417a4.963,4.963,0,0,1-3.886,4.463l-.205,2.6-3.875-.306.187-2.357a7.068,7.068,0,0,1-2.8-1.333l-.715-.6,1.682-3.749,1.249.986a4.761,4.761,0,0,0,2.455.941c.652.051,1.438-.135,1.492-.827.022-.281.063-.8-1.629-1.638-2.124-1.039-4.275-2.486-4.048-5.347a4.767,4.767,0,0,1,3.722-4.276l.2-2.531,3.85.3-.181,2.283a6.892,6.892,0,0,1,2.218,1l.857.6-1.735,3.687-1.2-.817a4.179,4.179,0,0,0-2.146-.767c-.412-.033-1.128,0-1.174.587-.022.272-.045.569,1.885,1.551C539.647,89.751,541.948,91.285,541.7,94.417Z" transform="translate(-530.407 -80.434)"/></g><path class="f" d="M541.541,130.449l-.14,3.15c-.015.333.5.291.518-.039q.07-1.575.14-3.15C542.073,130.077,541.555,130.119,541.541,130.449Z" transform="translate(-525.939 -100.482)"/><path class="f" d="M549.987,129.808c-.044-.33-.562-.293-.518.039l.42,3.15c.044.33.562.293.518-.039Q550.2,131.383,549.987,129.808Z" transform="translate(-530.202 -100.164)"/><path class="f" d="M558.913,130.7l-1.19-3.01c-.123-.31-.612-.137-.489.175l1.19,3.01C558.547,131.182,559.036,131.009,558.913,130.7Z" transform="translate(-534.297 -99.079)"/><path class="f" d="M564.977,126.615l-1.763-2.862c-.175-.285-.6.01-.427.3l1.762,2.862C564.724,127.195,565.152,126.9,564.977,126.615Z" transform="translate(-537.22 -97.024)"/><path class="f" d="M569.5,121.765l-2.567-2.266c-.251-.222-.589.173-.339.394l2.567,2.266C569.415,122.38,569.753,121.987,569.5,121.765Z" transform="translate(-539.209 -94.802)"/><path class="f" d="M573.417,115.05l-2.731-.978c-.312-.112-.542.354-.228.467l2.731.977C573.5,115.628,573.731,115.162,573.417,115.05Z" transform="translate(-541.217 -91.96)"/><path class="f" d="M575.721,106.6l-3.5.113c-.334.011-.294.529.039.518l3.5-.113C576.094,107.106,576.055,106.588,575.721,106.6Z" transform="translate(-542.105 -88.019)"/><path class="f" d="M576.339,97.686l-3.149.775c-.324.08-.147.568.175.489l3.149-.776C576.838,98.095,576.661,97.607,576.339,97.686Z" transform="translate(-542.65 -83.304)"/><path class="f" d="M549.321,70.972q.181-1.567.363-3.133c.038-.331-.481-.326-.52,0l-.362,3.133C548.764,71.305,549.283,71.3,549.321,70.972Z" transform="translate(-529.85 -67.404)"/><path class="f" d="M540.786,70.979c.021.332.54.331.519,0l-.2-3.172c-.02-.332-.54-.332-.519,0Q540.689,69.393,540.786,70.979Z" transform="translate(-525.511 -67.384)"/><path class="f" d="M531.066,69.554l.975,3.086c.1.317.6.18.5-.14l-.975-3.086C531.466,69.1,530.965,69.234,531.066,69.554Z" transform="translate(-520.47 -68.271)"/><path class="f" d="M524.1,73.29l1.556,2.98c.155.3.6.032.447-.264l-1.556-2.98C524.39,72.73,523.943,72.994,524.1,73.29Z" transform="translate(-516.777 -70.207)"/><path class="f" d="M518.288,78.411l2.4,2.442c.235.239.6-.13.365-.369l-2.4-2.442C518.419,77.8,518.054,78.173,518.288,78.411Z" transform="translate(-513.684 -72.886)"/><path class="f" d="M513.606,86.288l2.655,1.169c.3.133.565-.315.26-.45l-2.654-1.168C513.564,85.705,513.3,86.153,513.606,86.288Z" transform="translate(-511.178 -77.034)"/><path class="f" d="M509.8,95.567l3.5.135c.334.013.331-.506,0-.519l-3.5-.135C509.467,95.035,509.471,95.554,509.8,95.567Z" transform="translate(-509.107 -81.914)"/><path class="f" d="M508.934,103.836l3.2-.551c.329-.057.187-.556-.14-.5l-3.2.551C508.466,103.393,508.607,103.893,508.934,103.836Z" transform="translate(-508.608 -86.001)"/><path class="f" d="M572.416,93.566l2.925-1.178c.309-.125.057-.579-.25-.455l-2.925,1.178C571.857,93.235,572.109,93.689,572.416,93.566Z" transform="translate(-542.125 -80.257)"/><path class="f" d="M573.194,85.068l-2.913,1.411c-.3.145-.091.621.211.475l2.913-1.411C573.706,85.4,573.5,84.922,573.194,85.068Z" transform="translate(-541.126 -76.625)"/><path class="f" d="M568.672,78.719l-2.723,1.971c-.271.2.056.6.326.4L569,79.123C569.269,78.927,568.943,78.523,568.672,78.719Z" transform="translate(-538.86 -73.257)"/><path class="f" d="M563.5,73.712l-2.069,2.728c-.2.266.216.574.418.308l2.069-2.728A.26.26,0,0,0,563.5,73.712Z" transform="translate(-536.497 -70.584)"/><path class="f" d="M556.51,70.222l-.772,2.8c-.088.319.394.514.482.192l.772-2.8C557.08,70.095,556.6,69.9,556.51,70.222Z" transform="translate(-533.511 -68.706)"/><path class="f" d="M514,108.382l-2.427.933c-.311.12-.138.61.175.489l2.427-.933A.26.26,0,0,0,514,108.382Z" transform="translate(-510.089 -88.952)"/><path class="f" d="M515.829,115.227l-2.658,1.079c-.308.125-.135.615.175.489l2.657-1.08C516.313,115.59,516.14,115.1,515.829,115.227Z" transform="translate(-510.934 -92.568)"/><path class="f" d="M518.988,119.455l-2.348,1.422c-.286.173.01.6.3.427l2.349-1.422C519.569,119.709,519.273,119.282,518.988,119.455Z" transform="translate(-512.791 -94.793)"/><path class="f" d="M522.978,123.555l-2.147,1.867c-.249.216.042.647.295.427l2.147-1.867C523.522,123.765,523.23,123.335,522.978,123.555Z" transform="translate(-515.018 -96.949)"/><path class="f" d="M528.278,127.245l-1.364,2.233c-.174.286.294.511.467.228l1.364-2.234C528.919,127.187,528.45,126.962,528.278,127.245Z" transform="translate(-518.263 -98.862)"/><path class="f" d="M535.443,129.712l-.935,2.612c-.112.312.354.542.467.227l.935-2.612C536.021,129.627,535.555,129.4,535.443,129.712Z" transform="translate(-522.287 -100.155)"/></g><path class="c" d="M453.027,56.178a36.616,36.616,0,0,0-25.331,4.53c-6.225,3.7-13.059,10.309-14.32,17.892-.216.019-.432.039-.645.063-10.263,1.177-17.75,8.777-22.515,17.434q-.3-1.987-.6-3.973c-.14-.921-1.519-.589-1.4.319.267,2.093,1.018,6.694,1.018,6.694l.016.1c.119.78,1.371.041,1.371.041l6.317-2.512c.863-.343.184-1.6-.669-1.274l-5.153,1.965c3.19-6.029,7.56-11.623,13.691-14.84a23.208,23.208,0,0,1,8.407-2.565,14.519,14.519,0,0,0,0,2.08,11.207,11.207,0,0,0,5.709,9.074c2.815,1.447,6.9,1.314,8.837-1.531,2.09-3.071-.054-6.771-2.746-8.558a17.753,17.753,0,0,0-10.094-2.6c.071-.362.152-.723.252-1.077,1.984-7.022,8.2-12.783,14.445-16.166a35.031,35.031,0,0,1,22.974-3.729C453.481,57.713,453.935,56.347,453.027,56.178ZM415.909,79.957c3.729.125,9.231,1.368,10.823,5.221a3.839,3.839,0,0,1-2.845,5.382,6.745,6.745,0,0,1-5.578-1.434,10.235,10.235,0,0,1-3.6-9.166C415.106,79.95,415.508,79.943,415.909,79.957Z" transform="translate(-285.311 -55.413)"/></g></g></svg>