<svg xmlns="http://www.w3.org/2000/svg" xmlns:xlink="http://www.w3.org/1999/xlink" width="279.744" height="225.522" viewBox="0 0 279.744 225.522"><defs><style>.a,.ad,.ah,.aj,.e,.i,.k,.m,.s,.t,.u,.w{fill:none;}.b{clip-path:url(#a);}.c,.g,.j,.p{fill:#fff;}.d,.o{fill:#282849;}.e{stroke:#be1e2d;stroke-width:7.694px;}.e,.j,.k,.m{stroke-linecap:round;stroke-linejoin:round;}.f{fill:url(#b);}.g{opacity:0.29;}.g,.p{mix-blend-mode:overlay;isolation:isolate;}.h{fill:url(#c);}.ah,.i,.j,.k,.m,.s,.t{stroke:#282849;}.ad,.ah,.aj,.i,.s,.t,.u{stroke-miterlimit:10;}.i,.j,.k,.m,.s,.t{stroke-width:1.5px;}.i,.j,.k,.l,.o{opacity:0.6;}.n{fill:url(#d);}.p{opacity:0.54;}.q{fill:#00838f;}.r{fill:url(#e);}.ad,.aj,.t,.u{stroke-linecap:square;}.aj,.u{stroke:#4792ff;}.u{stroke-width:2px;}.v{fill:url(#f);}.ad,.w{stroke:#fff;}.w{stroke-width:3px;}.x{clip-path:url(#g);}.y{fill:#37474f;}.z{fill:url(#i);}.aa{fill:url(#m);}.ab{clip-path:url(#n);}.ac,.ag{fill:#4792ff;}.ad{stroke-width:5.785px;}.ae{fill:#4b4b65;}.af{fill:url(#p);}.ag{opacity:0.4;}.ai{clip-path:url(#q);}.aj{stroke-width:2.139px;}.ak{fill:url(#r);}</style><clipPath id="a"><ellipse class="a" cx="32.132" cy="38.779" rx="32.132" ry="38.779" transform="translate(0 29.628) rotate(-27.454)"/></clipPath><linearGradient id="b" x1="0.5" x2="0.5" y2="1" gradientUnits="objectBoundingBox"><stop offset="0" stop-color="#dff052"/><stop offset="1" stop-color="#bad000"/></linearGradient><linearGradient id="c" x1="0.069" y1="0.781" x2="0.83" y2="0.318" gradientUnits="objectBoundingBox"><stop offset="0" stop-color="#6f503a"/><stop offset="1" stop-color="#ba9e7a"/></linearGradient><linearGradient id="d" x1="0.549" y1="0.342" x2="0.295" y2="0.371" gradientUnits="objectBoundingBox"><stop offset="0" stop-color="#ebe0cf"/><stop offset="1" stop-color="#ddc7ab"/></linearGradient><linearGradient id="e" x1="0.1" y1="0.765" x2="0.975" y2="0.357" gradientUnits="objectBoundingBox"><stop offset="0" stop-color="#d9d9d9"/><stop offset="0.621" stop-color="#fff"/><stop offset="1" stop-color="#fff"/></linearGradient><linearGradient id="f" x1="0.5" x2="0.5" y2="1" gradientUnits="objectBoundingBox"><stop offset="0" stop-color="#d4ee00"/><stop offset="1" stop-color="#becf00"/></linearGradient><clipPath id="g"><ellipse class="a" cx="33.846" cy="25.642" rx="33.846" ry="25.642" transform="translate(0 63.78) rotate(-70.426)"/></clipPath><linearGradient id="i" x1="0.5" x2="0.5" y2="1" gradientUnits="objectBoundingBox"><stop offset="0" stop-color="#4792ff"/><stop offset="1" stop-color="#5574e1"/></linearGradient><linearGradient id="m" x1="0.439" y1="0.262" x2="0.5" y2="0.295" xlink:href="#d"/><clipPath id="n"><path class="a" d="M536.978,298.066c5.809-11.382,10.774-16.657,14.1-19.1a10.8,10.8,0,0,1,6.522-2.086l31.057.351a3.841,3.841,0,0,1,3.365,5.586l-.836,1.638a10.4,10.4,0,0,1-10.127,5.635c-7.6-.637-19.4-1.357-24.631-1.152-7.868.31-13.364,9.727-13.364,9.727L485.613,411.231a2.847,2.847,0,0,1-3.83,1.242h0a2.847,2.847,0,0,1-1.242-3.83Z" transform="translate(-480.229 -276.878)"/></clipPath><linearGradient id="p" x1="0.048" y1="0.544" x2="0.545" y2="0.539" gradientUnits="objectBoundingBox"><stop offset="0" stop-color="#e5e5e5"/><stop offset="1" stop-color="#fff"/></linearGradient><clipPath id="q"><path class="a" d="M496.059,211.288h0a4.986,4.986,0,0,1-6.993-.913l-3.039-3.953a22.087,22.087,0,0,0,4.43-2.419,21.5,21.5,0,0,0,3.475-3.661l3.039,3.953A4.986,4.986,0,0,1,496.059,211.288Z" transform="translate(-486.027 -200.343)"/></clipPath><linearGradient id="r" x1="0.189" y1="0.515" x2="0.586" y2="0.586" xlink:href="#p"/></defs><g transform="translate(-32.372 -92.277)"><g transform="matrix(0.996, -0.087, 0.087, 0.996, 32.372, 144.629)"><g transform="translate(0 0)"><g transform="translate(0)"><g class="b"><g transform="translate(-5.708 -2.874)"><g transform="translate(2.897)"><g transform="translate(0 31.504)"><path class="c" d="M24.527,257.857l1.751,3.058c1.089,1.958,2.683,4.736,4.528,8.105s3.991,7.3,6.251,11.537l3.469,6.537,3.545,6.768,3.5,6.791,3.356,6.6c2.167,4.284,4.162,8.3,5.847,11.748s3.052,6.348,4.028,8.365l1.494,3.19L60.544,327.5c-1.089-1.958-2.685-4.735-4.529-8.1s-3.992-7.3-6.251-11.538L46.3,301.316l-3.545-6.768-3.5-6.792-3.355-6.6c-2.166-4.284-4.161-8.3-5.846-11.748s-3.053-6.348-4.029-8.365Z" transform="translate(-24.527 -257.857)"/></g><g transform="translate(6.738 28.004)"><path class="c" d="M40.305,249.66l1.687,3.09,4.4,8.172,6.15,11.59,6.978,13.324,6.891,13.369L72.358,310.9l4.157,8.3,1.559,3.157-1.687-3.09-4.4-8.172L65.837,299.5,58.86,286.179,51.969,272.81l-5.948-11.695-4.158-8.3Z" transform="translate(-40.305 -249.66)"/></g><g transform="translate(13.475 24.503)"><path class="c" d="M56.082,241.463l1.751,3.057c1.089,1.958,2.683,4.737,4.528,8.105s3.991,7.3,6.251,11.537l3.469,6.537,3.545,6.768,3.5,6.791,3.356,6.6c2.167,4.284,4.161,8.3,5.846,11.748s3.052,6.348,4.028,8.365l1.495,3.19L92.1,311.1c-1.089-1.958-2.685-4.736-4.529-8.105s-3.992-7.3-6.251-11.537l-3.468-6.538-3.544-6.768-3.5-6.791-3.355-6.6c-2.166-4.284-4.161-8.3-5.846-11.748s-3.053-6.347-4.029-8.365Z" transform="translate(-56.082 -241.463)"/></g><g transform="translate(20.213 21.003)"><path class="c" d="M71.86,233.266l1.751,3.057c1.089,1.958,2.683,4.737,4.528,8.105s3.991,7.3,6.251,11.537l3.469,6.537,3.545,6.768,3.5,6.792,3.356,6.6c2.167,4.284,4.162,8.3,5.847,11.748s3.052,6.348,4.028,8.365l1.494,3.19-1.751-3.057c-1.089-1.958-2.685-4.736-4.529-8.1s-3.992-7.3-6.251-11.538l-3.468-6.538-3.545-6.768-3.5-6.792-3.355-6.6c-2.166-4.284-4.161-8.3-5.846-11.748s-3.053-6.348-4.029-8.365Z" transform="translate(-71.86 -233.266)"/></g><g transform="translate(26.95 17.502)"><path class="c" d="M87.638,225.068l1.75,3.058c1.089,1.958,2.683,4.736,4.528,8.105s3.991,7.3,6.251,11.537l3.469,6.537,3.546,6.768,3.5,6.791,3.356,6.6c2.167,4.283,4.161,8.3,5.847,11.747s3.052,6.348,4.028,8.365l1.495,3.19-1.751-3.057c-1.089-1.958-2.685-4.735-4.529-8.1s-3.992-7.3-6.251-11.538l-3.468-6.537-3.545-6.768-3.5-6.792-3.355-6.6c-2.166-4.284-4.161-8.3-5.846-11.748s-3.053-6.348-4.029-8.365Z" transform="translate(-87.638 -225.068)"/></g><g transform="translate(33.687 14.002)"><path class="c" d="M103.415,216.871l1.751,3.058c1.089,1.958,2.683,4.736,4.528,8.105s3.991,7.3,6.251,11.537l3.469,6.537,3.545,6.768,3.5,6.791,3.356,6.6c2.167,4.283,4.161,8.3,5.846,11.748s3.052,6.348,4.028,8.365l1.495,3.19-1.752-3.057c-1.089-1.958-2.685-4.735-4.529-8.105s-3.992-7.3-6.251-11.537l-3.468-6.537-3.544-6.768-3.5-6.791-3.355-6.6c-2.166-4.284-4.161-8.3-5.846-11.748s-3.053-6.347-4.029-8.364Z" transform="translate(-103.415 -216.871)"/></g><g transform="translate(40.425 10.501)"><path class="c" d="M119.193,208.674l1.751,3.057c1.089,1.958,2.683,4.737,4.528,8.105s3.991,7.3,6.251,11.538l3.469,6.537,3.545,6.768,3.5,6.791,3.356,6.6c2.167,4.284,4.162,8.3,5.847,11.748s3.052,6.348,4.028,8.365l1.494,3.19-1.751-3.057c-1.089-1.958-2.685-4.736-4.529-8.1s-3.992-7.3-6.251-11.538l-3.468-6.537-3.545-6.768-3.5-6.791-3.355-6.6c-2.166-4.284-4.161-8.3-5.846-11.748s-3.053-6.347-4.029-8.365Z" transform="translate(-119.193 -208.674)"/></g><g transform="translate(47.163 7.001)"><path class="c" d="M134.971,200.477l1.75,3.057c1.089,1.958,2.683,4.737,4.528,8.105s3.991,7.3,6.251,11.537l3.469,6.537,3.546,6.768,3.5,6.791,3.356,6.6c2.167,4.284,4.161,8.3,5.847,11.748s3.052,6.348,4.028,8.365l1.495,3.19-1.751-3.057c-1.089-1.958-2.685-4.736-4.529-8.105s-3.992-7.3-6.251-11.537l-3.468-6.538-3.545-6.768-3.5-6.791-3.355-6.6c-2.166-4.284-4.161-8.3-5.846-11.748s-3.053-6.347-4.029-8.365Z" transform="translate(-134.971 -200.477)"/></g><g transform="translate(53.9 3.5)"><path class="c" d="M150.748,192.279l1.687,3.091,4.4,8.172,6.15,11.59,6.978,13.323,6.891,13.369,5.949,11.7,4.157,8.3,1.559,3.157-1.687-3.09-4.4-8.172-6.149-11.59L169.3,228.8l-6.89-13.369-5.948-11.7-4.158-8.3Z" transform="translate(-150.748 -192.279)"/></g><g transform="translate(60.638)"><path class="c" d="M166.526,184.082l1.751,3.058c1.089,1.958,2.683,4.736,4.528,8.105s3.991,7.3,6.251,11.537l3.469,6.537,3.545,6.768,3.5,6.791,3.356,6.6c2.167,4.284,4.162,8.3,5.847,11.748s3.052,6.348,4.028,8.365l1.494,3.19-1.751-3.057c-1.089-1.958-2.685-4.735-4.529-8.1s-3.992-7.3-6.251-11.538l-3.468-6.537-3.545-6.768-3.5-6.791-3.355-6.6c-2.166-4.284-4.161-8.3-5.846-11.748s-3.053-6.348-4.029-8.365Z" transform="translate(-166.526 -184.082)"/></g></g><g transform="translate(0 2.897)"><g transform="translate(31.504 60.638)"><path class="c" d="M91.519,370.633l3.09-1.687,8.172-4.4,11.59-6.15,13.324-6.978,13.369-6.891,11.695-5.948,8.3-4.157,3.157-1.559-3.09,1.687-8.172,4.4-11.59,6.149-13.324,6.978-13.369,6.89-11.7,5.948-8.3,4.158Z" transform="translate(-91.519 -332.864)"/></g><g transform="translate(28.004 53.9)"><path class="c" d="M83.322,354.856l3.057-1.75c1.958-1.089,4.737-2.683,8.105-4.528s7.3-3.991,11.537-6.251l6.537-3.468,6.768-3.546,6.791-3.5,6.6-3.356c4.283-2.167,8.3-4.162,11.748-5.847s6.348-3.052,8.365-4.028l3.19-1.494-3.057,1.751c-1.958,1.089-4.736,2.685-8.1,4.529s-7.3,3.992-11.537,6.251l-6.538,3.468-6.768,3.545-6.792,3.5-6.6,3.355c-4.284,2.166-8.3,4.161-11.748,5.846s-6.347,3.053-8.365,4.029Z" transform="translate(-83.322 -317.087)"/></g><g transform="translate(24.503 47.163)"><path class="c" d="M75.124,339.078l3.058-1.751c1.958-1.089,4.736-2.683,8.105-4.528s7.3-3.991,11.537-6.251l6.537-3.469,6.768-3.545,6.791-3.5,6.6-3.356c4.284-2.167,8.3-4.161,11.748-5.846s6.348-3.052,8.365-4.028l3.19-1.495-3.057,1.751c-1.958,1.089-4.735,2.685-8.1,4.529s-7.3,3.992-11.538,6.251l-6.537,3.468-6.768,3.545-6.792,3.5-6.6,3.355c-4.284,2.166-8.3,4.161-11.748,5.846s-6.348,3.053-8.365,4.029Z" transform="translate(-75.124 -301.309)"/></g><g transform="translate(21.003 40.426)"><path class="c" d="M66.927,323.3l3.058-1.751c1.958-1.089,4.736-2.683,8.105-4.528s7.3-3.991,11.537-6.251l6.537-3.469,6.768-3.545,6.791-3.5,6.6-3.356c4.284-2.167,8.3-4.161,11.748-5.846s6.348-3.052,8.365-4.028l3.19-1.494-3.057,1.751c-1.958,1.089-4.735,2.685-8.105,4.529s-7.3,3.992-11.537,6.251l-6.537,3.468-6.768,3.544-6.791,3.5-6.6,3.355c-4.284,2.166-8.3,4.161-11.748,5.847s-6.347,3.052-8.365,4.029Z" transform="translate(-66.927 -285.532)"/></g><g transform="translate(17.502 33.688)"><path class="c" d="M58.73,307.523l3.057-1.75c1.958-1.089,4.737-2.683,8.105-4.528s7.3-3.991,11.537-6.251l6.537-3.468,6.768-3.546,6.791-3.5,6.6-3.356c4.284-2.167,8.3-4.162,11.748-5.847s6.348-3.052,8.365-4.028l3.19-1.494-3.057,1.751c-1.958,1.089-4.736,2.685-8.105,4.529s-7.3,3.992-11.537,6.251l-6.538,3.468L95.42,289.3l-6.791,3.5-6.6,3.355c-4.284,2.166-8.3,4.161-11.748,5.846s-6.347,3.053-8.365,4.029Z" transform="translate(-58.73 -269.754)"/></g><g transform="translate(14.002 26.95)"><path class="c" d="M50.533,291.745l3.057-1.751c1.958-1.089,4.737-2.683,8.105-4.528s7.3-3.991,11.537-6.251l6.537-3.469,6.768-3.546,6.791-3.5,6.6-3.356c4.283-2.167,8.3-4.161,11.748-5.847s6.348-3.052,8.365-4.028l3.19-1.495-3.057,1.751c-1.958,1.089-4.736,2.685-8.105,4.529s-7.3,3.992-11.537,6.251l-6.538,3.467-6.768,3.545-6.792,3.5-6.6,3.355c-4.284,2.166-8.3,4.161-11.748,5.846s-6.348,3.053-8.365,4.029Z" transform="translate(-50.533 -253.976)"/></g><g transform="translate(10.501 20.213)"><path class="c" d="M42.335,275.968l3.058-1.751c1.958-1.089,4.737-2.683,8.105-4.528s7.3-3.991,11.537-6.251l6.537-3.469,6.768-3.545,6.791-3.5,6.6-3.356c4.284-2.167,8.3-4.161,11.748-5.846s6.348-3.052,8.365-4.028l3.19-1.494-3.057,1.751c-1.958,1.089-4.735,2.685-8.1,4.529s-7.3,3.992-11.538,6.251L85.794,254.2l-6.768,3.545-6.792,3.5-6.6,3.355c-4.284,2.166-8.3,4.161-11.748,5.847s-6.348,3.052-8.365,4.029Z" transform="translate(-42.335 -238.199)"/></g><g transform="translate(7.001 13.475)"><path class="c" d="M34.138,260.19l3.058-1.751c1.958-1.089,4.736-2.683,8.105-4.528s7.3-3.991,11.537-6.251l6.537-3.469,6.768-3.545,6.791-3.5,6.6-3.356c4.284-2.167,8.3-4.162,11.748-5.847s6.348-3.052,8.365-4.028l3.19-1.494-3.057,1.751c-1.958,1.089-4.735,2.685-8.105,4.529s-7.3,3.992-11.537,6.251L77.6,238.42l-6.768,3.545-6.791,3.5-6.6,3.355c-4.284,2.166-8.3,4.161-11.748,5.846s-6.347,3.053-8.364,4.029Z" transform="translate(-34.138 -222.421)"/></g><g transform="translate(3.5 6.738)"><path class="c" d="M25.941,244.412,29,242.661c1.958-1.089,4.737-2.683,8.105-4.528s7.3-3.991,11.538-6.251l6.537-3.469,6.768-3.545,6.791-3.5,6.6-3.356c4.284-2.167,8.3-4.161,11.748-5.847s6.348-3.052,8.365-4.028l3.19-1.495-3.057,1.751c-1.958,1.089-4.736,2.685-8.105,4.529s-7.3,3.992-11.537,6.251L69.4,222.642l-6.768,3.545-6.791,3.5-6.6,3.355c-4.284,2.166-8.3,4.161-11.748,5.846s-6.347,3.053-8.365,4.029Z" transform="translate(-25.941 -206.643)"/></g><path class="c" d="M17.744,228.634l3.09-1.687,8.172-4.4L40.6,216.4l13.324-6.978,13.369-6.891,11.695-5.949,8.3-4.157,3.157-1.559-3.09,1.687-8.172,4.4L67.587,203.1l-13.324,6.978-13.369,6.89-11.7,5.948-8.3,4.158Z" transform="translate(-17.744 -190.865)"/></g></g></g></g><path class="d" d="M122.325,237.838C112.019,218,90.143,208.874,73.56,217.49s-21.691,31.763-11.385,51.6c5.593,10.766,14.6,18.367,24.311,21.7,12.632,5.878,26.063,18.389,30.428,22.64a12.414,12.414,0,0,1,2.358,3.176L140.7,357.85a2.412,2.412,0,0,0,3.252,1.028l4.828-2.508a2.411,2.411,0,0,0,1.028-3.252L128.373,311.86a12.425,12.425,0,0,1-1.239-3.73c-.986-6.031-3.563-24.36-1.036-37.9C128.964,260.359,127.923,248.612,122.325,237.838Zm.417,72.053-1.861.967a1.246,1.246,0,0,1-1.46-.228,118.026,118.026,0,0,0-19.069-15.847,1.259,1.259,0,0,1,.544-2.3,28.537,28.537,0,0,0,18.256-9.453,1.259,1.259,0,0,1,2.195.881,117.163,117.163,0,0,0,2.047,24.655A1.245,1.245,0,0,1,122.742,309.891Zm-13.425-23.577c-14.861,7.721-34.608-.734-44.019-18.848s-4.977-39.132,9.884-46.853,34.608.734,44.019,18.848S124.179,278.593,109.317,286.314Z" transform="translate(-45.858 -204.238)"/><g transform="translate(39.199 81.443)"><path class="e" d="M122.906,381.532" transform="translate(-122.906 -381.532)"/></g><g transform="translate(76.888 61.862)"><path class="e" d="M211.163,335.679" transform="translate(-211.163 -335.679)"/></g><g transform="translate(93.874 148.479)"><path class="f" d="M264.163,544.025l-9.881,5.134a2.06,2.06,0,0,1-2.77-.876h0a5.106,5.106,0,0,1,2.171-6.865l4.492-2.334a5.106,5.106,0,0,1,6.865,2.17h0A2.06,2.06,0,0,1,264.163,544.025Z" transform="translate(-250.941 -538.515)"/></g></g><g transform="translate(14.499 10.008)"><path class="a" d="M79.89,228.895c-14.861,7.721-19.3,28.739-9.884,46.853s29.158,26.569,44.019,18.848c.054-.029.105-.061.16-.09L80.285,228.7C80.153,228.763,80.021,228.826,79.89,228.895Z" transform="translate(-65.064 -222.528)"/><path class="a" d="M168.548,390.219a28.65,28.65,0,0,1-10.044,3.043,1.259,1.259,0,0,0-.544,2.3,118,118,0,0,1,19.069,15.847,1.246,1.246,0,0,0,1.46.228l1.014-.527L168.7,390.137C168.648,390.163,168.6,390.193,168.548,390.219Z" transform="translate(-117.966 -315.028)"/><path class="a" d="M144.331,244.174c-9.328-17.954-28.809-26.416-43.623-19.045l33.9,65.809C149.338,283.148,153.708,262.222,144.331,244.174Z" transform="translate(-85.487 -218.959)"/><path class="a" d="M196.173,400.291a117.165,117.165,0,0,1-2.047-24.655,1.259,1.259,0,0,0-2.195-.881,28.663,28.663,0,0,1-8.063,6.327l10.805,20.976.847-.44A1.245,1.245,0,0,0,196.173,400.291Z" transform="translate(-133.135 -305.973)"/><path class="g" d="M142.168,239.464c9.377,18.048,5.006,38.974-9.724,46.763l1.612,3.131a28.663,28.663,0,0,0,8.063-6.327,1.259,1.259,0,0,1,2.195.881,117.164,117.164,0,0,0,2.047,24.655,1.245,1.245,0,0,1-.653,1.327l-.847.44,24.384,47.338,2.5-1.3a2.411,2.411,0,0,0,1.028-3.252L151.34,311.864a12.424,12.424,0,0,1-1.239-3.73c-.985-6.031-3.563-24.36-1.036-37.9,2.865-9.869,1.824-21.615-3.773-32.389-10.222-19.675-31.826-28.812-48.359-20.552l1.612,3.129C113.36,213.048,132.84,221.51,142.168,239.464Z" transform="translate(-83.324 -214.25)"/></g></g><g transform="translate(63.054 246.191) rotate(-9)"><path class="h" d="M97.126,417.843a1.709,1.709,0,0,1,1.9-1.428c6.077.793,27.723,4.626,39.236,19.949,11.5,15.306,9.176,37.133,8.244,43.218a1.729,1.729,0,0,1-1.923,1.445c-6.1-.8-27.715-4.641-39.216-19.947C93.855,445.757,96.2,423.9,97.126,417.843Z" transform="translate(-96.162 -416.237)"/><path class="i" d="M100.8,420.177a.849.849,0,0,1,1.211-.91c4.726,1.639,21.722,8.336,32.874,23.178,11.14,14.826,12.85,32.99,13.112,38.009a.859.859,0,0,1-1.226.921c-4.748-1.649-21.718-8.347-32.858-23.172C102.766,443.36,101.064,425.173,100.8,420.177Z" transform="translate(-98.75 -417.838)"/><path class="j" d="M129.466,449.244l20.45,27.216a2.732,2.732,0,0,1-.3,3.8,1.234,1.234,0,0,1-.33.187l-3.633,1.39-2.347,3.1a1.243,1.243,0,0,1-.27.263,2.732,2.732,0,0,1-3.738-.772L118.85,457.22a2.732,2.732,0,0,1,.3-3.8,1.229,1.229,0,0,1,.33-.188l3.633-1.39,2.346-3.1a1.217,1.217,0,0,1,.271-.263A2.732,2.732,0,0,1,129.466,449.244Z" transform="translate(-108.731 -434.358)"/><line class="k" x1="20.021" y1="26.646" transform="translate(15.395 19.344)"/><g class="l" transform="translate(15.059 20.185)"><line class="m" y1="3.341" x2="4.446" transform="translate(16.246 21.622)"/><line class="m" y1="3.341" x2="4.446" transform="translate(14.215 18.919)"/><line class="m" y1="3.341" x2="4.446" transform="translate(12.185 16.216)"/><line class="m" y1="3.341" x2="4.446" transform="translate(10.154 13.514)"/><line class="m" y1="3.341" x2="4.446" transform="translate(8.123 10.811)"/><line class="m" y1="3.341" x2="4.446" transform="translate(6.092 8.108)"/><line class="m" y1="3.341" x2="4.446" transform="translate(4.062 5.405)"/><line class="m" y1="3.341" x2="4.446" transform="translate(2.031 2.703)"/><line class="m" y1="3.341" x2="4.446"/></g><g transform="translate(31.163 45.547)"><path class="d" d="M185.551,542.057a2.6,2.6,0,0,0,2.971-2.382c.158-1.676.512-3.652.577-6.484.049-2.137-.353-10.514-.353-10.514l-3.084,5.076-7.743,1.1-3.532,6.7-5.414,1.975s8.1,2.614,10.087,3.143A51.948,51.948,0,0,0,185.551,542.057Z" transform="translate(-168.972 -522.678)"/></g><path class="d" d="M99.547,416.043a2.6,2.6,0,0,0-2.971,2.382c-.158,1.676-.512,3.652-.577,6.484-.049,2.137.353,10.513.353,10.513l3.084-5.076,7.743-1.1,3.532-6.7,5.414-1.975s-8.1-2.614-10.087-3.142A51.864,51.864,0,0,0,99.547,416.043Z" transform="translate(-95.995 -416.017)"/></g><g transform="translate(126.15 104.988) rotate(5)"><path class="n" d="M195.857,105.028l11.6,38.8q3.356,11.222,6.025,22.633l27.689,114.177a2.373,2.373,0,0,1-1.627,2.833h0a2.373,2.373,0,0,1-2.918-1.484l-37.8-107.092q-5.307-14.668-9.778-29.62L178.567,110.2a5.013,5.013,0,0,1,3.366-6.239l7.685-2.3A5.013,5.013,0,0,1,195.857,105.028Z" transform="translate(-178.356 -101.45)"/><path class="o" d="M285.292,407.367l11.774,48.549a2.373,2.373,0,0,1-4.544,1.349l-16.62-47.09Z" transform="translate(-234.247 -276.732)"/><path class="p" d="M215.443,143.175c5.712,19.1,18.153,57.883,19.106,57.6s-9.943-39.532-15.654-58.631-8.96-27.145-9.913-26.86S209.732,124.077,215.443,143.175Z" transform="translate(-195.761 -109.372)"/><path class="q" d="M313.867,525.39c.37,1.238,2.142,1.8,3.957,1.258s2.986-1.987,2.616-3.225-2.142-1.8-3.957-1.258S313.5,524.152,313.867,525.39Z" transform="translate(-255.96 -342.39)"/><path class="o" d="M274.8,372.814l-10.724,3.207-.835-2.366,10.968-3.28Z" transform="translate(-226.99 -255.536)"/><path class="o" d="M278.905,386.523l-10.139,3.032-.835-2.366,10.383-3.105Z" transform="translate(-229.679 -263.391)"/></g><g transform="translate(125.907 235.533)"><circle class="r" cx="31.245" cy="31.245" r="31.245" transform="translate(0 57.979) rotate(-68.097)"/><circle class="s" cx="31.245" cy="31.245" r="31.245" transform="translate(0 57.979) rotate(-68.097)"/><path class="d" d="M258.115,479.727l1.944-.85c-1.688,4.7-1.384,12.315-1.384,12.315-1.465,3.85-3.069,10.324-3.069,10.324A33.736,33.736,0,0,1,258.115,479.727Z" transform="translate(-245.285 -453.325)"/><path class="d" d="M267.206,544.163a37.015,37.015,0,0,0,8.127,3.419s3.641,4.134,6.947,5.247l-.2,1.759S271.3,550.668,267.206,544.163Z" transform="translate(-251.147 -484.233)"/><path class="d" d="M283.99,515.968s-4.847-9.687-4.912-14.058c0,0,11.014-10.621,11.52-10.8l13.682,9.457-4.94,15.089A52.378,52.378,0,0,1,283.99,515.968Z" transform="translate(-256.768 -459.119)"/><path class="d" d="M332.784,549.463a10.411,10.411,0,0,1-4.918-1.571s3.429-2.4,3.916-5.566c0,0,11.274-4.505,11.864-6.927,0,0,1.324,4.806.9,5.3S337.081,547.983,332.784,549.463Z" transform="translate(-279.865 -480.084)"/><path class="d" d="M356.012,473.675s-5.286-1.335-7.878-.482c0,0,1.711,7.132.947,11.45,0,0,5.982,3.466,8.528,8.444a6.424,6.424,0,0,0,3.61-4.892S358.911,476.7,356.012,473.675Z" transform="translate(-289.46 -450.499)"/><path class="d" d="M288.669,450.978a20.167,20.167,0,0,0-1.742,5.861l8.976,3.123,12.753-4.455-1.747-6.583A37.824,37.824,0,0,0,288.669,450.978Z" transform="translate(-260.484 -438.986)"/><line class="t" y1="6.5" x2="3.036" transform="translate(24.186 56.849)"/><path class="t" d="M262.136,502.264s5.222,3.825,8.921,4.925" transform="translate(-248.747 -464.397)"/><path class="t" d="M262.975,472.017s3.783-5.89,13.556-8.943" transform="translate(-249.144 -445.843)"/><line class="s" y1="13.623" x2="1.963" transform="translate(33.644 19.674)"/><path class="t" d="M326.2,460.552a40.261,40.261,0,0,1,12.6,7.408" transform="translate(-279.074 -444.649)"/><path class="t" d="M326.939,502.5s10.258-5.457,12.108-7.31" transform="translate(-279.426 -461.049)"/><path class="u" d="M356.517,524.12s3.817-5.765,5.659-16.49" transform="translate(-293.429 -466.937)"/><path class="t" d="M292.922,559.628s10.537,2.866,20.41-1.606" transform="translate(-263.322 -490.794)"/><path class="t" d="M317.557,537.729s2.725,2.629,9.344,5.7" transform="translate(-274.984 -481.187)"/></g><g transform="translate(6240.111 -3099.389)"><circle class="v" cx="14" cy="14" r="14" transform="translate(-6147 3255.839)"/><path class="w" d="M-6088.338,3255.716s-1.161,6.418,2.124,9.453,11.017.383,11.822,6.423,7.24-2.457,7.24-2.457" transform="translate(-44.968)"/><path class="w" d="M14.04,0s1.067,6.134-2.218,9.169S.805,9.552,0,15.592s-.422,2.438-.422,2.438" transform="matrix(0.259, -0.966, 0.966, 0.259, -6150.782, 3280.267)"/></g><g transform="translate(161.59 109.525) rotate(-11)"><g transform="translate(19.395 0)"><g class="x" transform="translate(0)"><g transform="translate(-13.545 -9.321)"><g transform="translate(4.06)"><path class="c" d="M519.176,81.455l-1.027,3.311c-.679,2.1-1.61,5.109-2.8,8.7s-2.581,7.772-4.114,12.24l-2.38,6.883-2.5,7.092-2.542,7.076-2.5,6.841c-1.63,4.433-3.181,8.561-4.537,12.09s-2.523,6.456-3.321,8.512l-1.295,3.216L493.2,154.1c.679-2.1,1.609-5.11,2.8-8.7s2.58-7.772,4.114-12.24c.773-2.232,1.571-4.538,2.381-6.882l2.5-7.092,2.543-7.075,2.5-6.84c1.632-4.433,3.182-8.561,4.537-12.09s2.523-6.456,3.32-8.512Z" transform="translate(-492.169 -81.455)"/><g transform="translate(7.04 2.503)"><path class="c" d="M535.662,87.316,534.569,90.6l-2.933,8.649-4.22,12.2L522.5,125.417l-5,13.929-4.43,12.128-3.186,8.559-1.227,3.24,1.093-3.288,2.932-8.649,4.221-12.2c1.568-4.456,3.24-9.209,4.913-13.961l5-13.929,4.43-12.128,3.186-8.559Z" transform="translate(-508.655 -87.316)"/></g><g transform="translate(14.08 5.006)"><path class="c" d="M552.148,93.178l-1.027,3.311c-.68,2.1-1.611,5.109-2.8,8.7s-2.581,7.772-4.114,12.24l-2.38,6.882-2.5,7.093-2.542,7.075-2.5,6.841c-1.63,4.433-3.181,8.561-4.537,12.09s-2.523,6.456-3.321,8.512l-1.295,3.216,1.026-3.312c.679-2.1,1.609-5.11,2.8-8.7s2.58-7.772,4.114-12.24L535.459,138l2.5-7.092,2.543-7.075L543,117c1.632-4.433,3.182-8.561,4.537-12.09s2.522-6.456,3.32-8.512Z" transform="translate(-525.14 -93.178)"/></g><g transform="translate(21.12 7.509)"><path class="c" d="M568.633,99.04s-.373,1.2-1.027,3.311c-.679,2.1-1.61,5.109-2.8,8.7s-2.58,7.772-4.114,12.24l-2.38,6.883-2.495,7.092-2.542,7.076-2.5,6.841c-1.631,4.433-3.182,8.561-4.537,12.09s-2.524,6.456-3.321,8.512L541.626,175l1.026-3.311c.679-2.1,1.609-5.11,2.8-8.7s2.58-7.772,4.114-12.24l2.381-6.882,2.5-7.092,2.542-7.075,2.5-6.84c1.631-4.433,3.182-8.561,4.537-12.09s2.522-6.456,3.32-8.512Z" transform="translate(-541.626 -99.04)"/></g><g transform="translate(28.159 10.012)"><path class="c" d="M585.119,104.9l-1.027,3.312c-.68,2.1-1.611,5.109-2.8,8.7s-2.581,7.772-4.114,12.24l-2.38,6.882-2.495,7.092-2.542,7.075-2.5,6.841c-1.63,4.433-3.181,8.561-4.537,12.09s-2.523,6.455-3.321,8.512l-1.295,3.216,1.027-3.312c.679-2.1,1.609-5.109,2.8-8.7s2.58-7.772,4.114-12.24l2.381-6.882,2.5-7.092,2.543-7.075,2.5-6.84c1.632-4.433,3.182-8.561,4.537-12.09s2.522-6.456,3.32-8.512Z" transform="translate(-558.111 -104.901)"/></g><g transform="translate(35.199 12.515)"><path class="c" d="M601.6,110.763s-.373,1.2-1.027,3.311c-.679,2.1-1.61,5.109-2.8,8.7s-2.581,7.772-4.114,12.24l-2.38,6.882-2.495,7.093-2.542,7.075-2.5,6.841c-1.631,4.433-3.182,8.561-4.537,12.09s-2.524,6.456-3.321,8.512L574.6,186.72l1.026-3.312c.68-2.1,1.609-5.11,2.8-8.7s2.58-7.772,4.114-12.24l2.381-6.882,2.5-7.092,2.542-7.075,2.5-6.84c1.632-4.433,3.182-8.561,4.537-12.09s2.522-6.456,3.32-8.512Z" transform="translate(-574.597 -110.763)"/></g><g transform="translate(42.239 15.019)"><path class="c" d="M618.09,116.625l-1.027,3.311c-.679,2.1-1.611,5.109-2.8,8.7s-2.58,7.772-4.113,12.24l-2.38,6.883-2.495,7.092-2.542,7.076-2.5,6.841c-1.63,4.433-3.181,8.561-4.537,12.09s-2.523,6.456-3.321,8.512l-1.295,3.216,1.027-3.311c.679-2.1,1.609-5.11,2.8-8.7s2.58-7.772,4.114-12.24l2.381-6.882,2.5-7.092,2.543-7.075,2.5-6.84c1.632-4.433,3.182-8.561,4.537-12.09s2.522-6.456,3.32-8.512Z" transform="translate(-591.082 -116.625)"/></g><g transform="translate(49.279 17.521)"><path class="c" d="M634.576,122.486l-1.027,3.312c-.679,2.1-1.61,5.109-2.8,8.7s-2.581,7.772-4.114,12.24l-2.38,6.882-2.495,7.093-2.542,7.075-2.5,6.841c-1.631,4.433-3.182,8.561-4.537,12.09s-2.523,6.455-3.321,8.512l-1.295,3.216,1.026-3.312c.679-2.1,1.609-5.109,2.8-8.7s2.58-7.772,4.114-12.24l2.381-6.882,2.5-7.092,2.543-7.075,2.5-6.84c1.632-4.433,3.182-8.561,4.537-12.09s2.523-6.456,3.32-8.512Z" transform="translate(-607.568 -122.486)"/></g><g transform="translate(56.318 20.025)"><path class="c" d="M651.061,128.348l-1.094,3.288-2.933,8.649-4.22,12.2L637.9,166.449l-5,13.929-4.43,12.128-3.186,8.559-1.228,3.24,1.094-3.288,2.932-8.65c1.235-3.571,2.677-7.738,4.22-12.2l4.913-13.961,5-13.929,4.431-12.128,3.186-8.559Z" transform="translate(-624.053 -128.348)"/></g><g transform="translate(63.358 22.528)"><path class="c" d="M667.547,134.21l-1.027,3.311c-.679,2.1-1.61,5.109-2.8,8.7s-2.581,7.772-4.114,12.24l-2.38,6.883-2.495,7.092-2.542,7.076-2.5,6.841c-1.63,4.433-3.182,8.561-4.537,12.09s-2.523,6.456-3.321,8.512l-1.295,3.216,1.026-3.312c.679-2.1,1.609-5.109,2.8-8.7s2.58-7.772,4.114-12.24l2.381-6.882,2.5-7.092,2.543-7.075,2.5-6.84c1.632-4.433,3.182-8.561,4.537-12.09s2.523-6.456,3.32-8.512Z" transform="translate(-640.539 -134.21)"/></g></g><g transform="translate(0 4.059)"><g transform="translate(0 63.358)"><path class="c" d="M482.662,239.331l3.288,1.094,8.65,2.933,12.2,4.22,13.962,4.913,13.929,5,12.128,4.43,8.559,3.186,3.24,1.228-3.288-1.094-8.649-2.932-12.2-4.22-13.962-4.913-13.929-5-12.128-4.431-8.559-3.186Z" transform="translate(-482.662 -239.331)"/></g><g transform="translate(2.503 56.319)"><path class="c" d="M488.524,222.846l3.311,1.027c2.1.679,5.109,1.61,8.7,2.8s7.772,2.581,12.24,4.114l6.882,2.38,7.092,2.495,7.076,2.542,6.84,2.5c4.433,1.631,8.561,3.182,12.09,4.537s6.456,2.523,8.512,3.321l3.216,1.295-3.312-1.026c-2.1-.679-5.11-1.609-8.7-2.8s-7.772-2.58-12.24-4.114l-6.883-2.381-7.092-2.5-7.075-2.543-6.84-2.5c-4.433-1.632-8.561-3.182-12.09-4.537s-6.456-2.522-8.512-3.32Z" transform="translate(-488.524 -222.846)"/></g><g transform="translate(5.006 49.279)"><path class="c" d="M494.386,206.36l3.311,1.027c2.1.679,5.109,1.611,8.7,2.8s7.772,2.581,12.24,4.114l6.883,2.38,7.092,2.495,7.076,2.542,6.841,2.5c4.433,1.63,8.561,3.181,12.09,4.537s6.455,2.523,8.511,3.321l3.216,1.295-3.311-1.027c-2.1-.679-5.11-1.609-8.7-2.8s-7.772-2.58-12.24-4.114l-6.882-2.381-7.092-2.5-7.076-2.543-6.84-2.5c-4.433-1.632-8.561-3.182-12.09-4.537s-6.456-2.522-8.512-3.32Z" transform="translate(-494.386 -206.36)"/></g><g transform="translate(7.509 42.239)"><path class="c" d="M500.247,189.875l3.312,1.027c2.1.679,5.109,1.61,8.7,2.8s7.772,2.581,12.24,4.114l6.882,2.38,7.093,2.495,7.075,2.542,6.841,2.5c4.433,1.631,8.561,3.182,12.09,4.537s6.455,2.523,8.512,3.321l3.216,1.295-3.312-1.026c-2.1-.679-5.11-1.609-8.7-2.8s-7.773-2.58-12.24-4.114l-6.882-2.381-7.092-2.5-7.075-2.543-6.84-2.5c-4.433-1.632-8.561-3.182-12.09-4.537s-6.456-2.522-8.512-3.32Z" transform="translate(-500.247 -189.875)"/></g><g transform="translate(10.013 35.199)"><path class="c" d="M506.109,173.389l3.311,1.027c2.1.679,5.109,1.61,8.7,2.8s7.772,2.581,12.24,4.114l6.882,2.38,7.093,2.495,7.075,2.542,6.841,2.5c4.433,1.63,8.561,3.181,12.09,4.536s6.456,2.524,8.512,3.321l3.216,1.295-3.312-1.027c-2.1-.679-5.11-1.609-8.7-2.8s-7.772-2.58-12.24-4.114l-6.882-2.381-7.092-2.5-7.075-2.543-6.84-2.5c-4.433-1.632-8.561-3.182-12.09-4.537s-6.456-2.522-8.512-3.32Z" transform="translate(-506.109 -173.389)"/></g><g transform="translate(12.516 28.16)"><path class="c" d="M511.971,156.9l3.311,1.027c2.1.679,5.109,1.61,8.7,2.8s7.772,2.581,12.24,4.114l6.883,2.38,7.092,2.5,7.076,2.542,6.84,2.5c4.434,1.63,8.562,3.182,12.09,4.537s6.455,2.523,8.512,3.321l3.216,1.295-3.311-1.026c-2.1-.679-5.11-1.609-8.7-2.8s-7.772-2.58-12.24-4.114l-6.882-2.381-7.092-2.5-7.075-2.543-6.84-2.5c-4.433-1.632-8.561-3.182-12.09-4.537s-6.456-2.523-8.511-3.32Z" transform="translate(-511.971 -156.904)"/></g><g transform="translate(15.019 21.12)"><path class="c" d="M517.832,140.418l3.312,1.027c2.1.679,5.109,1.61,8.7,2.8s7.772,2.581,12.24,4.114l6.882,2.38,7.093,2.495,7.075,2.542,6.841,2.5c4.433,1.631,8.561,3.182,12.09,4.537s6.455,2.524,8.512,3.321l3.216,1.294-3.312-1.026c-2.1-.679-5.11-1.609-8.7-2.8s-7.773-2.58-12.24-4.114l-6.882-2.381-7.093-2.5-7.075-2.543-6.84-2.5c-4.433-1.631-8.561-3.182-12.09-4.537s-6.456-2.522-8.512-3.32Z" transform="translate(-517.832 -140.418)"/></g><g transform="translate(17.522 14.08)"><path class="c" d="M523.694,123.932l3.311,1.027c2.1.68,5.109,1.611,8.7,2.8s7.772,2.581,12.24,4.114l6.882,2.38,7.093,2.5,7.075,2.542,6.841,2.5c4.433,1.63,8.561,3.181,12.09,4.537s6.456,2.523,8.511,3.321l3.216,1.295-3.312-1.026c-2.1-.679-5.11-1.609-8.7-2.8s-7.772-2.58-12.24-4.114l-6.882-2.381-7.092-2.5-7.076-2.543-6.84-2.5c-4.433-1.632-8.561-3.182-12.09-4.537s-6.456-2.523-8.512-3.32Z" transform="translate(-523.694 -123.932)"/></g><g transform="translate(20.025 7.04)"><path class="c" d="M529.556,107.447l3.311,1.027c2.1.679,5.109,1.61,8.7,2.8s7.772,2.581,12.24,4.114l6.882,2.38,7.093,2.495,7.076,2.542,6.84,2.5c4.434,1.631,8.561,3.182,12.09,4.537s6.455,2.524,8.512,3.321l3.216,1.295-3.312-1.026c-2.1-.679-5.109-1.609-8.7-2.8s-7.772-2.58-12.24-4.114l-6.882-2.381-7.092-2.5-7.075-2.543-6.84-2.5c-4.433-1.631-8.561-3.182-12.09-4.537s-6.456-2.522-8.512-3.32Z" transform="translate(-529.556 -107.447)"/></g><g transform="translate(22.528)"><path class="c" d="M535.417,90.961l3.288,1.094,8.649,2.933,12.2,4.22,13.962,4.913,13.929,5,12.128,4.43,8.559,3.186,3.24,1.228-3.288-1.094-8.649-2.932-12.2-4.22-13.962-4.913-13.929-5-12.128-4.431-8.559-3.186Z" transform="translate(-535.417 -90.961)"/></g></g></g></g></g><path class="f" d="M555.948,160.494c6.618-18.612.57-37.819-13.482-42.815s-30.867,6.081-37.485,24.693c-3.592,10.1-3.446,20.373-.321,28.458,2.25,8.263,2.686,24.629,2.753,33.126a29.874,29.874,0,0,1-1.726,10.25l-25.125,70.661,4.363,1.551,25.137-70.7a29.877,29.877,0,0,1,5.106-9.007c5.418-6.569,16.12-19.054,23.045-23.939C545.748,178.481,552.354,170.6,555.948,160.494ZM511.7,204.91l-.459-.163a1.01,1.01,0,0,1-.636-1.047,120.363,120.363,0,0,0-1.023-21.8c-.128-1.006.992-1.723,1.692-1.08a20.722,20.722,0,0,0,15.449,5.52,1.075,1.075,0,0,1,.629,1.905,119.158,119.158,0,0,0-14.5,16.251A1.01,1.01,0,0,1,511.7,204.91Zm7.8-22.653c-12.592-4.477-17.92-21.947-11.877-38.943s21.2-27.181,33.8-22.7,17.92,21.947,11.877,38.943S532.1,186.734,519.505,182.257Z" transform="translate(-475.609 -110.845)"/><g transform="translate(0 173.745)"><path class="y" d="M478.424,517.924l-8.373-2.977a1.644,1.644,0,0,1-1-2.094h0a4.074,4.074,0,0,1,5.189-2.467l3.806,1.354a4.074,4.074,0,0,1,2.467,5.188h0A1.643,1.643,0,0,1,478.424,517.924Z" transform="translate(-468.962 -510.153)"/></g><path class="z" d="M507.392,435.113l-5.075-1.8a2.681,2.681,0,0,1-1.623-3.414h0a2.681,2.681,0,0,1,3.415-1.623l5.075,1.8a2.681,2.681,0,0,1,1.623,3.415h0A2.681,2.681,0,0,1,507.392,435.113Z" transform="translate(-487.055 -289.404)"/><path class="z" d="M503.2,446.91l-5.075-1.8a2.682,2.682,0,0,1-1.624-3.414h0a2.682,2.682,0,0,1,3.415-1.623l5.075,1.8a2.681,2.681,0,0,1,1.624,3.415h0A2.682,2.682,0,0,1,503.2,446.91Z" transform="translate(-484.652 -296.163)"/><path class="z" d="M499,458.707l-5.076-1.8a2.682,2.682,0,0,1-1.623-3.415h0a2.681,2.681,0,0,1,3.414-1.623l5.075,1.8a2.681,2.681,0,0,1,1.623,3.414h0A2.681,2.681,0,0,1,499,458.707Z" transform="translate(-482.249 -302.922)"/><path class="z" d="M494.809,470.5l-5.075-1.8a2.681,2.681,0,0,1-1.623-3.414h0a2.681,2.681,0,0,1,3.414-1.623l5.076,1.8a2.681,2.681,0,0,1,1.623,3.414h0A2.681,2.681,0,0,1,494.809,470.5Z" transform="translate(-479.845 -309.681)"/><path class="y" d="M490.615,482.3l-5.076-1.8a2.681,2.681,0,0,1-1.623-3.415h0a2.682,2.682,0,0,1,3.415-1.623l5.075,1.8a2.681,2.681,0,0,1,1.623,3.415h0A2.681,2.681,0,0,1,490.615,482.3Z" transform="translate(-477.442 -316.44)"/><path class="y" d="M486.42,494.1l-5.075-1.8a2.681,2.681,0,0,1-1.623-3.415h0a2.681,2.681,0,0,1,3.414-1.623l5.076,1.8a2.681,2.681,0,0,1,1.623,3.414h0A2.682,2.682,0,0,1,486.42,494.1Z" transform="translate(-475.039 -323.2)"/><path class="y" d="M482.226,505.893l-5.076-1.8a2.681,2.681,0,0,1-1.623-3.414h0a2.681,2.681,0,0,1,3.415-1.623l5.075,1.8a2.681,2.681,0,0,1,1.623,3.414h0A2.681,2.681,0,0,1,482.226,505.893Z" transform="translate(-472.635 -329.959)"/></g><g transform="translate(199.897 167.363)"><g transform="translate(0 0)"><path class="aa" d="M536.978,298.066c5.809-11.382,10.774-16.657,14.1-19.1a10.8,10.8,0,0,1,6.522-2.086l31.057.351a3.841,3.841,0,0,1,3.365,5.586l-.836,1.638a10.4,10.4,0,0,1-10.127,5.635c-7.6-.637-19.4-1.357-24.631-1.152-7.868.31-13.364,9.727-13.364,9.727L485.613,411.231a2.847,2.847,0,0,1-3.83,1.242h0a2.847,2.847,0,0,1-1.242-3.83Z" transform="translate(-480.229 -276.878)"/><g class="ab"><g transform="translate(76.145 -4.093)"><g transform="translate(26.174 1.803)"><rect class="ac" width="1.948" height="17.674" transform="translate(0 0.066) rotate(-1.931)"/></g><g transform="translate(20.213 1.823)"><rect class="ac" width="16.922" height="1.948" transform="translate(0 16.516) rotate(-77.414)"/></g><g transform="translate(18.153 1.373)"><rect class="ac" width="17.462" height="1.948" transform="translate(0 17.342) rotate(-83.275)"/></g><g transform="translate(14.233 2.815)"><rect class="ac" width="17.129" height="1.948" transform="translate(0 16.603) rotate(-75.765)"/></g><g transform="translate(12.242 2.63)"><rect class="ac" width="14.947" height="1.948" transform="translate(0 14.894) rotate(-85.198)"/></g><g transform="translate(8.432 0.368)"><rect class="ac" width="18.526" height="1.948" transform="matrix(0.111, -0.994, 0.994, 0.111, 0, 18.411)"/></g><g transform="translate(5.509 1.301)"><rect class="ac" width="16.614" height="1.948" transform="translate(0 16.581) rotate(-86.379)"/></g><g transform="translate(0 0)"><rect class="ac" width="18.908" height="1.948" transform="translate(0 18.467) rotate(-77.599)"/></g></g></g></g><line class="ad" x1="5.073" y1="2.587" transform="translate(2.758 126.97)"/><line class="ad" x1="5.073" y1="2.587" transform="translate(5.228 122.129)"/></g><g transform="translate(268.682 209.612)"><path class="d" d="M646.182,359.621c.034,2.431,6.482,4.313,14.4,4.2s14.314-2.169,14.281-4.6-6.482-4.313-14.4-4.2S646.149,357.19,646.182,359.621Z" transform="translate(-646.1 -348.898)"/><path class="d" d="M674.755,356.869l-.082-5.964-28.683.4.082,5.964" transform="translate(-645.989 -346.542)"/><ellipse class="ae" cx="14.222" cy="4.365" rx="14.222" ry="4.365" transform="translate(0.061 0.393) rotate(-0.792)"/></g><g transform="translate(218.88 229.676)"><g transform="translate(0 0)"><circle class="z" cx="25.285" cy="25.285" r="25.285" transform="translate(0 35.758) rotate(-45)"/><path class="d" d="M573.448,496.776a3.866,3.866,0,1,0-5.425-.683A3.866,3.866,0,0,0,573.448,496.776Z" transform="translate(-550.05 -463.221)"/><circle class="d" cx="3.866" cy="3.866" r="3.866" transform="matrix(0.715, -0.699, 0.699, 0.715, 26.373, 40.721)"/><circle class="d" cx="3.866" cy="3.866" r="3.866" transform="translate(31.996 20.14) rotate(-7.439)"/></g></g><g transform="translate(184.63 232.013)"><path class="af" d="M458.859,464.9A35.219,35.219,0,0,0,467.9,483.4l16.866-2.37a35.219,35.219,0,0,0,3.591-20.283c-1.455-10.356-8.316-21.108-13.616-28.1a11.7,11.7,0,0,1-1.995-10.189,17.7,17.7,0,0,0,.782-6.809c-.83-5.906-4.182-8.9-7.728-8.4s-5.943,4.3-5.113,10.207a17.7,17.7,0,0,0,2.628,6.33,11.7,11.7,0,0,1,.89,10.344C461.037,442.314,457.4,454.54,458.859,464.9Z" transform="translate(-458.528 -407.198)"/><path class="ag" d="M470.03,567.158a40.731,40.731,0,0,0,4.46,5.97l16.866-2.369A40.737,40.737,0,0,0,494,563.791Z" transform="translate(-465.118 -496.921)"/><path class="ag" d="M465.406,558.288l26.177-3.678q.192-1.043.322-2.121l-27.392,3.848Q464.933,557.339,465.406,558.288Z" transform="translate(-461.957 -490.445)"/><path class="ag" d="M469.839,444.457a11.443,11.443,0,0,1,1.34,3.3l7.649-1.074a11.424,11.424,0,0,1,.379-3.542Z" transform="translate(-465.009 -427.792)"/><path class="ag" d="M473.2,457.283a11.854,11.854,0,0,1-.342,3.537l9.284-1.3a11.858,11.858,0,0,1-1.3-3.306Z" transform="translate(-466.739 -435.28)"/></g><g transform="translate(184.63 110.912)"><line class="ah" x1="9.686" y1="14.522" transform="translate(19.593 17.554)"/><line class="ah" x1="8.42" y1="15.099" transform="translate(22.14 15.767)"/><line class="ah" x1="6.565" y1="15.92" transform="translate(24.754 14.186)"/><line class="ah" x1="11.594" y1="13.055" transform="translate(16.902 19.623)"/><line class="ah" x1="12.493" y1="11.967" transform="translate(14.521 21.626)"/><line class="ah" x1="13.589" y1="10.425" transform="translate(12.322 23.747)"/><path class="ah" d="M468.319,187.545a23.185,23.185,0,0,0,6.044-3.206,22.4,22.4,0,0,0,4.65-5.019" transform="translate(-452.629 -161.216)"/><path class="ah" d="M475.415,194.444a16.97,16.97,0,0,0,5.044-2.675,18.36,18.36,0,0,0,3.881-4.187" transform="translate(-456.278 -165.463)"/><g transform="translate(0 13.939)"><path class="ac" d="M436.024,172.678a7.414,7.414,0,0,0,3.012,5.793c2.642,2.025,6.807,2.854,8.632,3.133Z" transform="translate(-436.024 -171.74)"/><path class="ac" d="M448.813,179.885c-.744-1.69-2.625-5.5-5.267-7.522a7.415,7.415,0,0,0-6.377-1.4Z" transform="translate(-436.613 -170.748)"/></g><g transform="translate(3.226 10.725)"><path class="ac" d="M442.693,165.62a7.416,7.416,0,0,0,2.353,6.09c2.4,2.305,6.449,3.589,8.232,4.068Z" transform="translate(-442.664 -164.897)"/><path class="ac" d="M454.614,174.353c-.552-1.762-2-5.753-4.4-8.058a7.416,7.416,0,0,0-6.182-2.1Z" transform="translate(-443.366 -164.132)"/></g><g transform="translate(6.413 7.93)"><path class="ac" d="M449.333,159.642a7.415,7.415,0,0,0,1.838,6.265c2.2,2.5,6.129,4.113,7.866,4.739Z" transform="translate(-449.224 -159.028)"/><path class="ac" d="M460.565,169.391c-.4-1.8-1.516-5.9-3.718-8.4a7.414,7.414,0,0,0-5.985-2.607Z" transform="translate(-450.066 -158.378)"/></g><g transform="translate(10.448 4.677)"><path class="ac" d="M457.871,152.727a7.417,7.417,0,0,0,.982,6.455c1.848,2.769,5.523,4.9,7.161,5.75Z" transform="translate(-457.529 -152.219)"/><path class="ac" d="M467.942,163.887c-.159-1.839-.712-6.05-2.56-8.819a7.417,7.417,0,0,0-5.583-3.386Z" transform="translate(-458.696 -151.682)"/></g><g transform="translate(13.845 2.266)"><path class="ac" d="M465.072,147.631a7.414,7.414,0,0,0,.443,6.514c1.611,2.913,5.1,5.339,6.657,6.325Z" transform="translate(-464.521 -147.188)"/><path class="ac" d="M474.4,159.559c-.005-1.846-.207-6.088-1.818-9a7.414,7.414,0,0,0-5.282-3.838Z" transform="translate(-465.951 -146.72)"/></g><g transform="translate(17.601 0)"><path class="ac" d="M473.154,142.779a7.415,7.415,0,0,0-.28,6.523c1.28,3.076,4.476,5.872,5.917,7.022Z" transform="translate(-472.253 -142.428)"/><path class="ac" d="M481.482,155.6c.2-1.835.467-6.073-.811-9.147a7.416,7.416,0,0,0-4.825-4.4Z" transform="translate(-474.1 -142.056)"/></g><path class="d" d="M496.059,211.288h0a4.986,4.986,0,0,1-6.993-.913l-3.039-3.953a22.087,22.087,0,0,0,4.43-2.419,21.5,21.5,0,0,0,3.475-3.661l3.039,3.953A4.986,4.986,0,0,1,496.059,211.288Z" transform="translate(-461.734 -172.025)"/><g transform="translate(24.293 28.318)"><g class="ai"><path class="aj" d="M488.473,210.556a26.141,26.141,0,0,0,4.792-2.7,25.437,25.437,0,0,0,3.837-3.939" transform="translate(-487.285 -202.183)"/></g></g></g><g transform="translate(198.641 217.533)"><path class="ak" d="M492.572,430a39.155,39.155,0,0,0,1.612,22.843l18.372,4.581A39.152,39.152,0,0,0,524.7,438.009c2.813-11.28.219-25.22-2.334-34.634a13.012,13.012,0,0,1,2.187-11.333,19.683,19.683,0,0,0,3.642-6.693c1.6-6.433-.6-10.917-4.466-11.88s-7.917,1.959-9.521,8.392a19.683,19.683,0,0,0,.073,7.619,13.011,13.011,0,0,1-3.39,11.033C504.222,407.626,495.386,418.715,492.572,430Z" transform="translate(-491.454 -373.289)"/><path class="ag" d="M492.788,540.815a45.289,45.289,0,0,0,2.111,8.011l18.372,4.581a45.271,45.271,0,0,0,5.626-6.081Z" transform="translate(-492.169 -469.277)"/><path class="ag" d="M491.447,530.413l28.514,7.111q.631-1,1.215-2.053l-29.837-7.44C491.35,528.835,491.388,529.629,491.447,530.413Z" transform="translate(-491.339 -461.951)"/><path class="ag" d="M544.835,411.424a12.715,12.715,0,0,1,.007,3.961l8.332,2.078a12.71,12.71,0,0,1,1.866-3.493Z" transform="translate(-521.991 -395.139)"/><path class="ag" d="M541.119,425.9a13.184,13.184,0,0,1-1.826,3.5l10.112,2.522a13.184,13.184,0,0,1,.034-3.95Z" transform="translate(-518.815 -403.434)"/></g></g></svg>