<svg width="160" height="130" viewBox="0 0 160 130" fill="none" xmlns="http://www.w3.org/2000/svg">
<path d="M67.4699 63.8007V130H0V86.3469C0 69.7171 2.89157 54.6863 8.6747 41.2546C14.4578 27.5031 24.257 13.7515 38.0723 0L62.6506 19.1882C54.9398 27.5031 48.996 35.1783 44.8193 42.214C40.6426 49.2497 37.9116 56.4452 36.6265 63.8007H67.4699ZM160 63.8007V130H92.5301V86.3469C92.5301 69.7171 95.4217 54.6863 101.205 41.2546C106.988 27.5031 116.787 13.7515 130.602 0L155.181 19.1882C147.47 27.5031 141.526 35.1783 137.349 42.214C133.173 49.2497 130.442 56.4452 129.157 63.8007H160Z" fill="dodgerblue"/>
</svg>
